<?xml version="1.0" encoding="UTF-8" standalone="no"?>
<svg
   version="1.1"
   width="1024"
   height="965"
   id="svg34"
   sodipodi:docname="1-city-main-page-blank.svg"
   inkscape:version="1.4.2 (f4327f4, 2025-05-13)"
   xmlns:inkscape="http://www.inkscape.org/namespaces/inkscape"
   xmlns:sodipodi="http://sodipodi.sourceforge.net/DTD/sodipodi-0.dtd"
   xmlns="http://www.w3.org/2000/svg"
   xmlns:svg="http://www.w3.org/2000/svg">
  <defs
     id="defs34" />
  <sodipodi:namedview
     id="namedview34"
     pagecolor="#ffffff"
     bordercolor="#000000"
     borderopacity="0.25"
     inkscape:showpageshadow="2"
     inkscape:pageopacity="0.0"
     inkscape:pagecheckerboard="0"
     inkscape:deskcolor="#d1d1d1"
     inkscape:zoom="0.78808594"
     inkscape:cx="511.36555"
     inkscape:cy="613.51177"
     inkscape:window-width="1920"
     inkscape:window-height="1009"
     inkscape:window-x="1912"
     inkscape:window-y="-8"
     inkscape:window-maximized="1"
     inkscape:current-layer="svg34" />
  <path
     d="m 46,300 h 143 v 252 h 60 V 452 h 118 v 289 h 10 V 528 h 2 v 213 h 9 V 539 h 2 v 202 h 7 V 550 h 2 v 191 h 18 c 7.71113,4.65447 7.71113,4.65447 10.30469,6.94531 4.1913,3.54791 8.70314,6.55905 13.25781,9.61719 1.61545,1.09898 3.23005,2.19922 4.84375,3.30078 0.77473,0.52803 1.54945,1.05607 2.34766,1.6001 4.31034,2.94883 8.59273,5.93784 12.875,8.92724 C 462.88117,772.9957 462.88117,772.9957 465,774 V 905 H 577 V 723 l 28,-15 10,-6 c 3.11426,0.39624 3.11426,0.39624 6,2 1.28354,0.56886 2.57135,1.12812 3.8623,1.67993 1.43798,0.65691 2.87444,1.31714 4.30957,1.98023 0.76363,0.34993 1.52726,0.69987 2.31403,1.06041 2.42271,1.11109 4.8434,2.22648 7.2641,3.34193 1.6418,0.75353 3.28373,1.50679 4.92578,2.25977 11.80504,5.41814 11.80504,5.41814 14.32422,6.67773 -0.009,-1.04638 -0.0184,-2.09275 -0.0279,-3.17083 -0.22217,-25.48155 -0.38641,-50.96297 -0.49019,-76.44528 -0.0515,-12.32322 -0.12175,-24.6458 -0.23627,-36.96861 -0.0998,-10.74285 -0.16422,-21.48524 -0.18649,-32.22855 -0.013,-5.68676 -0.0435,-11.3722 -0.11642,-17.05854 -0.0681,-5.35773 -0.0888,-10.71359 -0.0738,-16.07171 -0.003,-1.96119 -0.0225,-3.92245 -0.061,-5.88326 -0.3103,-16.63139 -0.3103,-16.63139 6.02082,-23.62273 C 664.53771,508.017 666.26066,506.49892 668,505 c 1.3289,-1.5947 2.62731,-3.216 3.875,-4.875 3.63851,-4.63818 7.58071,-8.91489 11.60815,-13.21143 4.16493,-4.46815 8.04965,-9.10041 11.87232,-13.8667 C 697,471 697,471 698,470 c 2.7387,-0.0886 5.45275,-0.11531 8.19141,-0.0977 0.72634,10e-4 1.45269,0.002 2.20105,0.003 2.72336,0.005 5.4467,0.0192 8.17004,0.0321 6.08438,0.0206 12.16875,0.0412 18.4375,0.0625 v -63 h 144 v 161 l 20,1 -0.23804,-7.09326 c -0.24932,-7.76215 -0.41452,-15.52448 -0.53914,-23.28958 -0.0781,-4.70561 -0.18379,-9.40709 -0.35441,-14.11032 -0.16386,-4.54564 -0.25283,-9.08733 -0.29157,-13.63569 -0.0276,-1.72842 -0.0814,-3.45664 -0.16279,-5.18337 -0.5955,-13.16953 -0.5955,-13.16953 3.00897,-17.3305 3.60713,-3.03922 7.63632,-5.22568 11.81054,-7.38499 2.24889,-1.23784 4.05754,-2.73785 5.92269,-4.49426 C 951.6649,444.99027 973.89666,454 1024,454 l 1.2689,510.36183 L 0,965.63073 V 395 h 46 z"
     fill="#1b1d3d"
     id="path2"
     style="display:inline"
     sodipodi:nodetypes="ccccccccccccccccccccccccccccccccccccccccscccccccccccccccccccccccccccccccc" />
  <path
     d="m 735,407 c 47.52,0 95.04,0 144,0 0,53.13 0,106.26 0,161 9.9,0.495 9.9,0.495 20,1 -0.0786,-2.34078 -0.1571,-4.68155 -0.23804,-7.09326 -0.24932,-7.76215 -0.41452,-15.52448 -0.53914,-23.28958 -0.0781,-4.70561 -0.18379,-9.40709 -0.35441,-14.11032 -0.16386,-4.54564 -0.25283,-9.08733 -0.29157,-13.63569 -0.0276,-1.72842 -0.0814,-3.45664 -0.16279,-5.18337 -0.5955,-13.16954 -0.5955,-13.16954 3.00897,-17.3305 3.60713,-3.03922 7.63632,-5.22568 11.81054,-7.38499 2.24889,-1.23784 4.05754,-2.73785 5.92269,-4.49426 C 951.6649,444.99027 973.89666,454 1024,454 c 0,149.16 0,298.32 0,452 -251.79,0 -503.58,0 -763,0 0,-116.82 0,-233.64 0,-354 -3.96,0 -7.92,0 -12,0 0,-33 0,-66 0,-100 38.94,0 77.88,0 118,0 0,95.37 0,190.74 0,289 3.3,0 6.6,0 10,0 0,-70.29 0,-140.58 0,-213 0.66,0 1.32,0 2,0 0,70.29 0,140.58 0,213 2.97,0 5.94,0 9,0 0,-66.66 0,-133.32 0,-202 0.66,0 1.32,0 2,0 0,66.66 0,133.32 0,202 2.31,0 4.62,0 7,0 0,-63.03 0,-126.06 0,-191 0.66,0 1.32,0 2,0 0,63.03 0,126.06 0,191 5.94,0 11.88,0 18,0 7.71113,4.65447 7.71113,4.65447 10.30469,6.94531 4.1913,3.54791 8.70314,6.55905 13.25781,9.61719 1.61545,1.09898 3.23005,2.19922 4.84375,3.30078 0.77473,0.52803 1.54945,1.05607 2.34766,1.6001 4.31034,2.94883 8.59273,5.93784 12.875,8.92724 2.25226,1.60508 2.25226,1.60508 4.37109,2.60938 0,43.23 0,86.46 0,131 36.96,0 73.92,0 112,0 0,-60.06 0,-120.12 0,-182 13.86,-7.425 13.86,-7.425 28,-15 3.3,-1.98 6.6,-3.96 10,-6 3.11426,0.39624 3.11426,0.39624 6,2 1.28354,0.56886 2.57135,1.12812 3.8623,1.67993 1.43798,0.65691 2.87444,1.31714 4.30957,1.98023 0.76363,0.34993 1.52726,0.69987 2.31403,1.06041 2.42271,1.11109 4.8434,2.22648 7.2641,3.34193 1.6418,0.75353 3.28373,1.50679 4.92578,2.25977 11.80504,5.41814 11.80504,5.41814 14.32422,6.67773 -0.0138,-1.56956 -0.0138,-1.56956 -0.0279,-3.17083 -0.22217,-25.48155 -0.38641,-50.96297 -0.49019,-76.44528 -0.0515,-12.32322 -0.12175,-24.6458 -0.23627,-36.96861 -0.0998,-10.74285 -0.16422,-21.48524 -0.18649,-32.22855 -0.013,-5.68676 -0.0435,-11.3722 -0.11642,-17.05854 -0.0681,-5.35773 -0.0888,-10.71359 -0.0738,-16.07171 -0.003,-1.96119 -0.0225,-3.92245 -0.061,-5.88326 -0.31029,-16.63139 -0.31029,-16.63139 6.02082,-23.62273 1.70895,-1.53349 3.4319,-3.05157 5.17124,-4.55049 1.3289,-1.5947 2.62731,-3.216 3.875,-4.875 3.63851,-4.63818 7.58071,-8.91489 11.60815,-13.21143 4.16493,-4.46815 8.04965,-9.10041 11.87232,-13.8667 C 697,471 697,471 698,470 c 2.7387,-0.0886 5.45275,-0.11531 8.19141,-0.0977 0.72634,10e-4 1.45269,0.002 2.20105,0.003 2.72336,0.005 5.4467,0.0192 8.17004,0.0321 6.08438,0.0206 12.16875,0.0412 18.4375,0.0625 0,-20.79 0,-41.58 0,-63 z"
     fill="#6a7092"
     id="path3" />
  <path
     d="m 735,407 c 47.52,0 95.04,0 144,0 0,53.13 0,106.26 0,161 9.9,0.495 9.9,0.495 20,1 0,-26.07 0,-52.14 0,-79 0.33,0 0.66,0 1,0 0,26.07 0,52.14 0,79 17.82,0 35.64,0 54,0 0,43.89 0,87.78 0,133 -16,5.33333 -32,10.66667 -48,16 -0.33,23.76 -0.66,47.52 -1,72 -6.27,0 -12.54,0 -19,0 0,-72.6 0,-145.2 0,-220 -9.47245,0.83469 -9.47245,0.83469 -17.17969,4.5625 -0.62005,0.35135 -1.2401,0.7027 -1.87893,1.0647 -1.9487,1.10797 -3.88267,2.23891 -5.81638,3.3728 -1.95747,1.12916 -3.91768,2.25322 -5.88065,3.3728 -1.76762,1.01098 -3.52746,2.03552 -5.28683,3.06079 C 847,587 847,587 843,588 c 0,-38.61 0,-77.22 0,-117 -47.52,0 -95.04,0 -144,0 0,143.55 0,287.1 0,435 -144.54,0 -289.08,0 -438,0 0,-116.82 0,-233.64 0,-354 -3.96,0 -7.92,0 -12,0 0,-33 0,-66 0,-100 38.94,0 77.88,0 118,0 0,95.37 0,190.74 0,289 3.3,0 6.6,0 10,0 0,-70.29 0,-140.58 0,-213 0.66,0 1.32,0 2,0 0,70.29 0,140.58 0,213 2.97,0 5.94,0 9,0 0,-66.66 0,-133.32 0,-202 0.66,0 1.32,0 2,0 0,66.66 0,133.32 0,202 2.31,0 4.62,0 7,0 0,-63.03 0,-126.06 0,-191 0.66,0 1.32,0 2,0 0,63.03 0,126.06 0,191 5.94,0 11.88,0 18,0 7.71113,4.65447 7.71113,4.65447 10.30469,6.94531 4.1913,3.54791 8.70314,6.55905 13.25781,9.61719 1.61545,1.09898 3.23005,2.19922 4.84375,3.30078 0.77473,0.52803 1.54945,1.05607 2.34766,1.6001 4.31034,2.94883 8.59273,5.93784 12.875,8.92724 2.25226,1.60508 2.25226,1.60508 4.37109,2.60938 0,43.23 0,86.46 0,131 36.96,0 73.92,0 112,0 0,-60.06 0,-120.12 0,-182 13.86,-7.425 13.86,-7.425 28,-15 3.3,-1.98 6.6,-3.96 10,-6 3.11426,0.39624 3.11426,0.39624 6,2 1.28354,0.56886 2.57135,1.12812 3.8623,1.67993 1.43798,0.65691 2.87444,1.31714 4.30957,1.98023 0.76363,0.34993 1.52726,0.69987 2.31403,1.06041 2.42271,1.11109 4.8434,2.22648 7.2641,3.34193 1.6418,0.75353 3.28373,1.50679 4.92578,2.25977 11.80504,5.41814 11.80504,5.41814 14.32422,6.67773 -0.0138,-1.56956 -0.0138,-1.56956 -0.0279,-3.17083 -0.22217,-25.48155 -0.38641,-50.96297 -0.49019,-76.44528 -0.0515,-12.32322 -0.12175,-24.6458 -0.23627,-36.96861 -0.0998,-10.74285 -0.16422,-21.48524 -0.18649,-32.22855 -0.013,-5.68676 -0.0435,-11.3722 -0.11642,-17.05854 -0.0681,-5.35773 -0.0888,-10.71359 -0.0738,-16.07171 -0.003,-1.96119 -0.0225,-3.92245 -0.061,-5.88326 -0.31029,-16.63139 -0.31029,-16.63139 6.02082,-23.62273 1.70895,-1.53349 3.4319,-3.05157 5.17124,-4.55049 1.3289,-1.5947 2.62731,-3.216 3.875,-4.875 3.63851,-4.63818 7.58071,-8.91489 11.60815,-13.21143 4.16493,-4.46815 8.04965,-9.10041 11.87232,-13.8667 C 697,471 697,471 698,470 c 2.7387,-0.0886 5.45275,-0.11531 8.19141,-0.0977 0.72634,10e-4 1.45269,0.002 2.20105,0.003 2.72336,0.005 5.4467,0.0192 8.17004,0.0321 6.08438,0.0206 12.16875,0.0412 18.4375,0.0625 0,-20.79 0,-41.58 0,-63 z"
     fill="#848cac"
     id="path5" />
  <path
     d="m 46,300 c 47.19,0 94.38,0 143,0 0,199.98 0,399.96 0,606 -33.66,0 -67.32,0 -102,0 0,-168.63 0,-337.26 0,-511 -13.53,0 -27.06,0 -41,0 0,-31.35 0,-62.7 0,-95 z"
     fill="#6f7496"
     id="path6" />
  <path
     d="m 699,471 c 47.52,0 95.04,0 144,0 0,143.55 0,287.1 0,435 -47.52,0 -95.04,0 -144,0 0,-143.55 0,-287.1 0,-435 z"
     fill="#454871"
     id="path7" />
  <path
     d="m 249,452 c 38.94,0 77.88,0 118,0 0,95.7 0,191.4 0,290 16.17,0 32.34,0 49,0 0,54.12 0,108.24 0,164 -51.15,0 -102.3,0 -155,0 0,-116.82 0,-233.64 0,-354 -3.96,0 -7.92,0 -12,0 0,-33 0,-66 0,-100 z"
     fill="#7a7e9f"
     id="path8" />
  <path
     d="m 189,552 c 23.76,0 47.52,0 72,0 0,116.82 0,233.64 0,354 -23.76,0 -47.52,0 -72,0 0,-116.82 0,-233.64 0,-354 z"
     fill="#36385e"
     id="path9" />
  <path
     d="M 828.13281,142.78906 C 839.13763,152.93076 847.43248,168.29513 850,183 c 0.14187,3.67408 0.12157,7.32573 0,11 1.51593,-0.99 1.51593,-0.99 3.0625,-2 8.07267,-4.00062 17.92379,-2.92809 26.3125,-0.375 10.56149,4.05993 16.96444,9.81125 22.4375,19.625 1.86642,4.32223 2.30612,7.78565 2.25,12.5 -0.009,0.98484 -0.0181,1.96969 -0.0273,2.98437 -0.0174,1.12149 -0.0174,1.12149 -0.0352,2.26563 0.53109,-0.27715 1.06218,-0.5543 1.60937,-0.83985 0.70641,-0.36222 1.41281,-0.72445 2.14063,-1.09765 0.69609,-0.35965 1.39218,-0.7193 2.10937,-1.08985 C 915.01976,223.62788 920.41046,223.23018 926,224 c 3.88824,1.72524 7.00225,4.00225 10,7 2.59321,0.60342 2.59321,0.60342 5.64453,0.96484 1.15307,0.16049 2.30613,0.32098 3.49414,0.48633 1.21236,0.16049 2.42473,0.32098 3.67383,0.48633 9.20325,1.23217 18.1731,2.81852 27.1875,5.0625 0,0.33 0,0.66 0,1 -177.54,0 -355.08,0 -538,0 0,-0.33 0,-0.66 0,-1 0.6036,-0.0804 1.2072,-0.16081 1.8291,-0.24366 2.80724,-0.37511 5.61412,-0.75282 8.4209,-1.13134 1.52971,-0.20581 1.52971,-0.20581 3.09033,-0.41577 4.86724,-0.66252 9.70677,-1.36012 14.53467,-2.27173 13.31789,-2.2383 26.81151,-2.96938 40.29687,-3.03907 1.80176,-0.0167 3.60352,-0.0335 5.40528,-0.0505 3.57232,-0.032 7.1407,-0.0173 10.71289,0.021 10.03026,0.29902 10.03026,0.29902 18.56933,-4.27124 C 541.91485,225.406 542.96312,224.20787 544,223 c 2.82812,-1.52344 2.82812,-1.52344 5.25,-2.375 0.80953,-0.29649 1.61906,-0.59297 2.45312,-0.89844 11.88696,-3.76016 26.11685,-3.46835 37.3125,2.08203 C 591,223 591,223 592,224 c 0.0748,-0.84563 0.14953,-1.69125 0.22656,-2.5625 1.04123,-8.9832 2.9587,-14.22578 9.76953,-20.1836 7.38884,-5.82447 13.64068,-7.10961 23.00391,-6.2539 2.54708,0.77171 4.61503,1.78214 7,3 0.99,0 1.98,0 3,0 0.76312,-0.76313 1.52625,-1.52625 2.3125,-2.3125 3.9158,-3.9158 7.43716,-5.84097 12.99219,-5.98047 1.52371,0.0197 3.0473,0.0551 4.57031,0.10547 1.17562,0.0203 1.17562,0.0203 2.375,0.041 1.91697,0.0351 3.83358,0.0889 5.75,0.14648 0.10957,-0.90105 0.21914,-1.80211 0.33203,-2.73047 1.47419,-7.21579 6.66111,-11.82447 12.55688,-15.90674 C 693.38125,159.93235 714.86088,157.34223 735.25,161 c 14.50009,3.69407 27.89609,10.63794 36.75,23 -9.40826,-15.20669 -22.26407,-21.9273 -39.26172,-26.08984 -5.08106,-1.09525 -10.11776,-1.35263 -15.30078,-1.53516 -1.36995,-0.058 -1.36995,-0.058 -2.76758,-0.11718 C 712.4468,156.1647 710.22366,156.07888 708,156 c 4.23209,-12.58312 17.60397,-21.29004 28.91797,-27.04297 31.76679,-15.45433 64.79525,-8.32945 91.21484,13.83203 z"
     fill="#888eaf"
     id="path10" />
  <path
     d="m 699,471 c 47.52,0 95.04,0 144,0 0.33,19.2225 0.66,38.445 1,58.25 0.14566,6.05118 0.29133,12.10236 0.44141,18.33691 0.0723,7.43604 0.0723,7.43604 0.0857,10.92621 0.0244,2.41829 0.0805,4.83639 0.16211,7.25342 0.63779,19.88848 0.63779,19.88848 -3.25757,25.48793 -3.70428,3.75661 -7.88377,6.3826 -12.56308,8.76737 -2.43554,1.27496 -4.56666,2.85537 -6.73575,4.53675 -1.33485,0.96115 -2.67076,1.92082 -4.00781,2.87891 -1.51954,1.09374 -3.03907,2.18749 -4.55859,3.28125 -1.52213,1.09377 -3.04427,2.18752 -4.56642,3.28125 -10.00779,7.19916 -19.97943,14.44258 -29.89429,21.76929 -5.34407,3.94478 -10.71485,7.85016 -16.10571,11.73071 -10.78017,7.76413 -21.50424,15.60737 -32.12109,23.59375 -0.61713,0.46329 -1.23426,0.92658 -1.87009,1.40391 -1.29416,0.97771 -2.58294,1.96264 -3.8634,2.95823 -3.47892,2.67586 -6.96061,5.06686 -10.783,7.22841 -9.6816,5.55775 -9.6816,5.55775 -15.00773,14.89452 -0.82892,5.47667 -0.65164,10.93001 -0.48994,16.44974 -0.005,2.10045 -0.0175,4.20089 -0.0375,6.30124 -0.0317,5.66886 0.0467,11.33134 0.14576,16.99922 0.0847,5.93496 0.067,11.86962 0.0604,17.80506 0.003,11.22406 0.0973,22.4454 0.22491,33.66866 0.14091,12.7835 0.17922,25.56667 0.20915,38.35084 0.0638,26.28335 0.2557,52.56451 0.53258,78.84642 -0.33,0 -0.66,0 -1,0 0,-143.55 0,-287.1 0,-435 z"
     fill="#4d557c"
     id="path11" />
  <path
     d="m 735,407 c 47.52,0 95.04,0 144,0 0,53.13 0,106.26 0,161 9.9,0.495 9.9,0.495 20,1 0,-26.07 0,-52.14 0,-79 0.33,0 0.66,0 1,0 0,26.07 0,52.14 0,79 17.82,0 35.64,0 54,0 0,43.89 0,87.78 0,133 -16,5.33333 -32,10.66667 -48,16 -0.33,23.76 -0.66,47.52 -1,72 -6.27,0 -12.54,0 -19,0 0,-72.6 0,-145.2 0,-220 -9.47245,0.83469 -9.47245,0.83469 -17.17969,4.5625 -0.62005,0.35135 -1.2401,0.7027 -1.87893,1.0647 -1.9487,1.10797 -3.88267,2.23891 -5.81638,3.3728 -1.95747,1.12916 -3.91768,2.25322 -5.88065,3.3728 -1.76762,1.01098 -3.52746,2.03552 -5.28683,3.06079 C 847,587 847,587 843,588 c 0,-38.94 0,-77.88 0,-118 -35.64,0 -71.28,0 -108,0 0,-20.79 0,-41.58 0,-63 z"
     fill="#aaaabe"
     id="path12" />
  <path
     d="m 262,554 c 10.49281,7.86961 20.74277,15.68718 30.36328,24.60547 3.47543,3.1562 7.10262,6.09776 10.75391,9.04687 3.16297,2.57581 6.27601,5.20469 9.38281,7.84766 4.90747,4.17135 9.86289,8.27682 14.86719,12.33203 0.86883,0.71543 1.73765,1.43086 2.63281,2.16797 0.58039,0.36689 1.16079,0.73378 1.75877,1.1118 3.01305,2.09822 4.93341,3.71433 5.88487,7.34273 0.24082,3.11166 0.25542,6.15586 0.19814,9.27652 0.006,1.18935 0.012,2.37871 0.0181,3.60411 0.01,3.29399 -0.0123,6.58506 -0.0474,9.8787 -0.0303,3.55412 -0.02,7.10815 -0.0147,10.66236 0.004,6.15521 -0.0183,12.3099 -0.0577,18.46498 -0.0569,8.89909 -0.0751,17.79793 -0.0839,26.69718 -0.0153,14.43868 -0.0619,28.87709 -0.12812,43.31562 -0.0643,14.02473 -0.1138,28.04938 -0.14355,42.07422 -0.002,0.86466 -0.004,1.72931 -0.006,2.62016 -0.009,4.33776 -0.018,8.67551 -0.0267,13.01327 C 337.27971,834.04135 337.15067,870.02053 337,906 c -24.75,0 -49.5,0 -75,0 0,-116.16 0,-232.32 0,-352 z"
     fill="#b3b3c5"
     id="path13" />
  <path
     d="m 1024,454 c 0,81.84 0,163.68 0,248 -62,0 -62,0 -70,-1 0,-43.56 0,-87.12 0,-132 -17.82,0 -35.64,0 -54,0 -0.56152,-19.60429 -0.56152,-19.60429 -0.68359,-27.99805 -0.0835,-5.7163 -0.18202,-11.42944 -0.37256,-17.14331 -0.15277,-4.61041 -0.23595,-9.21744 -0.27213,-13.83018 -0.0258,-1.75428 -0.0761,-3.50839 -0.15194,-5.26122 -0.55571,-13.37882 -0.55571,-13.37882 2.80188,-17.31773 3.83155,-3.1923 8.24331,-5.22845 12.67834,-7.44951 2.24658,-1.66137 2.24658,-1.66137 4.04272,-3.40845 C 951.62841,445.02184 973.74614,454 1024,454 Z"
     fill="#6c7293"
     id="path14" />
  <path
     d="m 46,300 c 46.86,0 93.72,0 142,0 0,53.79 0,107.58 0,163 -5.87095,-3.26164 -11.20001,-6.40211 -16.5625,-10.3125 -7.10338,-5.10082 -14.33271,-9.98616 -21.625,-14.8125 -7.61436,-5.04584 -15.14059,-10.16716 -22.53906,-15.52344 -5.65071,-4.08356 -11.42998,-7.98526 -17.18409,-11.9209 -4.32226,-2.95962 -8.63514,-5.93294 -12.95019,-8.90307 C 94.436446,399.66874 91.72938,397.81959 89,396 c -0.33,167.97 -0.66,335.94 -1,509 5.94,0 11.88,0 18,0 0,-160.38 0,-320.76 0,-486 0.33,0 0.66,0 1,0 0,160.38 0,320.76 0,486 4.95,0 9.9,0 15,0 -0.33,-0.66 -0.66,-1.32 -1,-2 -0.0953,-2.38043 -0.13018,-4.7314 -0.12025,-7.11197 -8.6e-4,-0.74083 -0.002,-1.48166 -0.003,-2.24494 -0.002,-2.49515 0.004,-4.99023 0.009,-7.48538 2.9e-4,-1.78352 1.3e-4,-3.56704 -4.4e-4,-5.35057 -2.9e-4,-4.85304 0.006,-9.70606 0.0126,-14.55909 0.006,-5.06758 0.007,-10.13515 0.008,-15.20273 0.003,-9.60121 0.0113,-19.20241 0.0213,-28.80361 0.0112,-10.92849 0.0167,-21.85699 0.0217,-32.78549 0.0105,-22.48541 0.0281,-44.97081 0.0504,-67.45622 0.66,0 1.32,0 2,0 0,60.39 0,120.78 0,183 4.29,0 8.58,0 13,0 0,-152.79 0,-305.58 0,-463 0.66,0 1.32,0 2,0 0,152.79 0,305.58 0,463 4.62,0 9.24,0 14,0 0,-148.17 0,-296.34 0,-449 0.33,0 0.66,0 1,0 0,148.17 0,296.34 0,449 4.62,0 9.24,0 14,0 0,-144.87 0,-289.74 0,-439 0.33,0 0.66,0 1,0 1.32757,204.59722 1.32757,204.59722 0,439 6.93,0 13.86,0 21,0 0,0.33 0,0.66 0,1 -33.66,0 -67.32,0 -102,0 0,-168.63 0,-337.26 0,-511 -13.53,0 -27.06,0 -41,0 0,-31.35 0,-62.7 0,-95 z"
     fill="#5c6288"
     id="path15" />
  <path
     d="m 377,528 c 0.66,0 1.32,0 2,0 0,70.29 0,140.58 0,213 2.97,0 5.94,0 9,0 0,-66.66 0,-133.32 0,-202 0.66,0 1.32,0 2,0 0,66.66 0,133.32 0,202 2.31,0 4.62,0 7,0 0,-63.03 0,-126.06 0,-191 0.66,0 1.32,0 2,0 0,63.03 0,126.06 0,191 5.94,0 11.88,0 18,0 7.71113,4.65447 7.71113,4.65447 10.30469,6.94531 4.1913,3.54791 8.70314,6.55905 13.25781,9.61719 1.61545,1.09898 3.23005,2.19922 4.84375,3.30078 0.77473,0.52803 1.54945,1.05607 2.34766,1.6001 4.31034,2.94883 8.59273,5.93784 12.875,8.92724 2.25225,1.60508 2.25225,1.60508 4.37109,2.60938 0,43.23 0,86.46 0,131 36.96,0 73.92,0 112,0 0,-60.06 0,-120.12 0,-182 9.24,-4.95 18.48,-9.9 28,-15 3.3,-1.98 6.6,-3.96 10,-6 0.66,0.33 1.32,0.66 2,1 -0.33,66.99 -0.66,133.98 -1,203 -66,0 -132,0 -200,0 0,-54.12 0,-108.24 0,-164 -16.17,0 -32.34,0 -49,0 0,-0.33 0,-0.66 0,-1 3.3,0 6.6,0 10,0 0,-70.29 0,-140.58 0,-213 z"
     fill="#c1bdd3"
     id="path16" />
  <path
     d="m 189,301 c 5.3545,4.01588 9.94046,7.69851 14.5,12.4375 4.02196,4.09972 8.06789,8.06111 12.44141,11.78906 7.75123,6.67753 15.15551,13.78037 22.62109,20.77344 0.69094,0.64711 1.38187,1.29422 2.09375,1.96094 0.97646,0.91652 0.97646,0.91652 1.97266,1.85156 0.86733,0.81404 0.86733,0.81404 1.75219,1.64453 0.53424,0.50918 1.06847,1.01836 1.6189,1.54297 0.5547,0.45077 1.1094,0.90154 1.68091,1.36597 1.87588,2.32376 1.73514,3.99791 1.79565,6.96606 0.0305,1.16209 0.0609,2.32418 0.0923,3.52149 0.0278,1.95969 0.0278,1.95969 0.0562,3.95898 0.0294,1.3913 0.0599,2.78257 0.0913,4.17383 0.0706,3.29692 0.1294,6.59386 0.18213,9.89111 0.0847,5.26012 0.18608,10.51981 0.29045,15.77956 0.13982,7.06653 0.26999,14.13322 0.39716,21.19999 0.0391,2.14914 0.0794,4.29825 0.11982,6.44736 0.0759,4.06512 0.14255,8.13035 0.20819,12.19565 0.0358,1.86969 0.0358,1.86969 0.0723,3.77715 0.0169,1.13572 0.0338,2.27145 0.0513,3.4416 0.017,0.99967 0.0339,1.99934 0.0514,3.0293 C 251,451 251,451 250,452 c -0.12541,3.10436 -0.18613,6.18752 -0.20532,9.29321 -0.01,0.97551 -0.0198,1.95101 -0.03,2.95607 -0.0317,3.2411 -0.0564,6.48222 -0.0811,9.72338 -0.0206,2.2406 -0.0416,4.48119 -0.063,6.72178 -0.0553,5.91011 -0.10468,11.82026 -0.15285,17.73043 -0.059,7.08433 -0.12524,14.16859 -0.1903,21.25287 -0.0981,10.77405 -0.1869,21.54814 -0.27747,32.32226 -19.8,0 -39.6,0 -60,0 0,-82.83 0,-165.66 0,-251 z"
     fill="#faecf4"
     id="path17" />
  <path
     d="m 899,490 c 0.33,0 0.66,0 1,0 0,26.07 0,52.14 0,79 17.82,0 35.64,0 54,0 0,43.89 0,87.78 0,133 -16,5.33333 -32,10.66667 -48,16 -0.33,23.76 -0.66,47.52 -1,72 -6.27,0 -12.54,0 -19,0 0,-72.6 0,-145.2 0,-220 -2.97,0 -5.94,0 -9,0 0,-0.33 0,-0.66 0,-1 7.26,0 14.52,0 22,0 0,-26.07 0,-52.14 0,-79 z"
     fill="#999bb4"
     id="path18" />
  <path
     d="m 575.70908,159.92797 c 9.42583,0.008 18.85166,0.0134 28.2775,0.0171 0.67239,2.6e-4 1.34478,5.2e-4 2.03755,7.9e-4 3.37619,10e-4 6.75238,0.003 10.12857,0.004 27.61577,0.0102 55.23154,0.0278 82.8473,0.0503 0.33,0.66 0.66,1.32 1,2 -0.95519,0.27972 -1.91039,0.55945 -2.89453,0.84765 -11.30339,3.45146 -24.4733,8.54304 -30.85547,19.15235 -0.40734,0.66 -0.81468,1.32 -1.23437,2 -1.01397,1.99673 -1.56652,3.81303 -2.01563,6 -1.12277,0.0142 -2.24554,0.0284 -3.40234,0.043 C 647.45561,190.26589 647.45561,190.26589 637,196 c -0.66,0.99 -1.32,1.98 -2,3 -2.60682,-0.44689 -4.88883,-0.95153 -7.32031,-2.01172 -6.53905,-2.41164 -13.69701,-1.8471 -19.99219,1.01172 -5.8669,3.33497 -10.14938,7.78394 -13.0625,13.875 -0.87001,4.35009 -1.293,8.70424 -1.625,13.125 -0.75925,-0.34934 -1.51851,-0.69868 -2.30078,-1.0586 -0.99386,-0.45504 -1.98773,-0.91008 -3.01172,-1.3789 -1.4792,-0.67869 -1.4792,-0.67869 -2.98828,-1.3711 -4.15214,-1.83271 -7.16779,-2.31107 -11.67968,-2.28906 -1.74507,0.005 -1.74507,0.005 -3.5254,0.01 -1.82241,0.0126 -1.82241,0.0126 -3.68164,0.0254 -1.83981,0.007 -1.83981,0.007 -3.71679,0.0137 -3.03195,0.0118 -6.06381,0.0283 -9.09571,0.0488 -0.33,-0.99 -0.66,-1.98 -1,-3 -1.6521,-0.009 -1.6521,-0.009 -3.33758,-0.0178 -15.80422,-0.0857 -31.60833,-0.18708 -47.41242,-0.29472 -0.68418,-0.005 -1.36837,-0.009 -2.07329,-0.0141 -72.43385,-0.49328 -144.86398,-1.36224 -217.29437,-2.20952 -2.26388,-0.0265 -4.52776,-0.053 -6.79164,-0.0794 -39.03029,-0.45645 -78.06052,-0.91798 -117.0907,-1.38448 0,-0.33 0,-0.66 0,-1 29.23509,-1.09322 58.48465,-1.43805 87.73547,-1.84595 7.39362,-0.10323 14.78719,-0.20969 22.18076,-0.31629 13.25666,-0.19108 26.51334,-0.37994 39.77005,-0.56725 12.70249,-0.17949 25.40497,-0.35965 38.10743,-0.54102 0.77883,-0.0111 1.55765,-0.0222 2.36009,-0.0337 8.58619,-0.12261 17.17239,-0.24545 25.75858,-0.36848 0.76495,-0.011 1.5299,-0.0219 2.31803,-0.0332 4.60077,-0.0659 4.60077,-0.0659 9.20154,-0.13186 8.10133,-0.11613 16.20267,-0.23189 24.30403,-0.34629 17.42191,-0.24605 34.84373,-0.49714 52.26545,-0.75666 3.41281,-0.0506 6.82563,-0.10062 10.23845,-0.15036 6.92116,-0.10094 13.84227,-0.20463 20.76332,-0.31302 3.23928,-0.0507 6.47856,-0.1 9.7179,-0.1468 16.83373,-0.24474 33.58395,-0.72292 50.36045,-2.19521 5.30265,-0.46133 10.61108,-0.8512 15.91845,-1.2539 0,-0.66 0,-1.32 0,-2 -1.8977,0.008 -1.8977,0.008 -3.83374,0.0159 -25.12813,0.0937 -50.24294,0.0263 -75.36769,-0.40683 -7.0682,-0.12102 -14.13654,-0.23302 -21.20491,-0.3439 -1.09338,-0.0172 -1.09338,-0.0172 -2.20884,-0.0348 -16.15093,-0.25278 -32.30236,-0.43842 -48.4544,-0.60344 -1.0372,-0.0106 -1.0372,-0.0106 -2.09535,-0.0215 -8.61977,-0.0881 -17.23956,-0.17353 -25.85936,-0.2579 -7.74087,-0.0759 -15.48172,-0.15405 -23.22257,-0.23233 -13.88832,-0.14041 -27.77665,-0.2795 -41.665,-0.41751 -1.22934,-0.0122 -1.22934,-0.0122 -2.48351,-0.0247 -3.3169,-0.033 -6.63381,-0.0659 -9.95071,-0.0989 -27.6884,-0.2751 -55.37678,-0.55218 -83.06513,-0.83166 -2.35462,-0.0238 -4.70923,-0.0475 -7.06384,-0.0712 C 175.68215,196.19943 128.8402,195.68898 82,195.00002 c 0,-0.33 0,-0.66 0,-1 16.15549,-0.98336 32.30675,-1.27868 48.4877,-1.48677 2.24104,-0.0291 4.48205,-0.0596 6.72307,-0.0904 10.72369,-0.14748 21.4475,-0.28453 32.17138,-0.41757 2.62629,-0.0327 5.25258,-0.0659 7.87887,-0.0991 56.68326,-0.71727 113.36397,-1.13263 170.05148,-1.28506 1.32535,-0.004 1.32535,-0.004 2.67747,-0.007 23.16289,-0.0624 46.3258,-0.10968 69.48873,-0.15159 11.94721,-0.0216 23.89441,-0.0449 35.84162,-0.0694 0.9235,-0.002 1.84701,-0.004 2.7985,-0.006 15.41057,-0.0318 30.82114,-0.0674 46.2317,-0.10529 9.34235,-0.0227 18.68469,-0.0418 28.02706,-0.0557 6.30462,-0.01 12.60924,-0.0224 18.91385,-0.0378 3.61199,-0.009 7.22397,-0.0158 10.83597,-0.0186 22.93684,1.48009 22.93684,1.48009 44.8726,-3.16967 0.33,-0.66 0.66,-1.32 1,-2 -0.56963,-0.0145 -1.13926,-0.0291 -1.72616,-0.0441 -13.98704,-0.35713 -27.97402,-0.71628 -41.96095,-1.07758 -6.76451,-0.17469 -13.52903,-0.34874 -20.2936,-0.52118 -6.54885,-0.16701 -13.09765,-0.33581 -19.64642,-0.50575 -2.47735,-0.064 -4.95471,-0.12738 -7.43208,-0.19011 -10.97533,-0.27823 -21.94695,-0.55703 -32.91483,-1.05433 -16.54941,-0.74282 -33.09513,-0.82713 -49.65788,-0.91031 -4.24934,-0.0223 -8.49864,-0.0494 -12.74794,-0.0761 -8.00316,-0.0494 -16.00634,-0.0945 -24.00953,-0.13802 -9.12981,-0.0498 -18.25959,-0.10458 -27.38937,-0.15968 -18.74038,-0.113 -37.4808,-0.22001 -56.22124,-0.32292 0,-0.33 0,-0.66 0,-1 24.91788,-0.56926 49.83416,-1.0607 74.75782,-1.28125 1.07668,-0.01 2.15337,-0.0191 3.26268,-0.0289 7.70147,-0.0672 15.40298,-0.1289 23.1045,-0.18982 8.75264,-0.0698 17.50524,-0.1424 26.25782,-0.21875 1.10486,-0.01 2.20972,-0.019 3.34806,-0.0288 16.92286,-0.14827 33.8424,-0.40223 50.76329,-0.69617 23.25819,-0.40293 46.51063,-0.64638 69.77218,-0.72426 3.71148,-0.013 7.42296,-0.0286 11.13444,-0.0441 2.96016,-0.0121 5.92031,-0.0241 8.88046,-0.036 0.7312,-0.003 1.4624,-0.006 2.21575,-0.009 8.30276,-0.0333 16.60545,-0.0588 24.90828,-0.0689 6.78912,-0.008 13.57804,-0.0307 20.36706,-0.0694 3.54114,-0.0196 7.08198,-0.0322 10.62318,-0.0272 3.88155,0.005 7.76257,-0.0197 11.64403,-0.0475 1.1454,0.007 2.2908,0.0132 3.47091,0.02 6.14123,-0.0395 6.14123,-0.0395 11.67457,-2.45816 1.85278,-1.96052 1.85278,-1.96052 2.81497,-4.09188 -0.76579,0.005 -1.53158,0.009 -2.32058,0.0139 -15.93803,0.0812 -31.8627,0.003 -47.7966,-0.38107 -0.79969,-0.0193 -1.59938,-0.0385 -2.42331,-0.0582 -4.28359,-0.10336 -8.56713,-0.20898 -12.85065,-0.3152 -50.18443,-1.23815 -100.37591,-1.89069 -150.57067,-2.53229 -6.04609,-0.0774 -12.09218,-0.15532 -18.13826,-0.23365 -1.47323,-0.0191 -2.94646,-0.0381 -4.41969,-0.0571 C 406.98419,165.08127 379.49204,164.59336 352,164 c 0,-0.33 0,-0.66 0,-1 14.9206,-2.37537 30.51345,-1.63187 45.59544,-1.93156 3.2539,-0.0654 6.50775,-0.13328 9.76159,-0.20159 56.11229,-1.15735 112.23066,-0.98723 168.35205,-0.93888 z"
     fill="#fceedb"
     id="path19" />
  <path
     d="m 367,452 c 6.45768,6.45768 12.53426,13.12634 18.25,20.25 4.27163,5.3035 8.86705,10.25021 13.58496,15.15527 C 403,491.78887 403,491.78887 403,494 c 0.66,0 1.32,0 2,0 0.33,81.51 0.66,163.02 1,247 -2.31,0 -4.62,0 -7,0 0,-63.03 0,-126.06 0,-191 -0.66,0 -1.32,0 -2,0 0,63.03 0,126.06 0,191 -2.31,0 -4.62,0 -7,0 0,-66.66 0,-133.32 0,-202 -0.66,0 -1.32,0 -2,0 0,66.66 0,133.32 0,202 -2.97,0 -5.94,0 -9,0 0,-70.29 0,-140.58 0,-213 -0.66,0 -1.32,0 -2,0 0,70.29 0,140.58 0,213 -3.3,0 -6.6,0 -10,0 0,-95.37 0,-190.74 0,-289 z"
     fill="#fde3fd"
     id="path20" />
  <path
     d="m 616,703 c 3.48429,0.69686 5.69401,1.15682 8.74878,2.56641 1.04084,0.47554 1.04084,0.47554 2.10271,0.96069 0.7335,0.34168 1.467,0.68336 2.22273,1.0354 1.14756,0.52703 1.14756,0.52703 2.31831,1.0647 2.43399,1.11928 4.86447,2.24596 7.29497,3.3728 1.64626,0.75829 3.29274,1.51611 4.93945,2.27344 11.62642,5.35324 11.62642,5.35324 14.37305,6.72656 0,61.05 0,122.1 0,185 -13.86,0 -27.72,0 -42,0 0,-66.99 0,-133.98 0,-203 z"
     fill="#727797"
     id="path21" />
  <path
     d="m 615,702 c 0.99,0.495 0.99,0.495 2,1 -0.33,66.99 -0.66,133.98 -1,203 -66,0 -132,0 -200,0 0,-0.33 0,-0.66 0,-1 53.13,0 106.26,0 161,0 0,-60.06 0,-120.12 0,-182 13.86,-7.425 13.86,-7.425 28,-15 3.3,-1.98 6.6,-3.96 10,-6 z"
     fill="#a1a2b9"
     id="path22" />
  <path
     d="m 1024,454 c 0,0.33 0,0.66 0,1 -23.1,0 -46.2,0 -70,0 0,37.62 0,75.24 0,114 -17.82,0 -35.64,0 -54,0 -0.56152,-19.60429 -0.56152,-19.60429 -0.68359,-27.99805 -0.0835,-5.7163 -0.18202,-11.42944 -0.37256,-17.14331 -0.15277,-4.61041 -0.23595,-9.21744 -0.27213,-13.83018 -0.0258,-1.75428 -0.0761,-3.50839 -0.15194,-5.26122 -0.55571,-13.37882 -0.55571,-13.37882 2.80188,-17.31773 3.83155,-3.1923 8.24331,-5.22845 12.67834,-7.44951 2.24658,-1.66137 2.24658,-1.66137 4.04272,-3.40845 0.82988,-0.77959 0.82988,-0.77959 1.67652,-1.57493 0.55542,-0.5224 1.11085,-1.0448 1.6831,-1.58303 C 951.76156,447.1596 986.25285,451.2856 1024,454 Z"
     fill="#7f84a4"
     id="path23" />
  <path
     d="m 315,599 c 4.94612,2.47306 9.3369,4.77804 13,9 1.28622,4.04432 1.17966,7.90061 1.08229,12.11705 0.008,1.2188 0.0154,2.43759 0.0233,3.69332 0.0122,3.37222 -0.0158,6.73971 -0.061,10.11136 -0.0389,3.6393 -0.0257,7.27847 -0.0189,10.91793 0.005,6.30156 -0.0235,12.60229 -0.0741,18.90364 -0.0732,9.11049 -0.0966,18.22058 -0.10789,27.33134 -0.0197,14.78207 -0.0795,29.5637 -0.16473,44.34553 -0.0826,14.3574 -0.14633,28.71467 -0.18456,43.07226 -0.002,0.8853 -0.005,1.7706 -0.007,2.68272 -0.0118,4.44138 -0.0231,8.88275 -0.0343,13.32413 C 328.35964,831.33317 328.20048,868.16654 328,905 c -4.29,0 -8.58,0 -13,0 0,-100.98 0,-201.96 0,-306 z"
     fill="#b3b4c5"
     id="path24" />
  <path
     d="m 879,407 c 3.02923,4.03898 5.9636,8.13782 8.88867,12.25195 0.61779,0.86722 0.61779,0.86722 1.24805,1.75196 0.65247,0.96341 0.65247,0.96341 1.31811,1.94628 1.52108,2.13654 1.52108,2.13654 3.62354,4.01368 9.2716,9.77352 7.06291,23.57339 6.98413,36.16113 0.0167,2.49482 0.0368,4.98961 0.0606,7.48437 0.029,4.52898 0.0509,9.0574 0.0256,13.58643 -0.004,0.90614 -0.008,1.81228 -0.0126,2.74588 C 901,489 901,489 900,490 c -0.12495,2.46349 -0.18602,4.90037 -0.20532,7.36548 -0.0149,1.15602 -0.0149,1.15602 -0.03,2.33539 -0.0317,2.55931 -0.0564,5.11865 -0.0811,7.67804 -0.0206,1.76977 -0.0416,3.53954 -0.063,5.30931 -0.0553,4.66724 -0.10468,9.33452 -0.15285,14.00184 -0.0502,4.75896 -0.10587,9.51784 -0.16113,14.27674 -0.10768,9.34434 -0.20859,18.68875 -0.30664,28.0332 -6.93,0 -13.86,0 -21,0 0.33,-53.46 0.66,-106.92 1,-162 z"
     fill="#fdfcfc"
     id="path25" />
  <path
     d="m 282,570 c 3,3 3,3 3.36618,5.50139 -0.004,1.0074 -0.008,2.0148 -0.0127,3.05272 0.004,1.74369 0.004,1.74369 0.008,3.52261 -0.0126,1.28305 -0.0253,2.56611 -0.0383,3.88805 -0.003,1.37202 -0.004,2.74404 -0.005,4.11607 -0.005,3.77868 -0.0281,7.55705 -0.0545,11.33563 -0.0252,4.07153 -0.0331,8.14309 -0.0431,12.21468 -0.0197,7.05709 -0.0504,14.11407 -0.0886,21.17109 -0.0552,10.20331 -0.0937,20.40664 -0.12827,30.61005 -0.0564,16.5533 -0.12634,33.10652 -0.20465,49.65973 -0.076,16.08233 -0.14579,32.16467 -0.20703,48.24707 -0.006,1.48634 -0.006,1.48634 -0.0114,3.00271 -0.0189,4.9709 -0.0377,9.9418 -0.0564,14.9127 C 284.36874,822.48976 284.19125,863.7449 284,905 c 4.62,0 9.24,0 14,0 0,-105.93 0,-211.86 0,-321 0.66,0.33 1.32,0.66 2,1 0,105.6 0,211.2 0,320 4.29,0 8.58,0 13,0 0,-101.64 0,-203.28 0,-308 0.99,0.66 1.98,1.32 3,2 0.36618,2.21048 0.36618,2.21048 0.35353,5.02501 0.002,1.0699 0.005,2.1398 0.008,3.24213 -0.0126,1.1848 -0.0253,2.36961 -0.0383,3.59031 -0.002,1.25128 -0.003,2.50255 -0.005,3.79175 -0.005,3.48451 -0.0281,6.96868 -0.0545,10.45309 -0.0252,3.7532 -0.0331,7.50644 -0.0431,11.25971 -0.0197,6.50654 -0.0504,13.01295 -0.0886,19.51941 -0.0551,9.40732 -0.0937,18.81464 -0.12827,28.22205 -0.0565,15.26164 -0.12636,30.52318 -0.20466,45.78472 -0.076,14.8281 -0.14578,29.65621 -0.20703,44.48438 -0.006,1.37024 -0.006,1.37024 -0.0114,2.76817 -0.0189,4.58258 -0.0377,9.16516 -0.0564,13.74775 C 315.36872,828.92575 315.19123,866.96289 315,905 c 4.29,0 8.58,0 13,0 0,-97.68 0,-195.36 0,-296 0.33,0 0.66,0 1,0 0,97.68 0,195.36 0,296 2.64,0 5.28,0 8,0 0,0.33 0,0.66 0,1 -24.75,0 -49.5,0 -75,0 0,-0.33 0,-0.66 0,-1 6.6,0 13.2,0 20,0 0,-110.55 0,-221.1 0,-335 z"
     fill="#9ca1b6"
     id="path26" />
  <path
     d="m 703.86552,469.63924 c 1.83626,-0.006 1.83626,-0.006 3.70963,-0.0125 1.35866,0.0106 2.71731,0.0215 4.07597,0.0327 1.42899,8.4e-4 2.85799,3.7e-4 4.28699,-0.001 3.88204,-8.6e-4 7.76381,0.0168 11.64579,0.0377 4.0559,0.0187 8.11182,0.0205 12.16776,0.0241 7.68168,0.009 15.36324,0.034 23.04487,0.0641 8.74474,0.0335 17.4895,0.05 26.23429,0.0651 17.9898,0.0314 35.97948,0.0841 53.96918,0.15097 0,0.33 0,0.66 0,1 -47.52,0 -95.04,0 -144,0 0,71.28 0,142.56 0,216 -0.33,-0.66 -0.66,-1.32 -1,-2 -0.66,0 -1.32,0 -2,0 0,72.6 0,145.2 0,220 -0.99,0 -1.98,0 -3,0 -0.0457,-54.31216 -0.081,-108.62432 -0.10214,-162.9365 -0.003,-6.40764 -0.005,-12.81528 -0.008,-19.22292 -5.2e-4,-1.27568 -10e-4,-2.55136 -0.002,-3.8657 -0.009,-20.67335 -0.0245,-41.34668 -0.0428,-62.02002 -0.0187,-21.20245 -0.0298,-42.40489 -0.0339,-63.60734 -0.003,-13.08991 -0.0114,-26.17979 -0.0277,-39.26969 -0.0105,-8.96827 -0.0138,-17.93654 -0.0112,-26.90482 0.001,-5.17925 -7.2e-4,-10.35844 -0.0114,-15.53768 -0.01,-4.73799 -0.0102,-9.47589 -0.003,-14.21388 8.5e-4,-1.71744 -0.002,-3.43489 -0.008,-5.15232 -0.008,-2.32854 -0.004,-4.65674 0.004,-6.98527 -7.5e-4,-1.29523 -0.002,-2.59045 -0.002,-3.92493 0.29612,-4.00433 1.20387,-6.8732 3.5068,-10.14888 2.54987,-1.77163 4.52129,-1.57881 7.60712,-1.57081 z"
     fill="#9096b2"
     id="path27" />
  <path
     d="m 663,512 c 0,129.69 0,259.38 0,393 3.3,0 6.6,0 10,0 0,0.33 0,0.66 0,1 -4.95,0 -9.9,0 -15,0 -0.0912,-49.61559 -0.162,-99.23117 -0.20426,-148.84682 -0.005,-5.85315 -0.0102,-11.70629 -0.0155,-17.55943 -0.001,-1.16529 -0.002,-2.33058 -0.003,-3.53118 -0.0174,-18.88605 -0.049,-37.77205 -0.0857,-56.65807 -0.0374,-19.36843 -0.0596,-38.73683 -0.0677,-58.10529 -0.005,-11.95832 -0.0229,-23.91649 -0.0553,-35.87477 -0.0211,-8.19223 -0.0275,-16.38439 -0.0223,-24.57665 0.003,-4.73162 -10e-4,-9.46299 -0.0228,-14.19456 -0.0194,-4.32786 -0.0205,-8.65531 -0.007,-12.98319 0.002,-1.56939 -0.003,-3.13879 -0.0159,-4.70813 -0.016,-2.12681 -0.007,-4.25215 0.007,-6.37894 -0.002,-1.18321 -0.003,-2.36642 -0.005,-3.58548 C 657.97162,516.17121 659.43731,512 663,512 Z"
     fill="#8289aa"
     id="path28" />
  <path
     d="m 684,486 c 0.66,0 1.32,0 2,0 0,138.27 0,276.54 0,419 -0.99,0 -1.98,0 -3,0 -0.17315,-53.08926 -0.33582,-106.17854 -0.48431,-159.26788 -0.0175,-6.26129 -0.0351,-12.52258 -0.0528,-18.78388 -0.004,-1.24656 -0.007,-2.49312 -0.0107,-3.77746 -0.0572,-20.20979 -0.12148,-40.41956 -0.18835,-60.62933 -0.0684,-20.72216 -0.12927,-41.44433 -0.18303,-62.16653 -0.0335,-12.79666 -0.0729,-25.59327 -0.11979,-38.38989 -0.0316,-8.76359 -0.0558,-17.52719 -0.0742,-26.29083 -0.0109,-5.06345 -0.025,-10.12683 -0.0479,-15.19024 -0.0208,-4.62864 -0.0325,-9.25721 -0.0367,-13.88589 -0.003,-1.68106 -0.01,-3.36211 -0.0201,-5.04314 -0.0134,-2.27223 -0.0147,-4.54413 -0.0127,-6.81639 -0.004,-1.26599 -0.008,-2.53198 -0.0115,-3.83633 C 682,488 682,488 684,486 Z"
     fill="#99a1bb"
     id="path29" />
  <path
     d="m 675,496 c 0.33,0 0.66,0 1,0 0,134.97 0,269.94 0,409 -0.99,0 -1.98,0 -3,0 -0.0457,-51.81535 -0.081,-103.63069 -0.10213,-155.44605 -0.003,-6.11108 -0.005,-12.22217 -0.008,-18.33325 -5.3e-4,-1.21665 -10e-4,-2.43331 -0.002,-3.68683 -0.009,-19.7248 -0.0245,-39.44958 -0.0429,-59.17437 -0.0187,-20.22497 -0.0298,-40.44993 -0.0339,-60.67491 -0.003,-12.48955 -0.0115,-24.97906 -0.0277,-37.4686 -0.0105,-8.55337 -0.0138,-17.10672 -0.0112,-25.66009 0.001,-4.94192 -7.5e-4,-9.88379 -0.0114,-14.8257 -0.01,-4.51763 -0.0103,-9.03517 -0.003,-13.55281 8.5e-4,-1.64067 -0.002,-3.28135 -0.008,-4.92201 -0.008,-2.21779 -0.004,-4.43523 0.004,-6.65301 -7.6e-4,-1.23561 -0.002,-2.47122 -0.002,-3.74428 C 673,498 673,498 675,496 Z"
     fill="#999fbb"
     id="path30" />
  <path
     d="m 665,508 c 0.33,0 0.66,0 1,0 0,131.01 0,262.02 0,397 -0.99,0 -1.98,0 -3,0 -0.0457,-50.28662 -0.081,-100.57323 -0.10213,-150.85987 -0.003,-5.93082 -0.005,-11.86165 -0.008,-17.79247 -5.3e-4,-1.18077 -10e-4,-2.36154 -0.002,-3.57809 -0.009,-19.14281 -0.0245,-38.2856 -0.0429,-57.4284 -0.0187,-19.62832 -0.0298,-39.25664 -0.0339,-58.88498 -0.003,-12.12103 -0.0115,-24.24203 -0.0277,-36.36306 -0.0105,-8.30107 -0.0138,-16.60212 -0.0112,-24.9032 0.001,-4.7961 -7.5e-4,-9.59214 -0.0114,-14.38823 -0.01,-4.38441 -0.0103,-8.76871 -0.003,-13.15312 8.5e-4,-1.59222 -0.002,-3.18445 -0.008,-4.77666 -0.008,-2.15244 -0.004,-4.30452 0.004,-6.45696 -7.6e-4,-1.19916 -0.002,-2.39832 -0.002,-3.63381 C 663,510 663,510 665,508 Z"
     fill="#969bb7"
     id="path31" />
  <path
     d="m 44,382 h 1 v 12 H 0 v -6 h 44 z"
     fill="#f7e6d9"
     id="path32"
     sodipodi:nodetypes="ccccccc" />
  <path
     d="m 750,163 c 10.23715,5.14227 17.09802,11.14102 23,21 -0.33,0.66 -0.66,1.32 -1,2 -0.4125,-0.58008 -0.825,-1.16016 -1.25,-1.75781 C 764.67768,176.02829 758.20607,171.27425 749,167 c 0.33,-1.32 0.66,-2.64 1,-4 z"
     fill="#c9c4ca"
     id="path33" />
  <path
     d="m 456,236 c -0.99,1.485 -0.99,1.485 -2,3 -2.78853,0.22108 -5.34653,0.28108 -8.125,0.1875 -0.7541,-0.0135 -1.5082,-0.0271 -2.28516,-0.041 -1.86358,-0.0354 -3.7268,-0.0892 -5.58984,-0.14648 0,-0.33 0,-0.66 0,-1 1.87387,-0.3396 3.74917,-0.67139 5.625,-1 1.04414,-0.18563 2.08828,-0.37125 3.16406,-0.5625 3.11669,-0.42466 6.07025,-0.51295 9.21094,-0.4375 z"
     fill="#979ab7"
     id="path34" />
</svg>
