<?xml version="1.0" encoding="UTF-8"?>
<svg version="1.1" xmlns="http://www.w3.org/2000/svg" width="1024" height="1024">
<path d="M0 0 C337.92 0 675.84 0 1024 0 C1024 337.92 1024 675.84 1024 1024 C686.08 1024 348.16 1024 0 1024 C0 686.08 0 348.16 0 0 Z " fill="#DCD8D7" transform="translate(0,0)"/>
<path d="M0 0 C47.19 0 94.38 0 143 0 C143 83.16 143 166.32 143 252 C162.8 252 182.6 252 203 252 C203 219 203 186 203 152 C241.94 152 280.88 152 321 152 C321 247.37 321 342.74 321 441 C324.3 441 327.6 441 331 441 C331 370.71 331 300.42 331 228 C331.66 228 332.32 228 333 228 C333 298.29 333 368.58 333 441 C335.97 441 338.94 441 342 441 C342 374.34 342 307.68 342 239 C342.66 239 343.32 239 344 239 C344 305.66 344 372.32 344 441 C346.31 441 348.62 441 351 441 C351 377.97 351 314.94 351 250 C351.66 250 352.32 250 353 250 C353 313.03 353 376.06 353 441 C358.94 441 364.88 441 371 441 C378.71113315 445.65446776 378.71113315 445.65446776 381.3046875 447.9453125 C385.49599113 451.49322441 390.00782817 454.5043632 394.5625 457.5625 C396.1779547 458.66148063 397.79255335 459.76172079 399.40625 460.86328125 C400.18097656 461.39131348 400.95570313 461.9193457 401.75390625 462.46337891 C406.06424526 465.41221301 410.34664489 468.40122471 414.62890625 471.390625 C416.88116503 472.99570064 416.88116503 472.99570064 419 474 C419 517.23 419 560.46 419 605 C455.96 605 492.92 605 531 605 C531 544.94 531 484.88 531 423 C544.86 415.575 544.86 415.575 559 408 C562.3 406.02 565.6 404.04 569 402 C572.11425781 402.39624023 572.11425781 402.39624023 575 404 C576.28353632 404.56885639 577.57134814 405.12812163 578.86230469 405.67993164 C580.3002811 406.33683518 581.73673942 406.99706932 583.171875 407.66015625 C583.93550354 408.0100914 584.69913208 408.36002655 585.48590088 408.7205658 C587.90860507 409.83165641 590.32929987 410.94705102 592.75 412.0625 C594.39180051 412.81603105 596.03372636 413.56928907 597.67578125 414.32226562 C609.48082381 419.7404119 609.48082381 419.7404119 612 421 C611.99078207 419.9536246 611.98156414 418.9072492 611.97206688 417.82916546 C611.74989575 392.34762024 611.58566024 366.8662009 611.48187828 341.38389111 C611.43035351 329.06067125 611.36012989 316.7380919 611.24560547 304.4152832 C611.14581239 293.67242746 611.08138932 282.93003564 611.05911505 272.18672925 C611.04609786 266.49996674 611.01559192 260.81453122 610.94269943 255.12819481 C610.87457885 249.77046491 610.853932 244.41460225 610.86892319 239.05648041 C610.86618276 237.09529008 610.84643144 235.13403426 610.80794525 233.17321968 C610.49765334 216.54183424 610.49765334 216.54183424 616.82876587 209.55049133 C618.53770638 208.01700095 620.26065535 206.49891648 622 205 C623.3288983 203.40530345 624.62730613 201.78400204 625.875 200.125 C629.51350869 195.48682023 633.45570816 191.2101105 637.4831543 186.91357422 C641.64808239 182.44541653 645.5327985 177.81315935 649.35546875 173.046875 C651 171 651 171 652 170 C654.73870242 169.91142125 657.45274983 169.88469293 660.19140625 169.90234375 C660.91775269 169.90335083 661.64409912 169.90435791 662.39245605 169.90539551 C665.11582001 169.91064284 667.83916153 169.924604 670.5625 169.9375 C676.646875 169.958125 682.73125 169.97875 689 170 C689 149.21 689 128.42 689 107 C736.52 107 784.04 107 833 107 C833 160.13 833 213.26 833 268 C839.6 268.33 846.2 268.66 853 269 C852.88217163 265.48883545 852.88217163 265.48883545 852.76196289 261.90673828 C852.51263904 254.14459076 852.34743556 246.3822588 852.22281742 238.61715889 C852.14474553 233.91155205 852.03903425 229.21006861 851.8684082 224.50683594 C851.70454523 219.96120193 851.61557591 215.41951149 851.57684135 210.87115097 C851.54927145 209.14272809 851.49541728 207.41450514 851.41404915 205.68777847 C850.81855452 192.51824543 850.81855452 192.51824543 854.42301559 188.35728073 C858.03014836 185.31806498 862.05934144 183.13159647 866.23356438 180.97229385 C868.48244901 179.73444704 870.29110314 178.23444282 872.15625 176.47802734 C905.66490151 144.99026851 927.89665758 154 978 154 C978 342.1 978 530.2 978 724 C640.08 724 302.16 724 -46 724 C-46 516.43 -46 308.86 -46 95 C-30.82 95 -15.64 95 0 95 C0 63.65 0 32.3 0 0 Z " fill="#1B1D3D" transform="translate(46,300)"/>
<path d="M0 0 C47.52 0 95.04 0 144 0 C144 53.13 144 106.26 144 161 C153.9 161.495 153.9 161.495 164 162 C163.92144775 159.65922363 163.84289551 157.31844727 163.76196289 154.90673828 C163.51263904 147.14459076 163.34743556 139.3822588 163.22281742 131.61715889 C163.14474553 126.91155205 163.03903425 122.21006861 162.8684082 117.50683594 C162.70454523 112.96120193 162.61557591 108.41951149 162.57684135 103.87115097 C162.54927145 102.14272809 162.49541728 100.41450514 162.41404915 98.68777847 C161.81855452 85.51824543 161.81855452 85.51824543 165.42301559 81.35728073 C169.03014836 78.31806498 173.05934144 76.13159647 177.23356438 73.97229385 C179.48244901 72.73444704 181.29110314 71.23444282 183.15625 69.47802734 C216.66490151 37.99026851 238.89665758 47 289 47 C289 196.16 289 345.32 289 499 C37.21 499 -214.58 499 -474 499 C-474 382.18 -474 265.36 -474 145 C-477.96 145 -481.92 145 -486 145 C-486 112 -486 79 -486 45 C-447.06 45 -408.12 45 -368 45 C-368 140.37 -368 235.74 -368 334 C-364.7 334 -361.4 334 -358 334 C-358 263.71 -358 193.42 -358 121 C-357.34 121 -356.68 121 -356 121 C-356 191.29 -356 261.58 -356 334 C-353.03 334 -350.06 334 -347 334 C-347 267.34 -347 200.68 -347 132 C-346.34 132 -345.68 132 -345 132 C-345 198.66 -345 265.32 -345 334 C-342.69 334 -340.38 334 -338 334 C-338 270.97 -338 207.94 -338 143 C-337.34 143 -336.68 143 -336 143 C-336 206.03 -336 269.06 -336 334 C-330.06 334 -324.12 334 -318 334 C-310.28886685 338.65446776 -310.28886685 338.65446776 -307.6953125 340.9453125 C-303.50400887 344.49322441 -298.99217183 347.5043632 -294.4375 350.5625 C-292.8220453 351.66148063 -291.20744665 352.76172079 -289.59375 353.86328125 C-288.81902344 354.39131348 -288.04429687 354.9193457 -287.24609375 355.46337891 C-282.93575474 358.41221301 -278.65335511 361.40122471 -274.37109375 364.390625 C-272.11883497 365.99570064 -272.11883497 365.99570064 -270 367 C-270 410.23 -270 453.46 -270 498 C-233.04 498 -196.08 498 -158 498 C-158 437.94 -158 377.88 -158 316 C-144.14 308.575 -144.14 308.575 -130 301 C-126.7 299.02 -123.4 297.04 -120 295 C-116.88574219 295.39624023 -116.88574219 295.39624023 -114 297 C-112.71646368 297.56885639 -111.42865186 298.12812163 -110.13769531 298.67993164 C-108.6997189 299.33683518 -107.26326058 299.99706932 -105.828125 300.66015625 C-105.06449646 301.0100914 -104.30086792 301.36002655 -103.51409912 301.7205658 C-101.09139493 302.83165641 -98.67070013 303.94705102 -96.25 305.0625 C-94.60819949 305.81603105 -92.96627364 306.56928907 -91.32421875 307.32226562 C-79.51917619 312.7404119 -79.51917619 312.7404119 -77 314 C-77.01382689 312.4304369 -77.01382689 312.4304369 -77.02793312 310.82916546 C-77.25010425 285.34762024 -77.41433976 259.8662009 -77.51812172 234.38389111 C-77.56964649 222.06067125 -77.63987011 209.7380919 -77.75439453 197.4152832 C-77.85418761 186.67242746 -77.91861068 175.93003564 -77.94088495 165.18672925 C-77.95390214 159.49996674 -77.98440808 153.81453122 -78.05730057 148.12819481 C-78.12542115 142.77046491 -78.146068 137.41460225 -78.13107681 132.05648041 C-78.13381724 130.09529008 -78.15356856 128.13403426 -78.19205475 126.17321968 C-78.50234666 109.54183424 -78.50234666 109.54183424 -72.17123413 102.55049133 C-70.46229362 101.01700095 -68.73934465 99.49891648 -67 98 C-65.6711017 96.40530345 -64.37269387 94.78400204 -63.125 93.125 C-59.48649131 88.48682023 -55.54429184 84.2101105 -51.5168457 79.91357422 C-47.35191761 75.44541653 -43.4672015 70.81315935 -39.64453125 66.046875 C-38 64 -38 64 -37 63 C-34.26129758 62.91142125 -31.54725017 62.88469293 -28.80859375 62.90234375 C-28.08224731 62.90335083 -27.35590088 62.90435791 -26.60754395 62.90539551 C-23.88417999 62.91064284 -21.16083847 62.924604 -18.4375 62.9375 C-12.353125 62.958125 -6.26875 62.97875 0 63 C0 42.21 0 21.42 0 0 Z " fill="#6A7092" transform="translate(735,407)"/>
<path d="M0 0 C5.35450454 4.0158784 9.94046347 7.69850957 14.5 12.4375 C18.52196481 16.53722011 22.56788613 20.49861395 26.94140625 24.2265625 C34.67027319 30.88482737 42.05441975 37.96616053 49.5 44.9375 C50.18255859 45.57623047 50.86511719 46.21496094 51.56835938 46.87304688 C52.83958804 48.06585148 54.10588507 49.26394288 55.36621094 50.46826172 C56.67459826 51.69492371 58.04007356 52.86057699 59.421875 54.00390625 C61.73055214 56.92403996 61.6120255 59.32067991 61.75 63 C61.77819824 63.65774414 61.80639648 64.31548828 61.83544922 64.99316406 C61.91324846 66.99468239 61.95680744 68.99743596 62 71 C62.02835938 72.17046875 62.05671875 73.3409375 62.0859375 74.546875 C62.18235294 82.45294118 62.18235294 82.45294118 61 86 C61.9506751 86 62.90135019 86 63.88083363 86 C154.20166721 86 244.52250079 86 372 86 C372 85.67 372 85.34 372 85 C373.98 85 375.96 85 378 85 C378 85.33 378 85.66 378 86 C381.34252724 86.07427838 383.8035914 86.06546953 387 85 C390.33769941 85.17204636 393.64319633 85.51419063 396.96875 85.84375 C400.04642846 86.18710432 400.04642846 86.18710432 403 85 C404.40824893 84.91978001 405.81997231 84.89234023 407.23046875 84.90234375 C408.43413086 84.90717773 408.43413086 84.90717773 409.66210938 84.91210938 C410.91217773 84.92467773 410.91217773 84.92467773 412.1875 84.9375 C413.03248047 84.94201172 413.87746094 84.94652344 414.74804688 84.95117188 C416.83206155 84.96294597 418.91603977 84.9808811 421 85 C421 85.33 421 85.66 421 86 C422.66611905 86.042721 424.33382885 86.04063832 426 86 C426.33 85.67 426.66 85.34 427 85 C428.50815304 84.90162986 430.02086946 84.87201482 431.53222656 84.87060547 C432.49702942 84.86745331 433.46183228 84.86430115 434.45587158 84.86105347 C436.03232452 84.86408981 436.03232452 84.86408981 437.640625 84.8671875 C438.71495789 84.86623077 439.78929077 84.86527405 440.8961792 84.86428833 C443.17606667 84.86360611 445.45595607 84.86546327 447.73583984 84.86962891 C451.2210734 84.87495579 454.70617685 84.86969609 458.19140625 84.86328125 C460.40364612 84.86394243 462.6158859 84.86522443 464.828125 84.8671875 C466.39243256 84.86415115 466.39243256 84.86415115 467.98834229 84.86105347 C468.96575378 84.86420563 469.94316528 84.86735779 470.95019531 84.87060547 C471.80655579 84.87140106 472.66291626 84.87219666 473.54522705 84.87301636 C476 85 476 85 478.31251526 85.5 C481.8940145 86.16632922 485.42090232 86.13924942 489.04956055 86.12939453 C489.84733414 86.13114685 490.64510773 86.13289917 491.46705627 86.13470459 C494.10696593 86.13910544 496.74680839 86.13618543 499.38671875 86.1328125 C501.24542758 86.13348743 503.10413632 86.13445903 504.96284485 86.13571167 C508.87261794 86.13718741 512.78236823 86.13504317 516.69213867 86.13037109 C521.62298565 86.12475704 526.55377719 86.12789966 531.484622 86.13394356 C535.33649584 86.13762452 539.18835741 86.13637543 543.0402317 86.13381577 C544.85248636 86.13316268 546.66474225 86.13391602 548.47699547 86.13629532 C558.86546955 86.14691504 569.21918746 85.94353167 579.59863281 85.5 C593.26797527 84.92319283 606.91785921 84.85410214 620.59765625 84.8671875 C623.13968414 84.86651135 625.68171196 84.86553875 628.22373962 84.86428833 C634.15849981 84.86264603 640.09324182 84.86606868 646.02799934 84.8714391 C651.42366058 84.8757639 656.81929847 84.87266603 662.21495825 84.8678025 C668.11177283 84.86270389 674.00857713 84.86325914 679.9053936 84.86618423 C682.39039553 84.86684822 684.87539833 84.86604366 687.36039925 84.86370468 C690.82109969 84.86115662 694.28173596 84.86504686 697.74243164 84.87060547 C699.25965317 84.86756912 699.25965317 84.86756912 700.80752563 84.86447144 C706.61798641 84.88170302 712.23644097 85.25319586 718 86 C718 85.67 718 85.34 718 85 C720.42229099 84.93271414 722.58187553 84.89209691 724.9375 85.5 C729.03325723 86.49291084 732.99189785 86.2332622 737 85 C737 85.33 737 85.66 737 86 C750.33849397 86.30619312 750.33849397 86.30619312 763.625 85.4375 C769.63582142 84.72633312 775.61159019 85.25613221 781.62939453 85.68139648 C785.94010024 86.14705097 785.94010024 86.14705097 790 85 C791.55047385 85.24123356 793.1006871 85.48420995 794.64990234 85.73339844 C800.00558571 86.34096194 805.4297938 86.14190018 810.8125 86.125 C812.64264648 86.13080078 812.64264648 86.13080078 814.50976562 86.13671875 C815.70923828 86.13542969 816.90871094 86.13414062 818.14453125 86.1328125 C819.75871948 86.13112061 819.75871948 86.13112061 821.40551758 86.12939453 C825.94967934 85.96581335 830.4754613 85.45245387 835 85 C835 107.44 835 129.88 835 153 C824.089375 152.62875 813.17875 152.2575 801.9375 151.875 C773.17169774 151.64826026 752.53804494 154.64556414 730.71923828 175.04214478 C730.16598877 175.55868622 729.61273926 176.07522766 729.04272461 176.60742188 C728.45825562 177.15411026 727.87378662 177.70079865 727.27160645 178.26405334 C725 180 725 180 721.48034668 181.7719574 C714.68096654 185.04744816 714.68096654 185.04744816 710.21039391 190.82696915 C708.95372398 196.20488653 709.2450697 201.67845083 709.4140625 207.16015625 C709.41774172 208.91849044 709.41523278 210.67684745 709.40682983 212.43516541 C709.40130066 217.03866518 709.47919771 221.63702585 709.57513428 226.23937988 C709.6582545 230.94518508 709.66160276 235.65099362 709.671875 240.35742188 C709.70364416 249.5737772 709.83101287 258.78513831 710 268 C703.07 268 696.14 268 689 268 C689.33 214.54 689.66 161.08 690 106 C642.48 106 594.96 106 546 106 C546 126.79 546 147.58 546 169 C540.163125 168.855625 534.32625 168.71125 528.3125 168.5625 C515.47711788 168.18140725 515.47711788 168.18140725 504.03515625 172.984375 C501.20632065 175.99934974 499.1285567 179.3944307 497.16552734 183.01953125 C495.28898378 186.20816161 492.76842093 188.6885782 490.1875 191.3125 C486.2679845 195.55058279 482.5771479 199.88644171 479.046875 204.453125 C477 207 477 207 475.30002499 208.3052063 C471.72283271 211.40197533 469.88846771 214.30745899 469.34633064 219.00305176 C469.00247016 224.24108891 469.06785827 229.48032304 469.11352539 234.7265625 C469.10563231 236.74743516 469.09466838 238.76829781 469.08087158 240.78913879 C469.05218103 246.26191669 469.06636225 251.73383785 469.08831334 257.20661545 C469.10395848 262.93086021 469.08007631 268.65493765 469.06040955 274.37915039 C469.02918274 285.21272738 469.03343981 296.04598745 469.05048412 306.87958431 C469.06816182 319.21575478 469.04622315 331.55175563 469.02097714 343.88790131 C468.96994218 369.2586575 468.9685914 394.62922137 469 420 C465.64111886 418.89419197 462.37278411 417.80789651 459.18530273 416.27246094 C458.50116806 415.94582458 457.81703339 415.61918823 457.11216736 415.28265381 C456.39323807 414.9367218 455.67430878 414.59078979 454.93359375 414.234375 C453.38127217 413.50172889 451.82852475 412.7699845 450.27539062 412.0390625 C447.84640775 410.89293933 445.42045114 409.74177882 443.0012207 408.57519531 C440.65269859 407.44524375 438.2945259 406.33811224 435.93359375 405.234375 C434.85216347 404.7033316 434.85216347 404.7033316 433.74888611 404.16156006 C430.67942061 402.74610929 428.69935548 401.83709766 425.34301758 402.61889648 C424.56982178 403.07466064 423.79662598 403.5304248 423 404 C422.1327832 404.44255127 421.26556641 404.88510254 420.37207031 405.34106445 C419.45006836 405.843396 418.52806641 406.34572754 417.578125 406.86328125 C416.55203125 407.42080078 415.5259375 407.97832031 414.46875 408.55273438 C413.4065625 409.13345703 412.344375 409.71417969 411.25 410.3125 C410.20328125 410.88162109 409.1565625 411.45074219 408.078125 412.03710938 C402.59898708 415.01981508 397.1405914 418.02979978 391.73339844 421.14135742 C390 422 390 422 388 422 C388 482.06 388 542.12 388 604 C351.04 604 314.08 604 276 604 C276 560.77 276 517.54 276 473 C274.35 472.34 272.7 471.68 271 471 C269.57174652 470.1126913 268.17302474 469.1763973 266.8046875 468.19921875 C266.01513672 467.64016846 265.22558594 467.08111816 264.41210938 466.50512695 C263.57486328 465.90531006 262.73761719 465.30549316 261.875 464.6875 C260.09181684 463.42353199 258.30794431 462.16053605 256.5234375 460.8984375 C255.61303711 460.25358398 254.70263672 459.60873047 253.76464844 458.94433594 C248.57998311 455.29803828 243.33520076 451.73973476 238.09326172 448.17651367 C236.97975342 447.41818237 236.97975342 447.41818237 235.84375 446.64453125 C235.19599609 446.20471924 234.54824219 445.76490723 233.88085938 445.31176758 C231.88712698 443.92127898 229.94458056 442.45843542 228 441 C222.06 440.67 216.12 440.34 210 440 C210 376.97 210 313.94 210 249 C209.34 249 208.68 249 208 249 C208 312.03 208 375.06 208 440 C205.69 440 203.38 440 201 440 C201 373.34 201 306.68 201 238 C200.34 238 199.68 238 199 238 C199 304.66 199 371.32 199 440 C196.03 440 193.06 440 190 440 C190 369.71 190 299.42 190 227 C189.34 227 188.68 227 188 227 C188 297.29 188 367.58 188 440 C184.7 440 181.4 440 178 440 C178 344.63 178 249.26 178 151 C139.06 151 100.12 151 60 151 C60 184 60 217 60 251 C40.2 251 20.4 251 0 251 C0 168.17 0 85.34 0 0 Z " fill="#F1E1E8" transform="translate(189,301)"/>
<path d="M0 0 C47.52 0 95.04 0 144 0 C144 53.13 144 106.26 144 161 C153.9 161.495 153.9 161.495 164 162 C164 135.93 164 109.86 164 83 C164.33 83 164.66 83 165 83 C165 109.07 165 135.14 165 162 C182.82 162 200.64 162 219 162 C219 205.89 219 249.78 219 295 C203 300.33333333 187 305.66666667 171 311 C170.67 334.76 170.34 358.52 170 383 C163.73 383 157.46 383 151 383 C151 310.4 151 237.8 151 163 C141.52754545 163.83468956 141.52754545 163.83468956 133.8203125 167.5625 C133.20026337 167.9138501 132.58021423 168.2652002 131.94137573 168.62719727 C129.99267786 169.7351676 128.05870995 170.86611199 126.125 172 C124.1675329 173.12915959 122.20731603 174.25322364 120.24435425 175.37280273 C118.47673362 176.3837824 116.71688758 177.40831983 114.95751953 178.43359375 C112 180 112 180 108 181 C108 142.39 108 103.78 108 64 C60.48 64 12.96 64 -36 64 C-36 207.55 -36 351.1 -36 499 C-180.54 499 -325.08 499 -474 499 C-474 382.18 -474 265.36 -474 145 C-477.96 145 -481.92 145 -486 145 C-486 112 -486 79 -486 45 C-447.06 45 -408.12 45 -368 45 C-368 140.37 -368 235.74 -368 334 C-364.7 334 -361.4 334 -358 334 C-358 263.71 -358 193.42 -358 121 C-357.34 121 -356.68 121 -356 121 C-356 191.29 -356 261.58 -356 334 C-353.03 334 -350.06 334 -347 334 C-347 267.34 -347 200.68 -347 132 C-346.34 132 -345.68 132 -345 132 C-345 198.66 -345 265.32 -345 334 C-342.69 334 -340.38 334 -338 334 C-338 270.97 -338 207.94 -338 143 C-337.34 143 -336.68 143 -336 143 C-336 206.03 -336 269.06 -336 334 C-330.06 334 -324.12 334 -318 334 C-310.28886685 338.65446776 -310.28886685 338.65446776 -307.6953125 340.9453125 C-303.50400887 344.49322441 -298.99217183 347.5043632 -294.4375 350.5625 C-292.8220453 351.66148063 -291.20744665 352.76172079 -289.59375 353.86328125 C-288.81902344 354.39131348 -288.04429687 354.9193457 -287.24609375 355.46337891 C-282.93575474 358.41221301 -278.65335511 361.40122471 -274.37109375 364.390625 C-272.11883497 365.99570064 -272.11883497 365.99570064 -270 367 C-270 410.23 -270 453.46 -270 498 C-233.04 498 -196.08 498 -158 498 C-158 437.94 -158 377.88 -158 316 C-144.14 308.575 -144.14 308.575 -130 301 C-126.7 299.02 -123.4 297.04 -120 295 C-116.88574219 295.39624023 -116.88574219 295.39624023 -114 297 C-112.71646368 297.56885639 -111.42865186 298.12812163 -110.13769531 298.67993164 C-108.6997189 299.33683518 -107.26326058 299.99706932 -105.828125 300.66015625 C-105.06449646 301.0100914 -104.30086792 301.36002655 -103.51409912 301.7205658 C-101.09139493 302.83165641 -98.67070013 303.94705102 -96.25 305.0625 C-94.60819949 305.81603105 -92.96627364 306.56928907 -91.32421875 307.32226562 C-79.51917619 312.7404119 -79.51917619 312.7404119 -77 314 C-77.01382689 312.4304369 -77.01382689 312.4304369 -77.02793312 310.82916546 C-77.25010425 285.34762024 -77.41433976 259.8662009 -77.51812172 234.38389111 C-77.56964649 222.06067125 -77.63987011 209.7380919 -77.75439453 197.4152832 C-77.85418761 186.67242746 -77.91861068 175.93003564 -77.94088495 165.18672925 C-77.95390214 159.49996674 -77.98440808 153.81453122 -78.05730057 148.12819481 C-78.12542115 142.77046491 -78.146068 137.41460225 -78.13107681 132.05648041 C-78.13381724 130.09529008 -78.15356856 128.13403426 -78.19205475 126.17321968 C-78.50234666 109.54183424 -78.50234666 109.54183424 -72.17123413 102.55049133 C-70.46229362 101.01700095 -68.73934465 99.49891648 -67 98 C-65.6711017 96.40530345 -64.37269387 94.78400204 -63.125 93.125 C-59.48649131 88.48682023 -55.54429184 84.2101105 -51.5168457 79.91357422 C-47.35191761 75.44541653 -43.4672015 70.81315935 -39.64453125 66.046875 C-38 64 -38 64 -37 63 C-34.26129758 62.91142125 -31.54725017 62.88469293 -28.80859375 62.90234375 C-28.08224731 62.90335083 -27.35590088 62.90435791 -26.60754395 62.90539551 C-23.88417999 62.91064284 -21.16083847 62.924604 -18.4375 62.9375 C-12.353125 62.958125 -6.26875 62.97875 0 63 C0 42.21 0 21.42 0 0 Z " fill="#848CAC" transform="translate(735,407)"/>
<path d="M0 0 C47.19 0 94.38 0 143 0 C143 199.98 143 399.96 143 606 C109.34 606 75.68 606 41 606 C41 437.37 41 268.74 41 95 C27.47 95 13.94 95 0 95 C0 63.65 0 32.3 0 0 Z " fill="#6F7496" transform="translate(46,300)"/>
<path d="M0 0 C47.52 0 95.04 0 144 0 C144 143.55 144 287.1 144 435 C96.48 435 48.96 435 0 435 C0 291.45 0 147.9 0 0 Z " fill="#454871" transform="translate(699,471)"/>
<path d="M0 0 C38.94 0 77.88 0 118 0 C118 95.7 118 191.4 118 290 C134.17 290 150.34 290 167 290 C167 344.12 167 398.24 167 454 C115.85 454 64.7 454 12 454 C12 337.18 12 220.36 12 100 C8.04 100 4.08 100 0 100 C0 67 0 34 0 0 Z " fill="#7A7E9F" transform="translate(249,452)"/>
<path d="M0 0 C23.76 0 47.52 0 72 0 C72 116.82 72 233.64 72 354 C48.24 354 24.48 354 0 354 C0 237.18 0 120.36 0 0 Z " fill="#36385E" transform="translate(189,552)"/>
<path d="M0 0 C11.00481941 10.14169632 19.29967072 25.50606867 21.8671875 40.2109375 C22.00906279 43.88501836 21.98876237 47.53667479 21.8671875 51.2109375 C23.383125 50.2209375 23.383125 50.2209375 24.9296875 49.2109375 C33.00236283 45.21031964 42.8534808 46.28285285 51.2421875 48.8359375 C61.80368287 52.89586717 68.20663333 58.6471852 73.6796875 68.4609375 C75.54610755 72.7831734 75.98581066 76.24659193 75.9296875 80.9609375 C75.92066406 81.94578125 75.91164063 82.930625 75.90234375 83.9453125 C75.88494141 85.06679687 75.88494141 85.06679687 75.8671875 86.2109375 C76.39828125 85.93378906 76.929375 85.65664062 77.4765625 85.37109375 C78.18296875 85.00886719 78.889375 84.64664063 79.6171875 84.2734375 C80.31328125 83.91378906 81.009375 83.55414063 81.7265625 83.18359375 C86.88694925 80.83881948 92.27765171 80.44112119 97.8671875 81.2109375 C101.75542929 82.93618386 104.86943962 85.21318962 107.8671875 88.2109375 C110.4603959 88.81435903 110.4603959 88.81435903 113.51171875 89.17578125 C114.66478516 89.33626953 115.81785156 89.49675781 117.00585938 89.66210938 C118.21822266 89.82259766 119.43058594 89.98308594 120.6796875 90.1484375 C129.88294271 91.38060886 138.85279069 92.96695803 147.8671875 95.2109375 C147.8671875 95.5409375 147.8671875 95.8709375 147.8671875 96.2109375 C-29.6728125 96.2109375 -207.2128125 96.2109375 -390.1328125 96.2109375 C-390.1328125 95.8809375 -390.1328125 95.5509375 -390.1328125 95.2109375 C-389.52920898 95.13053223 -388.92560547 95.05012695 -388.30371094 94.96728516 C-385.49647302 94.59216625 -382.68959375 94.21445844 -379.8828125 93.8359375 C-378.35309814 93.63013062 -378.35309814 93.63013062 -376.79248047 93.42016602 C-371.92524079 92.75765255 -367.08570806 92.0600492 -362.2578125 91.1484375 C-348.93992076 88.91013637 -335.44629934 88.17905905 -321.9609375 88.109375 C-320.15917817 88.09269204 -318.35742036 88.07584535 -316.55566406 88.05883789 C-312.98333642 88.02679746 -309.41495573 88.04151246 -305.84277344 88.07983398 C-295.81251453 88.37884729 -295.81251453 88.37884729 -287.2734375 83.80859375 C-286.21796441 82.61693548 -285.16968763 81.41881284 -284.1328125 80.2109375 C-281.3046875 78.6875 -281.3046875 78.6875 -278.8828125 77.8359375 C-278.07328125 77.53945312 -277.26375 77.24296875 -276.4296875 76.9375 C-264.5427308 73.17734023 -250.31283571 73.46914633 -239.1171875 79.01953125 C-237.1328125 80.2109375 -237.1328125 80.2109375 -236.1328125 81.2109375 C-236.05804687 80.3653125 -235.98328125 79.5196875 -235.90625 78.6484375 C-234.86501559 69.66523864 -232.94755165 64.42265648 -226.13671875 58.46484375 C-218.74788055 52.64037205 -212.49603565 51.35522572 -203.1328125 52.2109375 C-200.58572713 52.98264638 -198.51777894 53.99308229 -196.1328125 55.2109375 C-195.1428125 55.2109375 -194.1528125 55.2109375 -193.1328125 55.2109375 C-192.3696875 54.4478125 -191.6065625 53.6846875 -190.8203125 52.8984375 C-186.90451398 48.98263898 -183.3831526 47.05746884 -177.828125 46.91796875 C-176.30440929 46.93767197 -174.78082398 46.97310068 -173.2578125 47.0234375 C-172.0821875 47.04374023 -172.0821875 47.04374023 -170.8828125 47.06445312 C-168.96584468 47.09951961 -167.04923499 47.15331678 -165.1328125 47.2109375 C-165.02324219 46.30988281 -164.91367187 45.40882813 -164.80078125 44.48046875 C-163.32658716 37.26467663 -158.13966888 32.65599418 -152.24389648 28.57373047 C-134.75155841 17.14328178 -113.2719346 14.55316675 -92.8828125 18.2109375 C-78.382717 21.90500945 -64.98672362 28.84887291 -56.1328125 41.2109375 C-65.54106549 26.0042446 -78.39687458 19.28363184 -95.39453125 15.12109375 C-100.47558861 14.02584361 -105.51228815 13.76846514 -110.6953125 13.5859375 C-112.06526367 13.52792969 -112.06526367 13.52792969 -113.46289062 13.46875 C-115.68601174 13.37563498 -117.90914863 13.28981584 -120.1328125 13.2109375 C-115.90071932 0.62781554 -102.52884415 -8.07910256 -91.21484375 -13.83203125 C-59.44805102 -29.28635652 -26.41958619 -22.16148439 0 0 Z " fill="#888EAF" transform="translate(828.1328125,142.7890625)"/>
<path d="M0 0 C47.52 0 95.04 0 144 0 C144.33 19.2225 144.66 38.445 145 58.25 C145.14566406 64.30118164 145.29132813 70.35236328 145.44140625 76.58691406 C145.51367188 84.02294922 145.51367188 84.02294922 145.52709961 87.51312256 C145.55154164 89.9314088 145.6075597 92.34950947 145.68920898 94.76654053 C146.32699538 114.65501737 146.32699538 114.65501737 142.43163681 120.25447273 C138.72736487 124.01108141 134.54787391 126.63707052 129.86855793 129.02184391 C127.43302496 130.29680112 125.3018975 131.87720972 123.1328125 133.55859375 C121.79796366 134.51974291 120.46204737 135.47941156 119.125 136.4375 C117.60546331 137.53124244 116.08593222 138.62499267 114.56640625 139.71875 C113.04428558 140.81252052 111.52215023 141.90627062 110 143 C99.99221308 150.19915697 90.02057355 157.44258218 80.10571289 164.76928711 C74.76164154 168.71407211 69.39086269 172.61945236 64 176.5 C53.21983069 184.26413378 42.49576079 192.10737066 31.87890625 200.09375 C31.26177848 200.55703978 30.6446507 201.02032956 30.00882208 201.49765843 C28.71466099 202.47537073 27.425882 203.46029718 26.14542425 204.45588857 C22.66650216 207.13175387 19.18480685 209.52274954 15.36242104 211.68429852 C5.68082142 217.24205461 5.68082142 217.24205461 0.35468674 226.57882118 C-0.47422694 232.05549184 -0.29694645 237.50883413 -0.13525391 243.02856445 C-0.14004672 245.12900923 -0.1527729 247.22944847 -0.17277527 249.32980347 C-0.20451147 254.99865891 -0.12609557 260.66114243 -0.02701998 266.32901788 C0.05771146 272.26398028 0.03996833 278.19864212 0.03335571 284.13407898 C0.03628887 295.35814216 0.13062699 306.57947802 0.25827467 317.80274028 C0.39918272 330.5862402 0.43748839 343.36941396 0.46741748 356.15358031 C0.53123586 382.43693245 0.72311905 408.71808941 1 435 C0.67 435 0.34 435 0 435 C0 291.45 0 147.9 0 0 Z " fill="#4D557C" transform="translate(699,471)"/>
<path d="M0 0 C47.52 0 95.04 0 144 0 C144 53.13 144 106.26 144 161 C153.9 161.495 153.9 161.495 164 162 C164 135.93 164 109.86 164 83 C164.33 83 164.66 83 165 83 C165 109.07 165 135.14 165 162 C182.82 162 200.64 162 219 162 C219 205.89 219 249.78 219 295 C203 300.33333333 187 305.66666667 171 311 C170.67 334.76 170.34 358.52 170 383 C163.73 383 157.46 383 151 383 C151 310.4 151 237.8 151 163 C141.52754545 163.83468956 141.52754545 163.83468956 133.8203125 167.5625 C133.20026337 167.9138501 132.58021423 168.2652002 131.94137573 168.62719727 C129.99267786 169.7351676 128.05870995 170.86611199 126.125 172 C124.1675329 173.12915959 122.20731603 174.25322364 120.24435425 175.37280273 C118.47673362 176.3837824 116.71688758 177.40831983 114.95751953 178.43359375 C112 180 112 180 108 181 C108 142.06 108 103.12 108 63 C72.36 63 36.72 63 0 63 C0 42.21 0 21.42 0 0 Z " fill="#AAAABE" transform="translate(735,407)"/>
<path d="M0 0 C10.49281073 7.86960804 20.7427695 15.68718413 30.36328125 24.60546875 C33.83870596 27.76166927 37.46589837 30.70322561 41.1171875 33.65234375 C44.28015961 36.22815166 47.39320058 38.85702488 50.5 41.5 C55.40746585 45.67134598 60.3628895 49.77682425 65.3671875 53.83203125 C66.23601562 54.54746094 67.10484375 55.26289062 68 56 C68.58039301 56.36689269 69.16078603 56.73378537 69.75876671 57.11179602 C72.77181614 59.21002187 74.69217949 60.82612568 75.64364326 64.45453525 C75.88446492 67.56618832 75.89905945 70.61039287 75.84178162 73.73104858 C75.84776259 74.92040532 75.85374356 76.10976205 75.85990578 77.3351599 C75.86943373 80.62915161 75.84760463 83.92022277 75.81245935 87.21386075 C75.78219771 90.76797932 75.79246193 94.32200953 75.79777527 97.8762207 C75.80144378 104.03143 75.77950305 110.18611944 75.7401104 116.34119797 C75.68319311 125.24028764 75.66498753 134.13912623 75.65619446 143.03837819 C75.64087833 157.47706256 75.5943056 171.91546992 75.52807617 186.35400391 C75.46381182 200.3787294 75.4142684 214.40337963 75.38452148 228.42822266 C75.38268242 229.29287503 75.38084336 230.15752741 75.37894856 231.04838137 C75.36981322 235.38613776 75.36096729 239.72389467 75.35226524 244.06165195 C75.2797114 280.04134734 75.15067334 316.0205303 75 352 C50.25 352 25.5 352 0 352 C0 235.84 0 119.68 0 0 Z " fill="#B3B3C5" transform="translate(262,554)"/>
<path d="M0 0 C0 81.84 0 163.68 0 248 C-62 248 -62 248 -70 247 C-70 203.44 -70 159.88 -70 115 C-87.82 115 -105.64 115 -124 115 C-124.56152333 95.3957053 -124.56152333 95.3957053 -124.68359375 87.00195312 C-124.76712162 81.28565281 -124.86561252 75.57250777 -125.05615234 69.85864258 C-125.20892313 65.24823164 -125.29209853 60.64120308 -125.3282814 56.02845573 C-125.35404131 54.27417656 -125.40435804 52.52007172 -125.48022079 50.76724434 C-126.03592702 37.38842032 -126.03592702 37.38842032 -122.67833519 33.44950676 C-118.84678739 30.25721239 -114.43503025 28.22106441 -110 26 C-107.7534185 24.33862725 -107.7534185 24.33862725 -105.95727539 22.59155273 C-72.37159344 -8.97815848 -50.25386316 0 0 0 Z " fill="#6C7293" transform="translate(1024,454)"/>
<path d="M0 0 C46.86 0 93.72 0 142 0 C142 53.79 142 107.58 142 163 C136.12904685 159.73835936 130.79998721 156.59788513 125.4375 152.6875 C118.33411975 147.58668137 111.10478632 142.70133691 103.8125 137.875 C96.19814152 132.82916238 88.67191257 127.70784349 81.2734375 122.3515625 C75.62273136 118.26800394 69.843458 114.36629872 64.08935547 110.43066406 C59.76708799 107.47103711 55.45421128 104.49772141 51.13916016 101.52758789 C48.43644571 99.66873709 45.72937953 97.81958636 43 96 C42.67 263.97 42.34 431.94 42 605 C47.94 605 53.88 605 60 605 C60 444.62 60 284.24 60 119 C60.33 119 60.66 119 61 119 C61 279.38 61 439.76 61 605 C65.95 605 70.9 605 76 605 C75.67 604.34 75.34 603.68 75 603 C74.90467891 600.61957254 74.86981727 598.26859985 74.87974548 595.88803101 C74.87889106 595.14719918 74.87803663 594.40636735 74.87715632 593.64308608 C74.87550247 591.14793813 74.88102135 588.65285665 74.88647461 586.15771484 C74.88675653 584.3741913 74.88659866 582.59066764 74.8860321 580.80714417 C74.88574431 575.95410149 74.89163814 571.10108335 74.89860606 566.2480464 C74.90484259 561.18047172 74.90544364 556.11289653 74.90663147 551.0453186 C74.9097439 541.44411103 74.91795611 531.84291479 74.92798096 522.24171221 C74.93914483 511.3132175 74.94465324 500.38472225 74.94967639 489.45622325 C74.96013879 466.9708092 74.97773653 444.48540524 75 422 C75.66 422 76.32 422 77 422 C77 482.39 77 542.78 77 605 C81.29 605 85.58 605 90 605 C90 452.21 90 299.42 90 142 C90.66 142 91.32 142 92 142 C92 294.79 92 447.58 92 605 C96.62 605 101.24 605 106 605 C106 456.83 106 308.66 106 156 C106.33 156 106.66 156 107 156 C107 304.17 107 452.34 107 605 C111.62 605 116.24 605 121 605 C121 460.13 121 315.26 121 166 C121.33 166 121.66 166 122 166 C123.32757005 370.59722212 123.32757005 370.59722212 122 605 C128.93 605 135.86 605 143 605 C143 605.33 143 605.66 143 606 C109.34 606 75.68 606 41 606 C41 437.37 41 268.74 41 95 C27.47 95 13.94 95 0 95 C0 63.65 0 32.3 0 0 Z " fill="#5C6288" transform="translate(46,300)"/>
<path d="M0 0 C0.66 0 1.32 0 2 0 C2 70.29 2 140.58 2 213 C4.97 213 7.94 213 11 213 C11 146.34 11 79.68 11 11 C11.66 11 12.32 11 13 11 C13 77.66 13 144.32 13 213 C15.31 213 17.62 213 20 213 C20 149.97 20 86.94 20 22 C20.66 22 21.32 22 22 22 C22 85.03 22 148.06 22 213 C27.94 213 33.88 213 40 213 C47.71113315 217.65446776 47.71113315 217.65446776 50.3046875 219.9453125 C54.49599113 223.49322441 59.00782817 226.5043632 63.5625 229.5625 C65.1779547 230.66148063 66.79255335 231.76172079 68.40625 232.86328125 C69.18097656 233.39131348 69.95570313 233.9193457 70.75390625 234.46337891 C75.06424526 237.41221301 79.34664489 240.40122471 83.62890625 243.390625 C85.88116503 244.99570064 85.88116503 244.99570064 88 246 C88 289.23 88 332.46 88 377 C124.96 377 161.92 377 200 377 C200 316.94 200 256.88 200 195 C209.24 190.05 218.48 185.1 228 180 C231.3 178.02 234.6 176.04 238 174 C238.66 174.33 239.32 174.66 240 175 C239.67 241.99 239.34 308.98 239 378 C173 378 107 378 39 378 C39 323.88 39 269.76 39 214 C22.83 214 6.66 214 -10 214 C-10 213.67 -10 213.34 -10 213 C-6.7 213 -3.4 213 0 213 C0 142.71 0 72.42 0 0 Z " fill="#C1BDD3" transform="translate(377,528)"/>
<path d="M0 0 C5.35450454 4.0158784 9.94046347 7.69850957 14.5 12.4375 C18.52196481 16.53722011 22.56788613 20.49861395 26.94140625 24.2265625 C34.69263933 30.90409536 42.09692357 38.00692841 49.5625 45 C50.2534375 45.64710938 50.944375 46.29421875 51.65625 46.9609375 C52.63271484 47.87746094 52.63271484 47.87746094 53.62890625 48.8125 C54.4962439 49.62654297 54.4962439 49.62654297 55.38110352 50.45703125 C55.91533936 50.96621094 56.4495752 51.47539062 57 52 C57.55469971 52.45076904 58.10939941 52.90153809 58.6809082 53.3659668 C60.55679548 55.68973388 60.41605319 57.36387719 60.4765625 60.33203125 C60.5070166 61.49412109 60.5374707 62.65621094 60.56884766 63.85351562 C60.59664307 65.81321289 60.59664307 65.81321289 60.625 67.8125 C60.65438368 69.20379867 60.68486311 70.59507453 60.71630859 71.98632812 C60.78687024 75.28325094 60.84570966 78.58018609 60.8984375 81.87744141 C60.98310556 87.13755492 61.08451785 92.39724809 61.18888283 97.65700436 C61.3287058 104.72353405 61.4588749 111.79022329 61.58605194 118.85699081 C61.62511138 121.0061284 61.66540876 123.15524022 61.70587158 125.30435181 C61.78174064 129.36947461 61.84841387 133.43469929 61.9140625 137.5 C61.94983398 139.36968697 61.94983398 139.36968697 61.98632812 141.27714539 C62.00324707 142.41287491 62.02016602 143.54860443 62.03759766 144.71875 C62.05456696 145.71841797 62.07153625 146.71808594 62.08901978 147.74804688 C62 150 62 150 61 151 C60.874595 154.10435737 60.8138673 157.18752496 60.79467773 160.29321289 C60.78477814 161.26871597 60.77487854 162.24421906 60.76467896 163.24928284 C60.73296052 166.49038218 60.70826581 169.73149622 60.68359375 172.97265625 C60.66303314 175.21325574 60.64203692 177.45385127 60.62062073 179.69444275 C60.56530775 185.60455123 60.5159393 191.51469525 60.46777344 197.42486572 C60.40881559 204.50919754 60.34253709 211.59346413 60.27747345 218.677742 C60.17934795 229.45178831 60.09057125 240.2258756 60 251 C40.2 251 20.4 251 0 251 C0 168.17 0 85.34 0 0 Z " fill="#FAECF4" transform="translate(189,301)"/>
<path d="M0 0 C0.33 0 0.66 0 1 0 C1 26.07 1 52.14 1 79 C18.82 79 36.64 79 55 79 C55 122.89 55 166.78 55 212 C39 217.33333333 23 222.66666667 7 228 C6.67 251.76 6.34 275.52 6 300 C-0.27 300 -6.54 300 -13 300 C-13 227.4 -13 154.8 -13 80 C-15.97 80 -18.94 80 -22 80 C-22 79.67 -22 79.34 -22 79 C-14.74 79 -7.48 79 0 79 C0 52.93 0 26.86 0 0 Z " fill="#999BB4" transform="translate(899,490)"/>
<path d="M0 0 C9.42583192 0.00797497 18.851662 0.01342301 28.27749646 0.01709545 C28.94988996 0.01735817 29.62228347 0.01762089 30.31505253 0.01789158 C33.69124047 0.01919745 37.06742843 0.02046096 40.44361639 0.02170348 C68.059391 0.03192069 95.6751571 0.04947473 123.29092419 0.07202709 C123.62092419 0.73202709 123.95092419 1.39202709 124.29092419 2.07202709 C123.33572888 2.35175365 122.38053357 2.63148021 121.39639294 2.91968334 C110.09299847 6.37113509 96.92308711 11.4627173 90.54092419 22.07202709 C90.13358044 22.73202709 89.72623669 23.39202709 89.30654919 24.07202709 C88.29258297 26.06876057 87.74003415 27.88505687 87.29092419 30.07202709 C86.16815075 30.08620677 85.04537732 30.10038646 83.88858044 30.11499584 C71.7465297 30.3379186 71.7465297 30.3379186 61.29092419 36.07202709 C60.63092419 37.06202709 59.97092419 38.05202709 59.29092419 39.07202709 C56.68409919 38.6251428 54.40208468 38.12049605 51.97061169 37.06030834 C45.43155687 34.64867442 38.27359668 35.21321022 31.97842419 38.07202709 C26.11151993 41.40699843 21.82903975 45.85596727 18.91592419 51.94702709 C18.04590479 56.29712408 17.62291821 60.65126459 17.29092419 65.07202709 C16.53166638 64.72269115 15.77240857 64.37335521 14.99014294 64.01343334 C13.99627575 63.55839427 13.00240857 63.10335521 11.97842419 62.63452709 C10.49922497 61.95583568 10.49922497 61.95583568 8.99014294 61.26343334 C4.83799635 59.4307203 1.82235102 58.95236159 -2.68954456 58.97437084 C-4.43461292 58.97920482 -4.43461292 58.97920482 -6.21493518 58.98413646 C-8.03734729 58.99670482 -8.03734729 58.99670482 -9.89657581 59.00952709 C-11.73639026 59.01629467 -11.73639026 59.01629467 -13.61337268 59.02319896 C-16.64532249 59.03499643 -19.67717487 59.05145788 -22.70907581 59.07202709 C-23.03907581 58.08202709 -23.36907581 57.09202709 -23.70907581 56.07202709 C-25.36118061 56.06322773 -25.36118061 56.06322773 -27.04666126 56.0542506 C-42.85088003 55.96858662 -58.65499309 55.86717372 -74.45907581 55.75952709 C-75.14326115 55.75488146 -75.82744649 55.75023583 -76.53236473 55.74544942 C-148.96622311 55.25216755 -221.39635336 54.38321337 -293.82673657 53.53593296 C-296.09061619 53.50945058 -298.35449592 53.48297783 -300.61837566 53.45650613 C-339.64866905 53.00005642 -378.67890121 52.53852831 -417.70907581 52.07202709 C-417.70907581 51.74202709 -417.70907581 51.41202709 -417.70907581 51.07202709 C-388.4739897 49.97880999 -359.22443255 49.63397441 -329.97361032 49.22607762 C-322.57999099 49.12284936 -315.18641905 49.01638962 -307.79284779 48.90978289 C-294.53619211 48.7187063 -281.27950592 48.52984406 -268.02279651 48.3425349 C-255.3203103 48.16304973 -242.6178341 47.98288817 -229.91537464 47.80151927 C-229.13654492 47.79039942 -228.3577152 47.77927956 -227.55528458 47.76782274 C-218.96908806 47.64520961 -210.3828948 47.52236918 -201.79670417 47.39934337 C-201.0317524 47.38838365 -200.26680062 47.37742392 -199.47866848 47.36613208 C-194.87789742 47.30021383 -194.87789742 47.30021383 -190.27712671 47.23427129 C-182.17579571 47.11814241 -174.07445991 47.00237985 -165.97310436 46.88797557 C-148.55119353 46.64193212 -131.12936908 46.39083665 -113.70765245 46.13131511 C-110.29484212 46.08071241 -106.88202418 46.03069693 -103.46920121 45.98095864 C-96.54804005 45.88002326 -89.62692972 45.77632695 -82.70588103 45.6679346 C-79.46660259 45.61723994 -76.22731486 45.56798756 -72.98797822 45.52113712 C-56.15424651 45.27640044 -39.40403427 44.79822251 -22.62753284 43.32593334 C-17.32487979 42.86460164 -12.01645217 42.47472581 -6.70907581 42.07202709 C-6.70907581 41.41202709 -6.70907581 40.75202709 -6.70907581 40.07202709 C-8.60677722 40.07988231 -8.60677722 40.07988231 -10.54281604 40.08789623 C-35.67094469 40.18163228 -60.78575885 40.11417481 -85.91050863 39.68106735 C-92.97870935 39.56005141 -100.04705128 39.44804585 -107.11541736 39.33716381 C-108.20879642 39.31996448 -108.20879642 39.31996448 -109.32426394 39.3024177 C-125.47519319 39.04963692 -141.62661836 38.86399742 -157.77865589 38.69898021 C-158.81585768 38.6883553 -158.81585768 38.6883553 -159.87401305 38.67751575 C-168.49377826 38.58937547 -177.11356958 38.50398637 -185.73337247 38.4196209 C-193.47424335 38.34375388 -201.21509045 38.26556705 -208.95593723 38.18728608 C-222.84425949 38.0468727 -236.73259464 37.90778455 -250.62094104 37.76978099 C-251.85027645 37.75756494 -251.85027645 37.75756494 -253.10444691 37.74510211 C-256.42135186 37.71214371 -259.73825684 37.67918829 -263.05516185 37.64623687 C-290.74356068 37.37113274 -318.43193962 37.09404933 -346.12029463 36.81457031 C-348.47490747 36.79081441 -350.82952064 36.76709093 -353.18413389 36.74337566 C-400.02692853 36.27143809 -446.86887949 35.7609849 -493.70907581 35.07202709 C-493.70907581 34.74202709 -493.70907581 34.41202709 -493.70907581 34.07202709 C-477.55359159 33.08866755 -461.40233121 32.79334953 -445.22137654 32.58526185 C-442.9803407 32.55610983 -440.73932537 32.52569386 -438.49831188 32.49487364 C-427.77461829 32.34739509 -417.05081188 32.2103425 -406.3269304 32.07729694 C-403.70063704 32.04457821 -401.07434925 32.01144256 -398.44806278 31.97817528 C-341.76480238 31.26091176 -285.08408615 30.84555054 -228.39657581 30.69312084 C-227.07122971 30.68953314 -227.07122971 30.68953314 -225.71910894 30.68587297 C-202.55622218 30.62349694 -179.393312 30.57618592 -156.23038024 30.53428451 C-144.28317137 30.51266645 -132.3359665 30.48940254 -120.38876331 30.46484935 C-119.46525683 30.46295321 -118.54175036 30.46105706 -117.59025884 30.45910346 C-102.17968555 30.42731453 -86.76912281 30.39167011 -71.3585633 30.35380787 C-62.01621372 30.33108069 -52.67387088 30.31202322 -43.33150387 30.29814113 C-37.02687658 30.28860352 -30.72226179 30.27576011 -24.41764617 30.26033228 C-20.8056557 30.25162814 -17.19368045 30.24449028 -13.58168018 30.24169147 C9.3551637 31.72178424 9.3551637 31.72178424 31.29092419 27.07202709 C31.62092419 26.41202709 31.95092419 25.75202709 32.29092419 25.07202709 C31.7212898 25.05748768 31.15165541 25.04294828 30.56475937 25.02796829 C16.57772431 24.67083677 2.59074239 24.31168038 -11.39618576 23.95038497 C-18.16069582 23.77569812 -24.92522105 23.60164825 -31.6897887 23.42920482 C-38.23863827 23.26219179 -44.78743984 23.09339591 -51.33621395 22.92345035 C-53.81355769 22.8594583 -56.29091711 22.79606963 -58.76829326 22.73334491 C-69.74361793 22.45511226 -80.71524065 22.17631594 -91.68312252 21.67901218 C-108.23253004 20.93619617 -124.77825071 20.85188367 -141.34100449 20.76870406 C-145.59033628 20.74643916 -149.83963693 20.71925376 -154.08894336 20.69264781 C-162.09210215 20.64325637 -170.09527872 20.59812507 -178.09847146 20.55462545 C-187.22828147 20.50478733 -196.35806017 20.45004602 -205.4878397 20.39494586 C-224.22822251 20.28195076 -242.96863506 20.17494082 -261.70907581 20.07202709 C-261.70907581 19.74202709 -261.70907581 19.41202709 -261.70907581 19.07202709 C-236.79119554 18.5027691 -211.87491949 18.01132837 -186.95126331 17.79077709 C-185.87457637 17.78122997 -184.79788944 17.77168285 -183.68857563 17.76184642 C-175.98710653 17.6946348 -168.28559684 17.63294194 -160.58407581 17.57202709 C-151.8314439 17.50221922 -143.0788407 17.4296232 -134.32626331 17.35327709 C-133.22140205 17.34378725 -132.11654079 17.3342974 -130.97819889 17.32451999 C-114.05534107 17.17624616 -97.13579866 16.9222937 -80.21490467 16.628353 C-56.95671823 16.22542154 -33.70427749 15.98196802 -10.44273412 15.90408456 C-6.7312452 15.89110499 -3.01976771 15.87548531 0.69171154 15.86002147 C3.65186538 15.84791364 6.61201969 15.83592544 9.57217419 15.82398021 C10.30337058 15.8210146 11.03456697 15.81804898 11.78792083 15.8149935 C20.09068254 15.78174249 28.39337367 15.75623655 36.69619763 15.74609935 C43.48532222 15.73773005 50.27424199 15.71538495 57.06326389 15.67674369 C60.60440348 15.65714608 64.14523851 15.64452855 67.68643582 15.64957798 C71.56799035 15.65506166 75.44900903 15.62992083 79.33047497 15.60205638 C80.47587246 15.60865779 81.62126996 15.6152592 82.80137646 15.62206066 C88.94260895 15.58253394 88.94260895 15.58253394 94.47595227 13.16390026 C96.32873186 11.20338334 96.32873186 11.20338334 97.29092419 9.07202709 C96.52513043 9.0766093 95.75933667 9.08119152 94.97033703 9.08591259 C79.03231292 9.16710693 63.10763838 9.08863201 47.17373669 8.70483959 C46.3740465 8.68566164 45.57435631 8.66648368 44.75043309 8.64672458 C40.4668396 8.54335652 36.18330386 8.43774273 31.89978039 8.33151805 C-18.28464815 7.09336842 -68.47612805 6.44083195 -118.67088592 5.7992295 C-124.71698115 5.72186332 -130.76306877 5.64391002 -136.80915153 5.56557548 C-138.28238143 5.54649505 -139.75561179 5.52744997 -141.22884262 5.50844085 C-168.72488718 5.15330435 -196.21704368 4.66539385 -223.70907581 4.07202709 C-223.70907581 3.74202709 -223.70907581 3.41202709 -223.70907581 3.07202709 C-208.7884781 0.69665639 -193.19562582 1.44015566 -178.11364353 1.1404742 C-174.85973956 1.07505611 -171.60589499 1.00719008 -168.35205066 0.93887889 C-112.2397593 -0.21847116 -56.12139207 -0.0483507 0 0 Z " fill="#FCEEDB" transform="translate(575.7090758085251,159.9279729127884)"/>
<path d="M0 0 C6.45767685 6.45767685 12.53426219 13.12634147 18.25 20.25 C22.52162946 25.55349732 27.11705019 30.5002059 31.83496094 35.40527344 C36 39.7888715 36 39.7888715 36 42 C36.66 42 37.32 42 38 42 C38.33 123.51 38.66 205.02 39 289 C36.69 289 34.38 289 32 289 C32 225.97 32 162.94 32 98 C31.34 98 30.68 98 30 98 C30 161.03 30 224.06 30 289 C27.69 289 25.38 289 23 289 C23 222.34 23 155.68 23 87 C22.34 87 21.68 87 21 87 C21 153.66 21 220.32 21 289 C18.03 289 15.06 289 12 289 C12 218.71 12 148.42 12 76 C11.34 76 10.68 76 10 76 C10 146.29 10 216.58 10 289 C6.7 289 3.4 289 0 289 C0 193.63 0 98.26 0 0 Z " fill="#FDE3FD" transform="translate(367,452)"/>
<path d="M0 0 C3.48429289 0.69685858 5.69401153 1.15682263 8.7487793 2.56640625 C9.78961922 3.04194946 9.78961922 3.04194946 10.85148621 3.52709961 C11.58498795 3.86878174 12.31848969 4.21046387 13.07421875 4.5625 C14.22178398 5.08952515 14.22178398 5.08952515 15.39253235 5.62719727 C17.82651991 6.746482 20.25700192 7.87316114 22.6875 9 C24.33376257 9.75829422 25.9802447 10.51611199 27.62695312 11.2734375 C39.25336579 16.6266829 39.25336579 16.6266829 42 18 C42 79.05 42 140.1 42 203 C28.14 203 14.28 203 0 203 C0 136.01 0 69.02 0 0 Z " fill="#727797" transform="translate(616,703)"/>
<path d="M0 0 C0.99 0.495 0.99 0.495 2 1 C1.67 67.99 1.34 134.98 1 204 C-65 204 -131 204 -199 204 C-199 203.67 -199 203.34 -199 203 C-145.87 203 -92.74 203 -38 203 C-38 142.94 -38 82.88 -38 21 C-24.14 13.575 -24.14 13.575 -10 6 C-6.7 4.02 -3.4 2.04 0 0 Z " fill="#A1A2B9" transform="translate(615,702)"/>
<path d="M0 0 C0 0.33 0 0.66 0 1 C-23.1 1 -46.2 1 -70 1 C-70 38.62 -70 76.24 -70 115 C-87.82 115 -105.64 115 -124 115 C-124.56152333 95.3957053 -124.56152333 95.3957053 -124.68359375 87.00195312 C-124.76712162 81.28565281 -124.86561252 75.57250777 -125.05615234 69.85864258 C-125.20892313 65.24823164 -125.29209853 60.64120308 -125.3282814 56.02845573 C-125.35404131 54.27417656 -125.40435804 52.52007172 -125.48022079 50.76724434 C-126.03592702 37.38842032 -126.03592702 37.38842032 -122.67833519 33.44950676 C-118.84678739 30.25721239 -114.43503025 28.22106441 -110 26 C-107.7534185 24.33862725 -107.7534185 24.33862725 -105.95727539 22.59155273 C-105.12740112 21.81195946 -105.12740112 21.81195946 -104.28076172 21.01661682 C-103.72533691 20.49421921 -103.16991211 19.97182159 -102.59765625 19.43359375 C-72.23844536 -6.84040185 -37.74715396 -2.71440315 0 0 Z " fill="#7F84A4" transform="translate(1024,454)"/>
<path d="M0 0 C4.94612355 2.47306177 9.33689899 4.77804337 13 9 C14.28621651 13.04432354 14.17966052 16.90061004 14.08229065 21.11705017 C14.08998047 22.3358462 14.0976703 23.55464222 14.10559314 24.81037146 C14.11783449 28.18259038 14.08981493 31.55008167 14.04459059 34.9217273 C14.00564962 38.56103538 14.01888187 42.20020278 14.02571106 45.83966064 C14.03042572 52.14122401 14.00223843 58.44194741 13.95157051 64.74329948 C13.87836259 73.85379488 13.8549812 82.96388496 13.84367859 92.07464261 C13.82399077 106.85671388 13.76412373 121.63833766 13.67895508 136.42016602 C13.59631799 150.77756514 13.53262507 165.13484264 13.49438477 179.49243164 C13.49202025 180.37773026 13.48965574 181.26302888 13.48721958 182.17515474 C13.47547407 186.61652869 13.46410074 191.05790351 13.45291245 195.4992789 C13.35964266 232.33317161 13.2004817 269.16654371 13 306 C8.71 306 4.42 306 0 306 C0 205.02 0 104.04 0 0 Z " fill="#B3B4C5" transform="translate(315,599)"/>
<path d="M0 0 C3.02923358 4.03897811 5.96359655 8.13782278 8.88867188 12.25195312 C9.50645508 13.11916992 9.50645508 13.11916992 10.13671875 14.00390625 C10.78918579 14.96731934 10.78918579 14.96731934 11.45483398 15.95019531 C12.97590877 18.08673025 12.97590877 18.08673025 15.07836914 19.96386719 C24.34997062 29.7373915 22.14127704 43.53725895 22.0625 56.125 C22.07918612 58.6198175 22.09933553 61.11461438 22.12304688 63.609375 C22.15201661 68.13835465 22.17396622 72.66676928 22.14868164 77.19580078 C22.14453751 78.10194122 22.14039337 79.00808167 22.13612366 79.94168091 C22 82 22 82 21 83 C20.87504973 85.463493 20.81397797 87.90036767 20.79467773 90.36547852 C20.77982834 91.52149567 20.77982834 91.52149567 20.76467896 92.7008667 C20.73297299 95.26018147 20.7082708 97.81951483 20.68359375 100.37890625 C20.66303206 102.14868159 20.64203581 103.91845194 20.62062073 105.68821716 C20.56531891 110.3554582 20.51594554 115.02274414 20.46777344 119.69006348 C20.41761747 124.44901546 20.36190066 129.20790191 20.30664062 133.96679688 C20.1989599 143.31114411 20.09805071 152.65554675 20 162 C13.07 162 6.14 162 -1 162 C-0.67 108.54 -0.34 55.08 0 0 Z " fill="#FDFCFC" transform="translate(879,407)"/>
<path d="M0 0 C3 3 3 3 3.36618346 5.50138921 C3.36200654 6.50878724 3.35782961 7.51618528 3.35352612 8.55411053 C3.35726074 10.29780124 3.35726074 10.29780124 3.36107081 12.07671803 C3.34844134 13.35977434 3.33581187 14.64283065 3.32279968 15.96476746 C3.31997859 17.3367883 3.3184794 18.7088124 3.31819278 20.08083612 C3.31355824 23.85951731 3.29009698 27.63788649 3.26365387 31.41646945 C3.23842664 35.48799676 3.23052723 39.55956122 3.22055054 43.63114929 C3.20087398 50.68824288 3.17015676 57.74521967 3.13199425 64.80223656 C3.07683323 75.00555385 3.03823983 85.20888054 3.003723 95.41228608 C2.94727384 111.96558958 2.87737849 128.51880802 2.79907227 145.07202148 C2.72302227 161.15435478 2.65327695 177.23669497 2.59204102 193.3190918 C2.58637827 194.80543334 2.58637827 194.80543334 2.58060112 196.32180198 C2.5617017 201.29270135 2.54292655 206.26360117 2.52421319 211.23450124 C2.36874361 252.48975683 2.1912479 293.74489588 2 335 C6.62 335 11.24 335 16 335 C16 229.07 16 123.14 16 14 C16.66 14.33 17.32 14.66 18 15 C18 120.6 18 226.2 18 335 C22.29 335 26.58 335 31 335 C31 233.36 31 131.72 31 27 C31.99 27.66 32.98 28.32 34 29 C34.36618346 31.21047795 34.36618346 31.21047795 34.35352612 34.02501106 C34.35601587 35.09491221 34.35850561 36.16481335 34.36107081 37.26713574 C34.34844134 38.45194023 34.33581187 39.63674473 34.32279968 40.85745239 C34.3212794 42.10872826 34.31975913 43.36000414 34.31819278 44.64919746 C34.31355363 48.13370828 34.29008109 51.61788166 34.26365387 55.1022861 C34.23844522 58.85548862 34.23053021 62.60873119 34.22055054 66.36199951 C34.20086637 72.86854037 34.17014387 79.37495474 34.13199425 85.88141251 C34.07685175 95.28872675 34.03824755 104.69605118 34.003723 114.10346101 C33.94726274 129.36509843 33.87736531 144.62664372 33.79907227 159.88818359 C33.72303147 174.71628316 33.65328514 189.54439021 33.59204102 204.37255859 C33.58637827 205.74280139 33.58637827 205.74280139 33.58060112 207.14072587 C33.56170181 211.72330998 33.54292663 216.30589459 33.52421319 220.88847947 C33.36872352 258.92574998 33.19122674 296.96289348 33 335 C37.29 335 41.58 335 46 335 C46 237.32 46 139.64 46 39 C46.33 39 46.66 39 47 39 C47 136.68 47 234.36 47 335 C49.64 335 52.28 335 55 335 C55 335.33 55 335.66 55 336 C30.25 336 5.5 336 -20 336 C-20 335.67 -20 335.34 -20 335 C-13.4 335 -6.8 335 0 335 C0 224.45 0 113.9 0 0 Z " fill="#9CA1B6" transform="translate(282,570)"/>
<path d="M0 0 C1.8362645 -0.00618599 1.8362645 -0.00618599 3.70962524 -0.01249695 C5.06828528 -0.00187955 6.42694309 0.00902487 7.78559875 0.02018738 C9.21459434 0.02103349 10.64359123 0.02055882 12.07258606 0.01885986 C15.95462989 0.01799785 19.83639659 0.0356568 23.71837592 0.05658174 C27.77428269 0.07531425 31.83019556 0.07709627 35.88613892 0.08065796 C43.5678237 0.08998852 51.24938066 0.11461593 58.93100911 0.14470643 C67.67575521 0.17821903 76.42050737 0.19472854 85.16530168 0.20979273 C103.15509887 0.24116464 121.14477702 0.29394473 139.13447571 0.36076355 C139.13447571 0.69076355 139.13447571 1.02076355 139.13447571 1.36076355 C91.61447571 1.36076355 44.09447571 1.36076355 -4.86552429 1.36076355 C-4.86552429 72.64076355 -4.86552429 143.92076355 -4.86552429 217.36076355 C-5.19552429 216.70076355 -5.52552429 216.04076355 -5.86552429 215.36076355 C-6.52552429 215.36076355 -7.18552429 215.36076355 -7.86552429 215.36076355 C-7.86552429 287.96076355 -7.86552429 360.56076355 -7.86552429 435.36076355 C-8.85552429 435.36076355 -9.84552429 435.36076355 -10.86552429 435.36076355 C-10.91127177 381.04860047 -10.94652826 326.73643933 -10.96765495 272.42426078 C-10.97015646 266.0166204 -10.97274509 259.60898005 -10.97538757 253.20133972 C-10.97591219 251.92565877 -10.97643681 250.64997781 -10.97697733 249.33563986 C-10.98568713 228.66229345 -11.00146027 207.98895813 -11.01982988 187.31561831 C-11.03851294 166.11317219 -11.04963764 144.91073189 -11.05370128 123.70827788 C-11.05644965 110.61836914 -11.0651396 97.52849173 -11.08135723 84.43859264 C-11.09190444 75.47031478 -11.09513006 66.5020532 -11.09252705 57.53376959 C-11.09124222 52.35452215 -11.09325359 47.17532959 -11.10393524 41.99609184 C-11.11363583 37.25810149 -11.11418004 32.52020315 -11.10732208 27.78220864 C-11.10647392 26.06476715 -11.10903797 24.34732002 -11.11529066 22.6298897 C-11.12327782 20.30135284 -11.11901432 17.9731513 -11.11161995 15.64461994 C-11.11237939 14.3493939 -11.11313883 13.05416785 -11.11392128 11.71969253 C-10.81779585 7.71535948 -9.91004646 4.84648971 -7.60711956 1.57081127 C-5.05724766 -0.20082117 -3.08582524 -0.00800128 0 0 Z " fill="#9096B2" transform="translate(703.8655242919922,469.6392364501953)"/>
<path d="M0 0 C0 129.69 0 259.38 0 393 C3.3 393 6.6 393 10 393 C10 393.33 10 393.66 10 394 C5.05 394 0.1 394 -5 394 C-5.09118481 344.38441087 -5.16200478 294.76883235 -5.20426132 245.15317591 C-5.20926434 239.3000338 -5.21444161 233.44689186 -5.21972656 227.59375 C-5.2207758 226.42845948 -5.22182505 225.26316896 -5.22290608 224.06256661 C-5.24032716 205.17651931 -5.27187421 186.29052054 -5.30861118 167.40450206 C-5.34597326 148.03607324 -5.36822582 128.66766988 -5.37635398 109.2992065 C-5.38185158 97.34089251 -5.39923596 85.3827157 -5.43166587 73.42444393 C-5.45275535 65.23220958 -5.4592127 57.04004648 -5.45400551 48.84778693 C-5.45143504 44.11617461 -5.45546721 39.38480254 -5.4768219 34.65323257 C-5.49621265 30.32537262 -5.49731903 25.99791567 -5.48359558 21.6700376 C-5.48189818 20.10065514 -5.48703572 18.53124807 -5.49953273 16.96191445 C-5.51549044 14.8350995 -5.50699484 12.70975622 -5.49219131 10.58296585 C-5.4937102 9.3997573 -5.49522908 8.21654875 -5.49679399 6.9974854 C-5.02837529 4.1712068 -3.56269422 0 0 0 Z " fill="#8289AA" transform="translate(663,512)"/>
<path d="M0 0 C0.66 0 1.32 0 2 0 C2 138.27 2 276.54 2 419 C1.01 419 0.02 419 -1 419 C-1.17315497 365.91074071 -1.33581558 312.82145825 -1.48431293 259.73212395 C-1.50183557 253.47082981 -1.5194455 247.20953593 -1.53710938 240.94824219 C-1.54062461 239.70168045 -1.54413985 238.45511871 -1.5477616 237.17078237 C-1.60496051 216.96098563 -1.66923804 196.75121724 -1.736111 176.54145046 C-1.80452265 155.81929186 -1.86537506 135.09712111 -1.91914403 114.3749193 C-1.95258844 101.57826133 -1.99199736 88.78164982 -2.03892837 75.98503409 C-2.07050483 67.22143543 -2.09476861 58.45783597 -2.11317255 49.69419982 C-2.12402533 44.63075146 -2.13820676 39.56736747 -2.16103554 34.50395775 C-2.18183331 29.87531901 -2.1935216 25.24675313 -2.19772999 20.61807041 C-2.20090854 18.93701274 -2.20753191 17.25595761 -2.21781154 15.57492836 C-2.23122028 13.30270223 -2.23247053 11.03079605 -2.23047829 8.7585392 C-2.23427549 7.49255162 -2.23807269 6.22656404 -2.24198496 4.9222132 C-2 2 -2 2 0 0 Z " fill="#99A1BB" transform="translate(684,486)"/>
<path d="M0 0 C0.33 0 0.66 0 1 0 C1 134.97 1 269.94 1 409 C0.01 409 -0.98 409 -2 409 C-2.0457332 357.18465361 -2.08099668 305.36930924 -2.10213066 253.55394665 C-2.10463221 247.44286544 -2.10722084 241.33178427 -2.10986328 235.22070312 C-2.1103879 234.00404753 -2.11091252 232.78739194 -2.11145304 231.533868 C-2.12016625 211.80907401 -2.13594124 192.08429163 -2.15430559 172.35950454 C-2.17297921 152.13453366 -2.18411134 131.90956888 -2.18817699 111.68458974 C-2.19092733 99.1950417 -2.19962787 86.70552645 -2.21583293 74.2159885 C-2.22636853 65.66262123 -2.22960844 57.10927102 -2.22700275 48.55589773 C-2.2257161 43.61397716 -2.22774982 38.67211409 -2.23841095 33.73020363 C-2.24808616 29.21256912 -2.24867256 24.6950312 -2.24179779 20.17739241 C-2.24094712 18.53671971 -2.24353258 16.89604118 -2.24976636 15.25538011 C-2.25770797 13.03758783 -2.25351863 10.82015144 -2.24609566 8.60236549 C-2.2468551 7.36675554 -2.24761454 6.13114558 -2.24839699 4.8580929 C-2 2 -2 2 0 0 Z " fill="#999FBB" transform="translate(675,496)"/>
<path d="M0 0 C0.33 0 0.66 0 1 0 C1 131.01 1 262.02 1 397 C0.01 397 -0.98 397 -2 397 C-2.04573351 346.71338283 -2.08099684 296.42676775 -2.10213066 246.14013389 C-2.10463221 240.20930798 -2.10722084 234.2784821 -2.10986328 228.34765625 C-2.1103879 227.16688804 -2.11091252 225.98611982 -2.11145304 224.76957075 C-2.12016617 205.62676396 -2.13594112 186.48396912 -2.15430559 167.34116943 C-2.17297942 147.71284513 -2.18411138 128.08452711 -2.18817699 108.45619428 C-2.19092729 96.33515939 -2.19962759 84.21415829 -2.21583293 72.09313379 C-2.22636878 63.79206381 -2.22960838 55.49101141 -2.22700275 47.18993522 C-2.22571614 42.39383316 -2.22774937 37.59779033 -2.23841095 32.80169868 C-2.24808672 28.41729369 -2.24867219 24.03298821 -2.24179779 19.64857881 C-2.24094717 18.05635795 -2.24353217 16.46413109 -2.24976636 14.87192221 C-2.25770899 12.71947612 -2.25351802 10.56739663 -2.24609566 8.41495705 C-2.2468551 7.21580024 -2.24761454 6.01664344 -2.24839699 4.78114855 C-2 2 -2 2 0 0 Z " fill="#969BB7" transform="translate(665,508)"/>
<path d="M0 0 C0.33 0 0.66 0 1 0 C1 3.96 1 7.92 1 12 C-13.85 12 -28.7 12 -44 12 C-44 10.02 -44 8.04 -44 6 C-29.48 6 -14.96 6 0 6 C0 4.02 0 2.04 0 0 Z " fill="#F7E6D9" transform="translate(44,382)"/>
<path d="M0 0 C10.23714784 5.14227102 17.09802387 11.14101714 23 21 C22.67 21.66 22.34 22.32 22 23 C21.5875 22.41992188 21.175 21.83984375 20.75 21.2421875 C14.67768007 13.02829046 8.20606763 8.27424569 -1 4 C-0.67 2.68 -0.34 1.36 0 0 Z " fill="#C9C4CA" transform="translate(750,163)"/>
<path d="M0 0 C-0.99 1.485 -0.99 1.485 -2 3 C-4.7885289 3.22107787 -7.34653181 3.28107535 -10.125 3.1875 C-10.87910156 3.17396484 -11.63320313 3.16042969 -12.41015625 3.14648438 C-14.27374127 3.11109985 -16.13695978 3.05729167 -18 3 C-18 2.67 -18 2.34 -18 2 C-16.12612523 1.6603981 -14.25083303 1.32861309 -12.375 1 C-11.33085937 0.814375 -10.28671875 0.62875 -9.2109375 0.4375 C-6.09425135 0.01284203 -3.14069188 -0.07545206 0 0 Z " fill="#979AB7" transform="translate(456,236)"/>
</svg>
