<?xml version="1.0" encoding="UTF-8"?>
<svg version="1.1" xmlns="http://www.w3.org/2000/svg" width="1024" height="1024">
<path d="M0 0 C337.92 0 675.84 0 1024 0 C1024 337.92 1024 675.84 1024 1024 C686.08 1024 348.16 1024 0 1024 C0 686.08 0 348.16 0 0 Z " fill="#D5DEE8" transform="translate(0,0)"/>
<path d="M0 0 C1.29349365 0.00523682 2.5869873 0.01047363 3.91967773 0.01586914 C4.9496714 0.01799156 4.9496714 0.01799156 6.00047302 0.02015686 C8.20144949 0.0257706 10.40232557 0.03832532 12.60327148 0.05102539 C14.09220231 0.05603863 15.58113473 0.06060184 17.07006836 0.06469727 C20.72703954 0.07489518 24.38379265 0.0944676 28.04077148 0.11352539 C28.04077148 10.01352539 28.04077148 19.91352539 28.04077148 30.11352539 C30.53639648 29.28852539 33.03202148 28.46352539 35.60327148 27.61352539 C52.65658381 22.59878176 69.54199356 23.91264241 86.04077148 30.11352539 C79.55945848 37.9243385 72.49432412 45.02346204 64.76733398 51.60571289 C64.19756836 52.10329102 63.62780273 52.60086914 63.04077148 53.11352539 C62.52431281 53.54096889 62.00785414 53.96841238 61.4757452 54.40880871 C56.51143008 60.30630405 58.9471195 74.320057 59.01904297 81.58105469 C59.02921062 83.00137514 59.0389015 84.42169907 59.04815674 85.84202576 C59.07438915 89.66361515 59.10721648 93.48512172 59.14130664 97.30664802 C59.1758988 101.31311174 59.20431661 105.31961937 59.2334137 109.3261261 C59.2893279 116.89773172 59.35072511 124.46928237 59.41413504 132.04082853 C59.48610911 140.66724773 59.55190556 149.29371068 59.6172055 157.92018259 C59.75156267 175.65135385 59.89360496 193.38245605 60.04077148 211.11352539 C60.57766602 210.6391655 61.11456055 210.1648056 61.66772461 209.67607117 C62.37864258 209.05045792 63.08956055 208.42484467 63.82202148 207.78027344 C64.52391602 207.16153854 65.22581055 206.54280365 65.94897461 205.90531921 C68.8637495 203.40857792 71.92095145 201.15716681 75.04077148 198.92602539 C79.22467158 195.90351548 83.38989811 192.86393008 87.49780273 189.73852539 C88.22547852 189.18575928 88.9531543 188.63299316 89.70288086 188.06347656 C91.11713355 186.98657002 92.52867923 185.90609752 93.93725586 184.82177734 C98.82000316 181.11352539 98.82000316 181.11352539 101.04077148 181.11352539 C101.37077148 126.66352539 101.70077148 72.21352539 102.04077148 16.11352539 C160.45077148 16.11352539 218.86077148 16.11352539 279.04077148 16.11352539 C279.04077148 147.45352539 279.04077148 278.79352539 279.04077148 414.11352539 C217.59889648 414.34040039 156.15702148 414.56727539 92.85327148 414.80102539 C73.44619385 414.90116943 54.03911621 415.00131348 34.04394531 415.10449219 C10.36242676 415.1541748 10.36242676 415.1541748 -0.72065735 415.16340637 C-8.46879282 415.17366315 -16.21605551 415.21400524 -23.96394348 415.27485657 C-32.90302706 415.34495946 -41.84127382 415.37670207 -50.78063424 415.36141985 C-55.35232677 415.35480245 -59.92215005 415.36516775 -64.49349821 415.42489183 C-68.63377752 415.47865394 -72.77087704 415.48095004 -76.91130638 415.44343758 C-78.40201721 415.43879974 -79.89293217 415.45252359 -81.38324606 415.48723376 C-90.97581631 415.69738505 -96.83205358 413.74257942 -103.80895219 407.22494365 C-105.20267684 405.86494617 -106.58155427 404.48977943 -107.95922852 403.11352539 C-109.19560605 402.08111314 -110.44795851 401.06684406 -111.72875977 400.09008789 C-118.65482135 394.73772708 -125.48350931 389.27856261 -132.26782227 383.74780273 C-135.92213211 380.76886217 -139.58500646 377.80238624 -143.27172852 374.86352539 C-157.7864344 363.28631951 -157.7864344 363.28631951 -159.95922852 361.11352539 C-160.05504673 359.582667 -160.0811096 358.04738783 -160.07948303 356.51353455 C-160.0808577 355.5192897 -160.08223236 354.52504486 -160.08364868 353.50067139 C-160.08005341 352.40087952 -160.07645813 351.30108765 -160.07275391 350.16796875 C-160.07289993 349.0169014 -160.07304596 347.86583405 -160.07319641 346.67988586 C-160.07249669 342.85436148 -160.06470154 339.02888508 -160.05688477 335.20336914 C-160.0550208 332.55920946 -160.05359679 329.91504943 -160.05259705 327.27088928 C-160.04948401 321.00937122 -160.04127099 314.74787053 -160.03124756 308.48636013 C-160.02008556 301.35951002 -160.01457575 294.23265909 -160.00955212 287.10580242 C-159.99908836 272.44169982 -159.98074322 257.77761606 -159.95922852 243.11352539 C-152.69922852 243.11352539 -145.43922852 243.11352539 -137.95922852 243.11352539 C-137.96144913 241.28664688 -137.96366974 239.45976837 -137.96595764 237.57752991 C-137.98618415 220.40409856 -138.00125824 203.23066962 -138.01104069 186.05722904 C-138.0162039 177.22711268 -138.02324709 168.3970052 -138.03466797 159.56689453 C-138.04461403 151.87340474 -138.05108176 144.17992138 -138.05331701 136.48642534 C-138.05462425 132.41022887 -138.05771094 128.33405078 -138.06495857 124.25786018 C-138.07171756 120.42564784 -138.07384573 116.59346155 -138.0723362 112.76124382 C-138.07261258 111.35067478 -138.07461843 109.94010492 -138.07843399 108.52954102 C-138.08336926 106.6118685 -138.08162653 104.69418218 -138.07948303 102.77650452 C-138.08040483 101.7007721 -138.08132662 100.62503969 -138.08227634 99.51670933 C-137.95922852 97.11352539 -137.95922852 97.11352539 -136.95922852 96.11352539 C-135.03255344 96.02604332 -133.10270991 96.00655205 -131.17407227 96.01586914 C-129.41933594 96.02070312 -129.41933594 96.02070312 -127.62915039 96.02563477 C-126.39745117 96.03401367 -125.16575195 96.04239258 -123.89672852 96.05102539 C-122.04337891 96.05779297 -122.04337891 96.05779297 -120.15258789 96.06469727 C-117.08808735 96.07652931 -114.0236813 96.09301366 -110.95922852 96.11352539 C-110.95922852 93.80352539 -110.95922852 91.49352539 -110.95922852 89.11352539 C-106.00922852 89.11352539 -101.05922852 89.11352539 -95.95922852 89.11352539 C-95.95922852 90.43352539 -95.95922852 91.75352539 -95.95922852 93.11352539 C-91.00922852 93.11352539 -86.05922852 93.11352539 -80.95922852 93.11352539 C-80.95922852 90.47352539 -80.95922852 87.83352539 -80.95922852 85.11352539 C-80.29922852 85.11352539 -79.63922852 85.11352539 -78.95922852 85.11352539 C-78.46422852 83.13352539 -78.46422852 83.13352539 -77.95922852 81.11352539 C-67.56422852 80.61852539 -67.56422852 80.61852539 -56.95922852 80.11352539 C-56.95665039 77.17446289 -56.95407227 74.23540039 -56.95141602 71.20727539 C-56.92855991 68.3409326 -56.89554799 65.47487262 -56.86157227 62.60864258 C-56.84347448 60.62628917 -56.83583241 58.64381025 -56.83911133 56.66137695 C-56.84198638 53.80070053 -56.80648736 50.94259402 -56.76391602 48.08227539 C-56.77300995 47.20486694 -56.78210388 46.3274585 -56.79147339 45.42346191 C-56.63597264 38.74597305 -54.50106104 34.94937696 -49.95922852 30.11352539 C-39.48259219 20.44957924 -25.97422335 16.89800002 -12.08422852 17.05102539 C-11.30047852 17.05553711 -10.51672852 17.06004883 -9.70922852 17.06469727 C-7.79252837 17.07638446 -5.87586803 17.09431631 -3.95922852 17.11352539 C-3.97083008 15.97012695 -3.98243164 14.82672852 -3.99438477 13.64868164 C-4.00376139 12.15779785 -4.01286173 10.6669123 -4.02172852 9.17602539 C-4.03010742 8.4212793 -4.03848633 7.6665332 -4.04711914 6.88891602 C-4.05575292 4.96358226 -4.01147184 3.03816958 -3.95922852 1.11352539 C-2.95922852 0.11352539 -2.95922852 0.11352539 0 0 Z " fill="#AFD8ED" transform="translate(744.959228515625,609.886474609375)"/>
<path d="M0 0 C28.71 0 57.42 0 87 0 C87 16.5 87 33 87 50 C105.81 50 124.62 50 144 50 C144 180.02 144 310.04 144 444 C54.57 444 -34.86 444 -127 444 C-127 313.65 -127 183.3 -127 49 C-85.09 49 -43.18 49 0 49 C0 32.83 0 16.66 0 0 Z " fill="#5895CA" transform="translate(127,580)"/>
<path d="M0 0 C58.41 0 116.82 0 177 0 C177 131.34 177 262.68 177 398 C118.59 398 60.18 398 0 398 C0 266.66 0 135.32 0 0 Z " fill="#162848" transform="translate(847,626)"/>
<path d="M0 0 C0.85722656 0.68449219 1.71445312 1.36898437 2.59765625 2.07421875 C3.20512695 2.51862305 3.81259766 2.96302734 4.43847656 3.42089844 C7.51625734 5.97606672 9.32992732 7.8982891 10.2331543 11.86547852 C10.47765291 15.16092816 10.5155601 18.39515064 10.47265625 21.69921875 C10.50276132 24.02475469 10.53399845 26.35027626 10.56640625 28.67578125 C10.57220703 30.33528809 10.57220703 30.33528809 10.578125 32.02832031 C10.60182693 35.72463575 10.74053655 39.38517345 10.97265625 43.07421875 C11.02164063 44.02296875 11.070625 44.97171875 11.12109375 45.94921875 C11.42715216 48.45924337 11.42715216 48.45924337 14.59765625 50.07421875 C14.59765625 46.11421875 14.59765625 42.15421875 14.59765625 38.07421875 C19.67349471 39.08938644 20.46641027 39.44431487 23.78515625 42.94921875 C24.45933594 43.64789062 25.13351562 44.3465625 25.828125 45.06640625 C27.59765625 47.07421875 27.59765625 47.07421875 29.59765625 50.07421875 C32.63939519 50.24092148 32.63939519 50.24092148 35.59765625 50.07421875 C36.59765625 51.07421875 36.59765625 51.07421875 36.6953125 52.921875 C36.66276042 54.97265625 36.63020833 57.0234375 36.59765625 59.07421875 C37.25765625 59.07421875 37.91765625 59.07421875 38.59765625 59.07421875 C38.58605469 58.43355469 38.57445312 57.79289063 38.5625 57.1328125 C38.50882506 51.98768653 38.71596047 47.14396951 39.59765625 42.07421875 C40.91765625 41.74421875 42.23765625 41.41421875 43.59765625 41.07421875 C43.6234375 40.44773437 43.64921875 39.82125 43.67578125 39.17578125 C43.76085937 37.94988281 43.76085937 37.94988281 43.84765625 36.69921875 C43.8940625 35.88710938 43.94046875 35.075 43.98828125 34.23828125 C44.189375 33.52414062 44.39046875 32.81 44.59765625 32.07421875 C45.91765625 31.41421875 47.23765625 30.75421875 48.59765625 30.07421875 C48.92765625 17.86421875 49.25765625 5.65421875 49.59765625 -6.92578125 C49.92765625 -6.92578125 50.25765625 -6.92578125 50.59765625 -6.92578125 C50.59765625 5.61421875 50.59765625 18.15421875 50.59765625 31.07421875 C51.58765625 31.07421875 52.57765625 31.07421875 53.59765625 31.07421875 C53.59765625 34.70421875 53.59765625 38.33421875 53.59765625 42.07421875 C55.24765625 42.07421875 56.89765625 42.07421875 58.59765625 42.07421875 C58.59765625 43.72421875 58.59765625 45.37421875 58.59765625 47.07421875 C59.58765625 47.07421875 60.57765625 47.07421875 61.59765625 47.07421875 C61.59765625 51.69421875 61.59765625 56.31421875 61.59765625 61.07421875 C69.18765625 61.07421875 76.77765625 61.07421875 84.59765625 61.07421875 C84.59765625 122.12421875 84.59765625 183.17421875 84.59765625 246.07421875 C91.19765625 246.07421875 97.79765625 246.07421875 104.59765625 246.07421875 C105.02886954 256.78436982 105.37650433 267.48866442 105.58208752 278.20556831 C105.68082011 283.18348375 105.81437062 288.15510438 106.03100586 293.12939453 C107.51077605 328.00544697 107.51077605 328.00544697 100.578125 335.65380859 C96.72381732 338.85996623 92.64347344 341.01354679 88.03462219 342.93899536 C83.97450903 344.83033711 80.67421387 347.63339071 77.22265625 350.44921875 C75.83885562 351.51811145 74.45244641 352.58364258 73.0625 353.64453125 C72.3494873 354.19270508 71.63647461 354.74087891 70.90185547 355.30566406 C66.5374818 358.65547577 62.16115934 361.98962211 57.78515625 365.32421875 C56.89489746 366.00282959 56.00463867 366.68144043 55.08740234 367.38061523 C49.27471234 371.80760243 43.44311087 376.20761623 37.58203125 380.5703125 C35.7032414 381.92315037 35.7032414 381.92315037 34.59765625 383.07421875 C33.12411277 383.16725893 31.64615034 383.1916814 30.16967773 383.18774414 C29.22877792 383.18766861 28.28787811 383.18759308 27.31846619 383.18751526 C26.29555984 383.18235397 25.2726535 383.17719269 24.21875 383.171875 C22.65605125 383.16975258 22.65605125 383.16975258 21.06178284 383.16758728 C17.71954531 383.16196955 14.37737368 383.14941405 11.03515625 383.13671875 C8.77539159 383.13170603 6.51562588 383.12714273 4.25585938 383.12304688 C-1.29689766 383.11199436 -6.849616 383.09523899 -12.40234375 383.07421875 C-12.39868274 381.96642611 -12.39868274 381.96642611 -12.39494777 380.83625382 C-12.25178215 337.05414891 -12.17119362 293.27231154 -12.17174207 249.4899605 C-12.17175387 244.23166955 -12.17124343 238.97337877 -12.17041016 233.71508789 C-12.17025305 232.66826752 -12.17009594 231.62144715 -12.16993406 230.54290495 C-12.16614585 213.59817392 -12.12006188 196.65380893 -12.0583156 179.7092013 C-11.9958893 162.3192912 -11.97898837 144.92976542 -12.00424886 127.53975946 C-12.01840148 116.81095055 -11.9971486 106.08341601 -11.93044159 95.35480014 C-11.88808621 87.99530985 -11.88999779 80.63665539 -11.92649701 73.27713718 C-11.94625017 69.03198471 -11.94669971 64.78917777 -11.89450264 60.54424858 C-11.84707511 56.65204993 -11.85563494 52.76400954 -11.90748921 48.87190441 C-11.91651775 47.46927396 -11.90553798 46.06633079 -11.87179074 44.6640773 C-11.73564408 38.6095581 -11.82086396 33.47397639 -16.03764391 28.85683215 C-18.97523583 26.01224467 -22.15717899 23.55681469 -25.40234375 21.07421875 C-26.70451907 19.85476154 -27.99178377 18.61845197 -29.24316406 17.34692383 C-29.78281799 16.80719437 -30.32247192 16.2674649 -30.878479 15.71138 C-31.40713562 15.1775621 -31.93579224 14.6437442 -32.48046875 14.09375 C-33.06278259 13.51002121 -33.64509644 12.92629242 -34.24505615 12.32487488 C-36.04991319 10.51455439 -37.85120615 8.70073898 -39.65234375 6.88671875 C-40.8981993 5.63583042 -42.14429188 4.38517813 -43.390625 3.13476562 C-46.39725848 0.11728515 -49.40070904 -2.90332855 -52.40234375 -5.92578125 C-38.25475512 -15.357507 -12.92834767 -8.46181868 0 0 Z " fill="#ADD9EE" transform="translate(327.40234375,640.92578125)"/>
<path d="M0 0 C14.52 0 29.04 0 44 0 C44 51.48 44 102.96 44 156 C44.99 156 45.98 156 47 156 C47 122.01 47 88.02 47 53 C51.62 53 56.24 53 61 53 C61 54.65 61 56.3 61 58 C68.59 58 76.18 58 84 58 C84 85.39 84 112.78 84 141 C90.6 141 97.2 141 104 141 C104 126.81 104 112.62 104 98 C107.63 98 111.26 98 115 98 C115.495 74.735 115.495 74.735 116 51 C123.92 51 131.84 51 140 51 C140 84 140 117 140 151 C140.99 151 141.98 151 143 151 C143 108.43 143 65.86 143 22 C157.19 22 171.38 22 186 22 C186 32.89 186 43.78 186 55 C180.39 55 174.78 55 169 55 C168.87573729 70.22993805 168.81008545 85.45913417 168.82121754 100.68955898 C168.82492637 107.76218688 168.8082614 114.83365097 168.74291992 121.90600586 C168.67989326 128.73409942 168.67458931 135.56031615 168.70416832 142.38862801 C168.70606889 144.99091345 168.68876665 147.59328741 168.65177345 150.19531059 C167.66850365 164.0668003 167.66850365 164.0668003 172.35531616 176.50076294 C175.14901282 178.81417514 177.77136385 180.37589359 181 182 C182.73883581 183.35764631 184.45164512 184.74991977 186.125 186.1875 C187.02863281 186.92613281 187.93226563 187.66476562 188.86328125 188.42578125 C191.24175388 190.37421232 193.61208449 192.33228932 195.98046875 194.29296875 C203.28111893 200.33241579 210.6143001 206.31336948 218.08178711 212.14550781 C221.87209204 215.10763694 225.63678479 218.09723641 229.375 221.125 C230.26960938 221.84945312 231.16421875 222.57390625 232.0859375 223.3203125 C233.03339844 224.15175781 233.03339844 224.15175781 234 225 C234 225.33 234 225.66 234 226 C138.96 226 43.92 226 -54 226 C-50.9520562 222.9520562 -48.32911902 220.33906507 -44.99609375 217.765625 C-44.26221436 217.19666504 -43.52833496 216.62770508 -42.7722168 216.04150391 C-42.00176025 215.45030762 -41.23130371 214.85911133 -40.4375 214.25 C-39.63030518 213.62657715 -38.82311035 213.0031543 -37.99145508 212.36083984 C-32.82150004 208.37584904 -27.62058147 204.43456199 -22.3828125 200.5390625 C-19.58886643 198.45279932 -16.82077002 196.33398621 -14.0546875 194.2109375 C-13.15210205 193.51919434 -12.2495166 192.82745117 -11.31958008 192.11474609 C-9.54411209 190.75291986 -7.77037165 189.38883688 -5.9987793 188.02197266 C-5.15484619 187.37534668 -4.31091309 186.7287207 -3.44140625 186.0625 C-2.62998672 185.4250032 -1.8185672 184.78750641 -0.9825592 184.13069153 C2 182 2 182 5.32281494 180.31141663 C11.75476074 176.91004421 11.75476074 176.91004421 15.7407093 171.07749557 C16.92034541 165.36078611 16.63919117 159.54929922 16.48828125 153.74609375 C16.48647008 151.87565306 16.49039975 150.00519882 16.49980164 148.13478088 C16.50913278 143.23581252 16.44100156 138.34093261 16.35620117 133.44281006 C16.2833855 128.4353086 16.28453991 123.42786931 16.27929688 118.41992188 C16.25821145 108.61159404 16.14837867 98.80722892 16 89 C10.72 89 5.44 89 0 89 C0 59.63 0 30.26 0 0 Z " fill="#AEDAEF" transform="translate(416,798)"/>
<path d="M0 0 C20.13 0 40.26 0 61 0 C61 15.51 61 31.02 61 47 C72.88 47 84.76 47 97 47 C97 124.88 97 202.76 97 283 C12 283 12 283 -1 272 C-3.25640664 270.1901982 -5.52374577 268.39371636 -7.8125 266.625 C-15.63922657 260.53618352 -23.32236933 254.27512185 -31 248 C-31.58604004 247.52127441 -32.17208008 247.04254883 -32.77587891 246.54931641 C-35.85271871 244.03547662 -38.92752339 241.51917044 -42 239 C-38.18120494 237.66007191 -34.89525562 238.20065853 -30.9375 238.75 C-29.70902344 238.90984375 -28.48054687 239.0696875 -27.21484375 239.234375 C-24.06008818 239.98568981 -22.81491081 240.36738212 -21 243 C-21 243.66 -21 244.32 -21 245 C-20.46375 245.20625 -19.9275 245.4125 -19.375 245.625 C-17 247 -17 247 -11 253 C-10.67 185.35 -10.34 117.7 -10 48 C-6.7 48 -3.4 48 0 48 C0 32.16 0 16.32 0 0 Z " fill="#5696CC" transform="translate(638,741)"/>
<path d="M0 0 C28.05 0 56.1 0 85 0 C85 16.17 85 32.34 85 49 C104.14 49 123.28 49 143 49 C143 179.02 143 309.04 143 443 C127.16 443 111.32 443 95 443 C95.02744293 438.55634476 95.05488586 434.11268951 95.0831604 429.53437805 C95.32658286 388.76460032 95.48047262 347.99525922 95.53699366 307.22477879 C95.5444859 301.87893667 95.55276228 296.53309604 95.56152344 291.18725586 C95.5641199 289.5908967 95.5641199 289.5908967 95.56676881 287.96228787 C95.59664878 270.74057785 95.69001866 253.51976955 95.80694492 236.29845569 C95.92554817 218.62148946 95.9757081 200.94527944 95.96262586 183.26791543 C95.95670445 172.36339018 96.00385979 161.46176751 96.11940096 150.55784168 C96.19356446 143.07568534 96.20110925 135.59528753 96.156855 128.11290244 C96.13328165 123.79753655 96.13851092 119.4874097 96.22307396 115.17269325 C97.20831398 98.5529703 97.20831398 98.5529703 92.22063208 83.36559081 C88.08335086 79.15384312 83.44936757 76.41294789 78.10040164 73.99467695 C75.27820079 72.65818107 72.91521207 70.88031387 70.47265625 68.94921875 C69.72870605 68.39967529 68.98475586 67.85013184 68.21826172 67.28393555 C67.50686035 66.75711182 66.79545898 66.23028809 66.0625 65.6875 C60.00808827 61.2136097 53.94080673 56.7603667 47.8359375 52.35546875 C46 51 46 51 45 50 C43.58882298 49.87790076 42.17179541 49.82229128 40.75561523 49.79467773 C39.84211304 49.77449585 38.92861084 49.75431396 37.98742676 49.73352051 C37.02091187 49.71704468 36.05439697 49.70056885 35.05859375 49.68359375 C34.17498169 49.66494263 33.29136963 49.6462915 32.38098145 49.6270752 C29.06659351 49.55855448 25.75203398 49.4985485 22.4375 49.4375 C11.3309375 49.2209375 11.3309375 49.2209375 0 49 C0 32.83 0 16.66 0 0 Z " fill="#162848" transform="translate(128,581)"/>
<path d="M0 0 C17.16 0 34.32 0 52 0 C52 130.02 52 260.04 52 394 C34.84 394 17.68 394 0 394 C0 263.98 0 133.96 0 0 Z " fill="#162747" transform="translate(0,630)"/>
<path d="M0 0 C4.52273565 2.26136782 8.52373927 4.95885943 12.6875 7.8125 C13.52603516 8.38637451 14.36457031 8.96024902 15.22851562 9.55151367 C22.92432546 14.86518372 30.41831093 20.43806802 37.70299739 26.30401421 C40.00958609 28.08080063 40.00958609 28.08080063 42.76257735 29.54907417 C47.09606221 32.14052319 50.38958615 34.14308323 52.01148736 39.07700729 C52.38820306 42.91287857 52.41566756 46.66985128 52.32279968 50.51513672 C52.32760076 51.99461756 52.33724007 53.47408923 52.35128051 54.95351124 C52.37582164 59.00700491 52.33197173 63.05728778 52.27672184 67.1103723 C52.22914365 71.48518397 52.2452989 75.85981984 52.25364685 80.2348175 C52.25941025 87.81057527 52.22494837 95.38528962 52.16303062 102.96078491 C52.07356826 113.91344132 52.04497847 124.86559404 52.03116272 135.81857622 C52.00709762 153.58946042 51.93392084 171.35978869 51.82983398 189.13037109 C51.72883879 206.39108502 51.65098912 223.65164785 51.60424805 240.91259766 C51.60135809 241.97685329 51.59846813 243.04110892 51.5954906 244.13761473 C51.58113501 249.47676214 51.56723426 254.81591062 51.55355966 260.15505981 C51.43955636 304.43711121 51.24280835 348.71848326 51 393 C34.17 393 17.34 393 0 393 C0 263.31 0 133.62 0 0 Z " fill="#FEDDD9" transform="translate(172,631)"/>
<path d="M0 0 C12.54 0 25.08 0 38 0 C38.33 89.1 38.66 178.2 39 270 C53.41996692 262.04439273 53.41996692 262.04439273 54.71479797 252.42625427 C54.9064489 250.14491569 54.9064489 250.14491569 54.79423523 248.10540771 C54.77395956 247.35199348 54.75368389 246.59857925 54.73279381 245.82233429 C54.71051531 245.04234825 54.68823681 244.26236221 54.6652832 243.45874023 C54.66956618 241.80370989 54.68003086 240.14868586 54.69616699 238.49372864 C54.72251908 234.02561265 54.66337021 229.56231573 54.58851266 225.09490466 C54.52515539 220.41622856 54.54222815 215.73785097 54.55082703 211.05885315 C54.55515023 202.20907839 54.48926832 193.36131565 54.3971073 184.51207548 C54.2852107 173.44763434 54.26195733 162.38328212 54.24023438 151.31835938 C54.21641016 140.03565047 54.18456841 128.75344444 54.09333801 117.47105408 C54.08048973 115.74534656 54.06770625 114.01963857 54.05499268 112.29393005 C54.03128955 109.08748692 54.00124106 105.88118799 53.96763611 102.67483521 C53.95683294 101.2601897 53.94626876 99.84554235 53.93598938 98.43089294 C53.92425847 97.20591315 53.91252756 95.98093336 53.90044117 94.71883297 C54 92 54 92 55 91 C60.28 91 65.56 91 71 91 C71.33 143.8 71.66 196.6 72 251 C75.96 247.7 79.92 244.4 84 241 C84.66 241 85.32 241 86 241 C86 240.34 86 239.68 86 239 C91.94 239 97.88 239 104 239 C98.37329377 244.62670623 98.37329377 244.62670623 95.3125 246.98828125 C94.62430176 247.52171143 93.93610352 248.0551416 93.22705078 248.60473633 C92.12466064 249.45007935 92.12466064 249.45007935 91 250.3125 C90.22253418 250.91280029 89.44506836 251.51310059 88.64404297 252.1315918 C86.09986635 254.09278045 83.55074706 256.04736568 81 258 C80.10958008 258.68191406 79.21916016 259.36382813 78.30175781 260.06640625 C68.90015542 267.25962367 59.48033893 274.42777032 49.984375 281.49609375 C48.10558515 282.84893162 48.10558515 282.84893162 47 284 C31.49 284 15.98 284 0 284 C0 190.28 0 96.56 0 0 Z " fill="#5697CC" transform="translate(315,740)"/>
<path d="M0 0 C13.2 0 26.4 0 40 0 C40 114.18 40 228.36 40 346 C26.8 346 13.6 346 0 346 C0 231.82 0 117.64 0 0 Z " fill="#5696CB" transform="translate(763,678)"/>
<path d="M0 0 C1.13115234 0.41765625 1.13115234 0.41765625 2.28515625 0.84375 C4.59456741 1.78869425 6.78398559 2.85301767 9 4 C9.92425781 4.47050781 10.84851563 4.94101562 11.80078125 5.42578125 C27.20552527 13.79749038 39.17011872 26.26994981 45 43 C45.33 45.97 45.66 48.94 46 52 C38.08 52 30.16 52 22 52 C22 94.9 22 137.8 22 182 C21.01 182 20.02 182 19 182 C19 149 19 116 19 82 C11.08 82 3.16 82 -5 82 C-5 111.7 -5 141.4 -5 172 C-5.33 172 -5.66 172 -6 172 C-6 157.81 -6 143.62 -6 129 C-9.63 129 -13.26 129 -17 129 C-17 143.19 -17 157.38 -17 172 C-23.6 172 -30.2 172 -37 172 C-37 144.61 -37 117.22 -37 89 C-44.59 89 -52.18 89 -60 89 C-60 87.35 -60 85.7 -60 84 C-64.62 84 -69.24 84 -74 84 C-74 117.99 -74 151.98 -74 187 C-74.99 187 -75.98 187 -77 187 C-77.33 135.52 -77.66 84.04 -78 31 C-80.97 30.67 -83.94 30.34 -87 30 C-76.61141111 15.98748475 -76.61141111 15.98748475 -69.375 10.9375 C-68.76180908 10.5055835 -68.14861816 10.07366699 -67.5168457 9.62866211 C-48.73338948 -3.28633603 -21.70901009 -8.27009908 0 0 Z " fill="#FCFDFD" transform="translate(537,767)"/>
<path d="M0 0 C16.17 0 32.34 0 49 0 C49 77.88 49 155.76 49 236 C32.83 236 16.66 236 0 236 C0 158.12 0 80.24 0 0 Z " fill="#182A4A" transform="translate(686,788)"/>
<path d="M0 0 C0.33 0 0.66 0 1 0 C1 114.18 1 228.36 1 346 C-8.24 346 -17.48 346 -27 346 C-27.2488787 306.61888328 -27.44571746 267.23797404 -27.56171862 227.85622855 C-27.57547574 223.20265366 -27.58971335 218.54908034 -27.60424805 213.89550781 C-27.60713346 212.96909896 -27.61001888 212.04269012 -27.61299173 211.08820827 C-27.66080428 196.10477717 -27.74750517 181.1218122 -27.84868076 166.13865726 C-27.95169377 150.75462992 -28.01267721 135.37084604 -28.03497344 119.98648798 C-28.05003717 110.49980029 -28.0975405 101.01443029 -28.18708114 91.52814843 C-28.24540862 85.01535863 -28.26276091 78.50324598 -28.24851515 71.99021421 C-28.24149623 68.23678344 -28.25194041 64.48564798 -28.31126022 60.73262978 C-28.71561607 33.84026532 -28.71561607 33.84026532 -20.18455285 24.87458742 C-18.81170875 23.55968979 -17.40663928 22.27868003 -16 21 C-14.69404604 19.37924468 -13.41448498 17.73601775 -12.1875 16.0546875 C-11.64996094 15.35085938 -11.11242187 14.64703125 -10.55859375 13.921875 C-10.04425781 13.24640625 -9.52992188 12.5709375 -9 11.875 C-8.45472656 11.16085937 -7.90945313 10.44671875 -7.34765625 9.7109375 C-6.82042969 9.02 -6.29320312 8.3290625 -5.75 7.6171875 C-5.26660156 6.98393555 -4.78320312 6.35068359 -4.28515625 5.69824219 C-3.23696371 4.31313061 -2.20916655 2.912604 -1.1875 1.5078125 C-0.795625 1.01023437 -0.40375 0.51265625 0 0 Z " fill="#B8D5EA" transform="translate(762,678)"/>
<path d="M0 0 C0.33 0 0.66 0 1 0 C1 93.72 1 187.44 1 284 C-13.52 284 -28.04 284 -43 284 C-43 213.05 -43 142.1 -43 69 C-29.60849598 76.81171068 -29.60849598 76.81171068 -24.6875 80.1875 C-20.54371358 82.9917707 -16.3914709 85.60465224 -12 88 C-12 88.66 -12 89.32 -12 90 C-11.484375 90.0825 -10.96875 90.165 -10.4375 90.25 C-8 91 -8 91 -1 95 C-0.67 63.65 -0.34 32.3 0 0 Z " fill="#B7D4E9" transform="translate(314,740)"/>
<path d="M0 0 C0.33 0 0.66 0 1 0 C1 116.82 1 233.64 1 354 C-15.83 354 -32.66 354 -50 354 C-50 300.21 -50 246.42 -50 191 C-38.76429837 193.24714033 -38.76429837 193.24714033 -34.84375 194.55078125 C-33.96460938 194.83759766 -33.08546875 195.12441406 -32.1796875 195.41992188 C-31.29539063 195.71447266 -30.41109375 196.00902344 -29.5 196.3125 C-19.73945941 199.54881218 -9.93556512 202.2401208 0 205 C0 137.35 0 69.7 0 0 Z " fill="#CAD2E3" transform="translate(222,670)"/>
<path d="M0 0 C0.77214844 -0.00386719 1.54429687 -0.00773438 2.33984375 -0.01171875 C3.47486328 -0.00978516 3.47486328 -0.00978516 4.6328125 -0.0078125 C5.64045654 -0.00612061 5.64045654 -0.00612061 6.66845703 -0.00439453 C9.42501906 0.15725383 12.15127283 0.67104547 14.875 1.125 C14.875 21.915 14.875 42.705 14.875 64.125 C-42.875 64.125 -100.625 64.125 -160.125 64.125 C-149.73654936 53.73654936 -133.52059739 47.51448569 -118.8034668 47.01147461 C-117.57281494 47.01671143 -116.34216309 47.02194824 -115.07421875 47.02734375 C-114.41541214 47.0287587 -113.75660553 47.03017365 -113.07783508 47.03163147 C-110.98934238 47.037195 -108.90095989 47.04974053 -106.8125 47.0625 C-105.38997551 47.06751972 -103.96744934 47.0720818 -102.54492188 47.07617188 C-99.07157923 47.08715243 -95.59830039 47.10439165 -92.125 47.125 C-91.98562012 46.34415039 -91.84624023 45.56330078 -91.70263672 44.75878906 C-89.72376789 35.73595014 -80.04966677 29.3618998 -73.125 24.125 C-72.34382812 23.51785156 -71.56265625 22.91070313 -70.7578125 22.28515625 C-50.656988 7.36181685 -24.88251399 -0.12588118 0 0 Z " fill="#AEDAEF" transform="translate(1009.125,561.875)"/>
<path d="M0 0 C38.40821918 0 38.40821918 0 55 8 C56.04800781 8.48082031 57.09601562 8.96164062 58.17578125 9.45703125 C68.92653426 14.74871926 78.83480136 22.57682244 85 33 C85 33.66 85 34.32 85 35 C86.11375 34.67 87.2275 34.34 88.375 34 C100.68016043 31.30642945 114.00975078 32.42331051 126 36 C132.13278983 42.13278983 127 53.32692545 127 62 C85.09 62 43.18 62 0 62 C0 41.54 0 21.08 0 0 Z " fill="#AEDAEE" transform="translate(0,567)"/>
<path d="M0 0 C0.33 0 0.66 0 1 0 C1.17325764 21.99256676 1.27193657 43.98435042 1.28240681 65.97762108 C1.28899786 76.19017218 1.31977417 86.40157013 1.40795898 96.61376953 C1.48478136 105.51731294 1.5157441 114.41964837 1.49218339 123.32351267 C1.48129966 128.03645817 1.4930071 132.7468532 1.55968666 137.45939255 C1.62180889 141.90114535 1.62231867 146.33876465 1.5768013 150.7806778 C1.57078812 152.40523548 1.58675109 154.03005622 1.62704659 155.65412521 C1.90496429 167.58676851 1.90496429 167.58676851 -1.28885484 171.63273668 C-4.81588475 175.03137223 -8.81037911 177.50036607 -13 180 C-14.29182857 180.95917356 -15.57127483 181.9358738 -16.82421875 182.9453125 C-18.24154297 184.02425781 -18.24154297 184.02425781 -19.6875 185.125 C-20.66074219 185.87007812 -21.63398437 186.61515625 -22.63671875 187.3828125 C-25 189 -25 189 -27 189 C-27.25761958 169.16301254 -27.4512569 149.32636718 -27.56993389 129.48805046 C-27.62651708 120.27547976 -27.70357664 111.06395185 -27.82983398 101.85205078 C-27.93990214 93.81746436 -28.01054012 85.78363349 -28.03497344 77.74831402 C-28.04924441 73.49805469 -28.08247562 69.24995563 -28.16303062 65.00039291 C-28.7228196 34.29946862 -28.7228196 34.29946862 -21.67114258 26.11816406 C-19.85731274 24.28415614 -17.97727472 22.6686864 -16 21 C-14.68810188 19.38405233 -13.40739944 17.74116575 -12.1875 16.0546875 C-11.64996094 15.35085938 -11.11242187 14.64703125 -10.55859375 13.921875 C-10.04425781 13.24640625 -9.52992188 12.5709375 -9 11.875 C-8.45472656 11.16085937 -7.90945313 10.44671875 -7.34765625 9.7109375 C-6.82042969 9.02 -6.29320312 8.3290625 -5.75 7.6171875 C-5.26660156 6.98393555 -4.78320312 6.35068359 -4.28515625 5.69824219 C-3.23696371 4.31313061 -2.20916655 2.912604 -1.1875 1.5078125 C-0.795625 1.01023437 -0.40375 0.51265625 0 0 Z " fill="#FEDEDA" transform="translate(762,678)"/>
<path d="M0 0 C2.31 1.98 4.62 3.96 7 6 C7.86510224 6.68101871 8.73020449 7.36203741 9.62152195 8.06369305 C13.14064401 11.08050426 15.61166956 13.47604892 16.77670097 18.04805946 C17.04290431 21.7211037 17.00958481 25.28564229 16.87670898 28.96606445 C16.8596338 30.36842987 16.84677254 31.77085183 16.83774757 33.17329216 C16.80982522 36.20176479 16.75379999 39.22792388 16.67567635 42.25551414 C16.54980901 47.15232688 16.48636863 52.04878503 16.432724 56.94685364 C16.37272116 62.17762593 16.30851957 67.40817607 16.22354603 72.63860989 C16.01930958 85.33010688 15.96737995 98.01554488 16.01611328 110.70849609 C16.01952563 111.61178028 16.02293798 112.51506447 16.02645373 113.44572091 C16.04057943 117.11309206 16.0549823 120.78046181 16.07012832 124.44782889 C16.11690761 136.4387701 16.09447777 148.42966915 16.07502174 160.42065239 C16.06099622 169.86715253 16.06505864 179.31308724 16.10620117 188.75952148 C16.14300454 197.22437612 16.14845917 205.6885666 16.11582941 214.15344888 C16.09985254 218.57235784 16.09896353 222.99000036 16.13676643 227.40880394 C16.17139042 231.50214078 16.16411687 235.59324375 16.12437057 239.6865139 C16.11724644 241.17848485 16.12539191 242.67062182 16.15022469 244.16240311 C16.3233625 255.31673505 16.3233625 255.31673505 13.13302422 259.37471962 C9.05793126 262.66249883 4.70438619 264.64780691 0 267 C0 178.89 0 90.78 0 0 Z " fill="#B8D4EB" transform="translate(354,743)"/>
<path d="M0 0 C9.9 0 19.8 0 30 0 C30 42.57 30 85.14 30 129 C8.10069496 126.69481 8.10069496 126.69481 3 121 C2.48408137 120.57317271 1.96816275 120.14634542 1.43661022 119.70658398 C-0.47749377 117.43277362 -0.37016479 116.1083567 -0.36076355 113.15950012 C-0.36488754 112.16250595 -0.36901154 111.16551178 -0.3732605 110.13830566 C-0.36247467 109.04570435 -0.35168884 107.95310303 -0.34057617 106.82739258 C-0.34101425 105.67603317 -0.34145233 104.52467377 -0.34190369 103.33842468 C-0.33980965 99.52362247 -0.31644888 95.70925692 -0.29296875 91.89453125 C-0.287375 89.25323222 -0.28310386 86.61193008 -0.28010559 83.97062683 C-0.27077833 77.72327456 -0.24615548 71.47607963 -0.21605712 65.22879666 C-0.18253418 58.11642998 -0.16603243 51.00405582 -0.15097082 43.89162982 C-0.1196064 29.26099381 -0.0645859 14.63052816 0 0 Z " fill="#8FC7E8" transform="translate(585,853)"/>
<path d="M0 0 C0.33 0 0.66 0 1 0 C1 2.31 1 4.62 1 7 C3.97 7 6.94 7 10 7 C10 4.69 10 2.38 10 0 C10.33 0 10.66 0 11 0 C11 2.64 11 5.28 11 8 C17.93 8 24.86 8 32 8 C32.27166722 18.79668212 32.49156256 29.59107721 32.62174606 40.39041042 C32.68424539 45.40569454 32.76892535 50.41850997 32.90527344 55.43237305 C33.03616263 60.2760984 33.10750784 65.11745837 33.13852692 69.96281624 C33.16061414 71.80624702 33.20375278 73.64955539 33.26876068 75.49197197 C33.74146972 89.45097924 33.74146972 89.45097924 30.85076141 93.68216133 C26.42672097 98.32909288 21.16466598 101.37287906 14.671875 101.66015625 C13.02593302 101.51111426 11.38371435 101.31213155 9.75 101.0625 C8.89792969 100.97419922 8.04585938 100.88589844 7.16796875 100.79492188 C5.10668433 100.57489713 3.05203043 100.29406712 1 100 C0.505 100.99 0.505 100.99 0 102 C0 68.34 0 34.68 0 0 Z " fill="#90C7E8" transform="translate(400,879)"/>
<path d="M0 0 C0.33 0 0.66 0 1 0 C1 77.22 1 154.44 1 234 C-2.96 234 -6.92 234 -11 234 C-11.21032624 205.35805238 -11.3689913 176.71622065 -11.46630955 148.07365608 C-11.51269929 134.77404548 -11.5759339 121.47509632 -11.67895508 108.17578125 C-11.76871468 96.58290689 -11.82673704 84.99038024 -11.84679645 73.39716804 C-11.85852072 67.25954062 -11.88603548 61.12290785 -11.95157051 54.98559952 C-12.01279165 49.20529559 -12.03147771 43.42639317 -12.01796913 37.64579582 C-12.02043929 35.52779325 -12.03826535 33.40974244 -12.07284927 31.2920208 C-12.35211673 13.30460214 -12.35211673 13.30460214 -6.56114197 6.84860229 C-5.06172051 5.54129916 -3.54455292 4.25365963 -2 3 C-1.34 2.01 -0.68 1.02 0 0 Z " fill="#FBDFDE" transform="translate(685,790)"/>
<path d="M0 0 C0.33 0 0.66 0 1 0 C1 66.99 1 133.98 1 203 C-1.31 201.02 -3.62 199.04 -6 197 C-7.43317062 195.79194576 -7.43317062 195.79194576 -8.89529419 194.55948639 C-11.6292747 191.23475289 -11.64164811 189.32117556 -11.67529297 185.04821777 C-11.69334299 184.01660373 -11.69334299 184.01660373 -11.71175766 182.964149 C-11.74568246 180.66514635 -11.74399896 178.36759097 -11.7421875 176.06835938 C-11.75879214 174.416966 -11.77742899 172.76559199 -11.79794312 171.11424255 C-11.84639708 166.62766102 -11.86222334 162.14153623 -11.86921692 157.6547184 C-11.87500121 154.84316157 -11.88765542 152.03172112 -11.90270996 149.22019958 C-11.95499772 139.38582784 -11.98026161 129.55179181 -11.98144531 119.71728516 C-11.98327039 110.59588837 -12.04452066 101.47622327 -12.13408089 92.35530424 C-12.20848257 84.49584577 -12.23953808 76.63694974 -12.23832512 68.77714205 C-12.23835325 64.09610006 -12.25499873 59.41668806 -12.31585693 54.73600769 C-12.56651416 34.15753273 -12.7278124 17.31000902 0 0 Z " fill="#B6DEF2" transform="translate(626,791)"/>
<path d="M0 0 C0.44869257 0.38838138 0.89738514 0.77676275 1.35967445 1.17691326 C4.07139755 3.51443781 6.76369311 5.8212609 9.62020874 7.98188782 C13.44269441 11.15263455 15.68132432 13.57630494 16.78399658 18.50253296 C17.05877102 22.796454 17.04071089 26.99651515 16.9140625 31.29296875 C16.89976338 32.88647027 16.88937358 34.48001109 16.88265991 36.07356262 C16.8540898 40.26339897 16.77082067 44.45042551 16.67626953 48.63922119 C16.59203032 52.82621083 16.56270847 57.01353781 16.52734375 61.20117188 C16.36394677 77.81439934 15.93719264 94.41076014 15 111 C12.62699532 109.71462247 10.313294 108.38696275 8 107 C7.30413033 106.60580305 6.60826065 106.2116061 5.89130402 105.80546379 C0.44344436 102.32470069 0.44344436 102.32470069 -0.7223053 98.84225845 C-0.98523961 96.21200744 -0.99055291 93.68960635 -0.90820312 91.04736328 C-0.90937134 90.0613765 -0.91053955 89.07538971 -0.91174316 88.05952454 C-0.90618466 84.81167017 -0.84403628 81.56752234 -0.78125 78.3203125 C-0.76632358 76.06446336 -0.75493846 73.80858823 -0.74694824 71.55270386 C-0.71644648 65.6238202 -0.63789769 59.69651197 -0.54931641 53.76824951 C-0.4673842 47.71550814 -0.43092084 41.66251143 -0.390625 35.609375 C-0.30490374 23.73889227 -0.16841832 11.86957729 0 0 Z " fill="#FCDEDB" transform="translate(354,743)"/>
<path d="M0 0 C1.65 1.65 3.3 3.3 5 5 C6.33077864 6.03091977 7.68329277 7.03482914 9.0625 8 C12.29847432 10.35729215 14.52549364 12.84287119 17 16 C17.825 16.495 18.65 16.99 19.5 17.5 C22.42659081 19.25595448 23.88019246 21.35024058 26 24 C26.74121094 24.43570313 27.48242188 24.87140625 28.24609375 25.3203125 C31.53293526 27.32505271 34.25804282 29.76456187 37.0625 32.375 C37.8369043 33.07882812 37.8369043 33.07882812 38.62695312 33.796875 C41.7381133 36.66627623 44.36765288 39.69812111 47 43 C48.64605826 44.03357147 50.30963442 45.04060332 52 46 C52.33 46.66 52.66 47.32 53 48 C54.32 48.66 55.64 49.32 57 50 C38.19 50 19.38 50 0 50 C0 33.5 0 17 0 0 Z " fill="#FDD9D7" transform="translate(214,580)"/>
<path d="M0 0 C0 37.62 0 75.24 0 114 C-3.96 114 -7.92 114 -12 114 C-12 78.03 -12 42.06 -12 5 C-3 0 -3 0 0 0 Z " fill="#B6D9F0" transform="translate(686,910)"/>
<path d="M0 0 C4.2609532 5.3261915 4.49885908 6.0320234 4.48101807 12.39680481 C4.48443577 13.13203281 4.48785347 13.8672608 4.49137473 14.62476844 C4.49795266 17.08333406 4.47598023 19.5408029 4.45410156 21.99926758 C4.45297306 23.7635292 4.453607 25.5277927 4.45587158 27.29205322 C4.45701955 32.07895916 4.43349678 36.86546443 4.40557575 41.65227723 C4.38057596 46.65575268 4.37822122 51.65923724 4.37347412 56.6627655 C4.36104018 66.13645886 4.32821284 75.60996765 4.28807616 85.08357972 C4.24337154 95.86943779 4.2213747 106.65530467 4.20129442 117.44123232 C4.15948063 139.62759124 4.08912036 161.813784 4 184 C2.68 184 1.36 184 0 184 C0 123.28 0 62.56 0 0 Z " fill="#FDFDFD" transform="translate(412,703)"/>
<path d="M0 0 C0.66 0 1.32 0 2 0 C2.15062862 33.79642817 1.90178987 67.58121418 1.5 101.375 C1.48804218 102.38106293 1.47608437 103.38712585 1.46376419 104.42367554 C1.31440622 116.94918309 1.15970453 129.47462025 1 142 C0.01 142 -0.98 142 -2 142 C-2.04672019 124.22378246 -2.08198894 106.44758086 -2.10362434 88.67131519 C-2.11393703 80.41749329 -2.12799723 72.16370953 -2.15087891 63.90991211 C-2.170813 56.71592692 -2.18371649 49.52196937 -2.18817699 42.32795733 C-2.19078434 38.51876734 -2.19691259 34.70965638 -2.21146011 30.90049171 C-2.22504433 27.31447711 -2.22922095 23.72857405 -2.22621536 20.14253616 C-2.22702711 18.20044278 -2.23778438 16.25836152 -2.24884033 14.31629944 C-2.246091 13.15668701 -2.24334167 11.99707458 -2.24050903 10.80232239 C-2.24235262 9.79664624 -2.24419621 8.7909701 -2.24609566 7.75481892 C-1.98491545 4.83114208 -1.22308736 2.65406714 0 0 Z " fill="#FBFCFC" transform="translate(605,710)"/>
<path d="M0 0 C6.11631336 6.11631336 8.25 10.24516557 8.25 19 C8.18634064 21.00072285 8.10968629 23.00127206 8 25 C7.01 25.33 6.02 25.66 5 26 C4.67 29.96 4.34 33.92 4 38 C2.68 37.34 1.36 36.68 0 36 C0 24.12 0 12.24 0 0 Z " fill="#FDFAFA" transform="translate(338,653)"/>
<path d="M0 0 C0.33 0 0.66 0 1 0 C1 13.53 1 27.06 1 41 C-0.98 41 -2.96 41 -5 41 C-5.05871491 36.70839209 -5.09383483 32.41688942 -5.125 28.125 C-5.14175781 26.92101562 -5.15851562 25.71703125 -5.17578125 24.4765625 C-5.27554567 6.11990981 -5.27554567 6.11990981 0 0 Z " fill="#FDF9F9" transform="translate(687,649)"/>
<path d="M0 0 C0.66 0.33 1.32 0.66 2 1 C0.7934375 1.8971875 0.7934375 1.8971875 -0.4375 2.8125 C-4.35490427 6.61924313 -3.90072123 11.84652934 -4 17 C-4.33 17 -4.66 17 -5 17 C-5.13489391 14.73078464 -5.23193995 12.4592933 -5.3125 10.1875 C-5.37050781 8.92292969 -5.42851563 7.65835938 -5.48828125 6.35546875 C-5 3 -5 3 -2.60546875 0.98828125 C-1.74566406 0.66214844 -0.88585937 0.33601562 0 0 Z " fill="#C0D2E8" transform="translate(679,912)"/>
<path d="M0 0 C0.66 0 1.32 0 2 0 C2 3.3 2 6.6 2 10 C1.01 9.67 0.02 9.34 -1 9 C-0.67 6.03 -0.34 3.06 0 0 Z " fill="#E2F1F7" transform="translate(339,680)"/>
</svg>
