<?xml version="1.0" encoding="UTF-8"?>
<svg version="1.1" xmlns="http://www.w3.org/2000/svg" width="1024" height="1024">
<path d="M0 0 C337.92 0 675.84 0 1024 0 C1024 337.92 1024 675.84 1024 1024 C686.08 1024 348.16 1024 0 1024 C0 686.08 0 348.16 0 0 Z " fill="#DBCED3" transform="translate(0,0)"/>
<path d="M0 0 C26.73 0 53.46 0 81 0 C81 173.58 81 347.16 81 526 C-55.29 526 -191.58 526 -332 526 C-332 485.08 -332 444.16 -332 402 C-324.08 402 -316.16 402 -308 402 C-308 351.18 -308 300.36 -308 248 C-301.07 248 -294.14 248 -287 248 C-287 237.44 -287 226.88 -287 216 C-258.95 216 -230.9 216 -202 216 C-202 194.88 -202 173.76 -202 152 C-196.39 151.67 -190.78 151.34 -185 151 C-180.95407156 148.12739081 -177.87120378 145.79681601 -174.46679688 142.39941406 C-171.98082869 140.02764815 -169.24489161 137.99769072 -166.5 135.9375 C-165.41762928 135.11763547 -164.33559693 134.29732403 -163.25390625 133.4765625 C-162.71910645 133.07211914 -162.18430664 132.66767578 -161.63330078 132.25097656 C-159.95600003 130.96629957 -158.30313899 129.65445172 -156.65234375 128.3359375 C-155.5807919 127.49471175 -154.50917964 126.65356294 -153.4375 125.8125 C-152.48746094 125.05582031 -151.53742188 124.29914063 -150.55859375 123.51953125 C-148 122 -148 122 -146.16625977 122.19995117 C-143.41157942 123.21731706 -141.22277277 124.64721454 -138.78125 126.28125 C-137.77143066 126.95446289 -136.76161133 127.62767578 -135.72119141 128.32128906 C-134.65819824 129.04026367 -133.59520508 129.75923828 -132.5 130.5 C-131.42024902 131.22670898 -130.34049805 131.95341797 -129.22802734 132.70214844 C-108.7107665 146.578467 -108.7107665 146.578467 -106 152 C-101.05 152 -96.1 152 -91 152 C-91 188.63 -91 225.26 -91 263 C-77.47 263 -63.94 263 -50 263 C-50 276.53 -50 290.06 -50 304 C-39.11 304 -28.22 304 -17 304 C-17 310.6 -17 317.2 -17 324 C-11.39 324 -5.78 324 0 324 C0 217.08 0 110.16 0 0 Z " fill="#A7A2BD" transform="translate(943,498)"/>
<path d="M0 0 C36.63 0 73.26 0 111 0 C111 97.35 111 194.7 111 295 C102.75 295 94.5 295 86 295 C86 300.28 86 305.56 86 311 C74.12 311 62.24 311 50 311 C50 318.26 50 325.52 50 333 C55.94 333 61.88 333 68 333 C68 335.31 68 337.62 68 340 C62.06 340 56.12 340 50 340 C50 346.6 50 353.2 50 360 C55.94 360 61.88 360 68 360 C68 362.64 68 365.28 68 368 C62.39 368 56.78 368 51 368 C51 374.6 51 381.2 51 388 C56.94 388 62.88 388 69 388 C69 390.64 69 393.28 69 396 C74.61 396 80.22 396 86 396 C86 399.96 86 403.92 86 408 C89.96 407.67 93.92 407.34 98 407 C106.25 407 114.5 407 123 407 C123 473.99 123 540.98 123 610 C82.41 610 41.82 610 0 610 C0 408.7 0 207.4 0 0 Z " fill="#9793B8" transform="translate(0,414)"/>
<path d="M0 0 C19.47 0 38.94 0 59 0 C59 71.28 59 142.56 59 216 C66.92 216 74.84 216 83 216 C83 190.26 83 164.52 83 138 C123.59 138 164.18 138 206 138 C206 217.86 206 297.72 206 380 C137.69 380 69.38 380 -1 380 C-1.04033135 295.70748045 -1.04033135 295.70748045 -1.04882812 260.28515625 C-1.05078546 252.17985024 -1.05280579 244.07454425 -1.05493164 235.96923828 C-1.05532726 234.44581831 -1.05532726 234.44581831 -1.05573088 232.89162219 C-1.06005864 216.57919846 -1.06793032 200.26677832 -1.0771528 183.95435672 C-1.08656477 167.16444919 -1.09207143 150.37454352 -1.09408849 133.58463347 C-1.0954482 123.25714621 -1.09971316 112.9296691 -1.10791647 102.60218497 C-1.11327741 95.48245014 -1.11478352 88.36272043 -1.11350138 81.24298374 C-1.11287229 77.15938189 -1.11370723 73.07579753 -1.11920547 68.99219894 C-1.14869927 45.97476943 -0.67638095 23.00993411 0 0 Z " fill="#ACA7C4" transform="translate(326,644)"/>
<path d="M0 0 C35.31 0 70.62 0 107 0 C107 14.52 107 29.04 107 44 C120.86 44 134.72 44 149 44 C149 185.9 149 327.8 149 474 C113.36 474 77.72 474 41 474 C41 369.72 41 265.44 41 158 C27.47 158 13.94 158 0 158 C0 105.86 0 53.72 0 0 Z " fill="#9793B5" transform="translate(144,550)"/>
<path d="M0 0 C26.73 0 53.46 0 81 0 C81 173.58 81 347.16 81 526 C48.66 526 16.32 526 -17 526 C-17 459.34 -17 392.68 -17 324 C-11.39 324 -5.78 324 0 324 C0 217.08 0 110.16 0 0 Z " fill="#616287" transform="translate(943,498)"/>
<path d="M0 0 C0.33 0 0.66 0 1 0 C1 97.02 1 194.04 1 294 C9.91 294 18.82 294 28 294 C28 318.75 28 343.5 28 369 C28.82434984 364.87825079 29.11678942 361.65842156 29.09765625 357.51318359 C29.09435303 356.22189545 29.0910498 354.9306073 29.08764648 353.60018921 C29.08352753 352.91547924 29.07940857 352.23076927 29.07516479 351.52531052 C29.06235067 349.3733598 29.05587311 347.22147102 29.05102539 345.06948853 C29.03962552 340.50463111 29.02037173 335.93982504 29 331.375 C28.9763971 326.07726023 28.95601623 320.77954952 28.94406128 315.48176956 C28.93757902 313.36177924 28.92507389 311.24187846 28.91235352 309.12191772 C28.90905029 307.8369339 28.90574707 306.55195007 28.90234375 305.22802734 C28.89710693 304.09505219 28.89187012 302.96207703 28.88647461 301.79476929 C29 299 29 299 30 296 C31.26706787 296.00523682 32.53413574 296.01047363 33.83959961 296.01586914 C38.5228607 296.03391514 43.20611871 296.04543053 47.8894043 296.05493164 C49.91968298 296.05997278 51.94995802 296.06680557 53.98022461 296.07543945 C56.89177347 296.08751467 59.8032745 296.09323034 62.71484375 296.09765625 C63.6283812 296.10281754 64.54191864 296.10797882 65.48313904 296.11329651 C67.65575427 296.11349168 69.82827296 296.06211805 72 296 C72.33 295.67 72.66 295.34 73 295 C59.8 295 46.6 295 33 295 C33 294.67 33 294.34 33 294 C46.53 294 60.06 294 74 294 C74 398.28 74 502.56 74 610 C53.54 610 33.08 610 12 610 C12 543.01 12 476.02 12 407 C7.38 407.33 2.76 407.66 -2 408 C-6.1326347 408.0630744 -10.24449678 408.09782667 -14.375 408.0625 C-15.40882812 408.05798828 -16.44265625 408.05347656 -17.5078125 408.04882812 C-20.00523461 408.03726599 -22.50262604 408.01934283 -25 408 C-25 404.04 -25 400.08 -25 396 C-30.61 396 -36.22 396 -42 396 C-42 393.36 -42 390.72 -42 388 C-47.94 388 -53.88 388 -60 388 C-60 381.4 -60 374.8 -60 368 C-54.39 368 -48.78 368 -43 368 C-43 365.36 -43 362.72 -43 360 C-48.94 360 -54.88 360 -61 360 C-61 353.4 -61 346.8 -61 340 C-55.06 340 -49.12 340 -43 340 C-43 337.69 -43 335.38 -43 333 C-48.94 333 -54.88 333 -61 333 C-61 325.74 -61 318.48 -61 311 C-49.12 311 -37.24 311 -25 311 C-25 305.72 -25 300.44 -25 295 C-16.75 295 -8.5 295 0 295 C0 197.65 0 100.3 0 0 Z " fill="#C2B9CB" transform="translate(111,414)"/>
<path d="M0 0 C5.94 0 11.88 0 18 0 C18 0.33 18 0.66 18 1 C12.39 1 6.78 1 1 1 C1 7.6 1 14.2 1 21 C6.94 21 12.88 21 19 21 C19 23.64 19 26.28 19 29 C24.61 29 30.22 29 36 29 C36 32.96 36 36.92 36 41 C41.94 40.505 41.94 40.505 48 40 C56.25 40 64.5 40 73 40 C73 106.99 73 173.98 73 243 C32.41 243 -8.18 243 -50 243 C-50 182.61 -50 122.22 -50 60 C-44.06 60 -38.12 60 -32 60 C-32 49.77 -32 39.54 -32 29 C-21.44 29 -10.88 29 0 29 C0 19.43 0 9.86 0 0 Z " fill="#9894B8" transform="translate(50,781)"/>
<path d="M0 0 C19.47 0 38.94 0 59 0 C59.06859678 55.96640179 58.89022738 111.9283355 58.55461788 167.89370096 C58.49224554 178.31115614 58.43267996 188.72862694 58.37324238 199.14609921 C58.25174398 220.43075058 58.12669618 241.71537889 58 263 C38.86 263 19.72 263 0 263 C0 176.21 0 89.42 0 0 Z " fill="#CEC4CD" transform="translate(679,761)"/>
<path d="M0 0 C26.73 0 53.46 0 81 0 C81 55.44 81 110.88 81 168 C57.9 168 34.8 168 11 168 C11 219.48 11 270.96 11 324 C7.37 324 3.74 324 0 324 C0 217.08 0 110.16 0 0 Z " fill="#9996B7" transform="translate(943,498)"/>
<path d="M0 0 C0 106.92 0 213.84 0 324 C-5.61 324 -11.22 324 -17 324 C-17 317.4 -17 310.8 -17 304 C-17.66 304.33 -18.32 304.66 -19 305 C-21.08152667 305.09738781 -23.16619734 305.13076841 -25.25 305.1328125 C-26.4978125 305.13410156 -27.745625 305.13539063 -29.03125 305.13671875 C-30.99578125 305.13091797 -30.99578125 305.13091797 -33 305.125 C-34.96453125 305.13080078 -34.96453125 305.13080078 -36.96875 305.13671875 C-38.84046875 305.13478516 -38.84046875 305.13478516 -40.75 305.1328125 C-41.89984375 305.13168457 -43.0496875 305.13055664 -44.234375 305.12939453 C-47 305 -47 305 -49 304 C-48.99476318 303.2251123 -48.98952637 302.45022461 -48.98413086 301.65185547 C-48.96303752 298.05957894 -48.95023871 294.46731551 -48.9375 290.875 C-48.92912109 289.65683594 -48.92074219 288.43867187 -48.91210938 287.18359375 C-48.90888672 285.96542969 -48.90566406 284.74726562 -48.90234375 283.4921875 C-48.89710693 282.39245605 -48.89187012 281.29272461 -48.88647461 280.15966797 C-48.92891596 276.82499809 -49.21047279 273.53806408 -49.5 270.21630859 C-50.26476549 259.61386566 -50.13137118 249.0038612 -50.11352539 238.37939453 C-50.11324289 236.01282757 -50.11340248 233.64626052 -50.1139679 231.2796936 C-50.11425342 224.89228884 -50.1083964 218.50490306 -50.10139394 212.11750269 C-50.09575628 206.10728391 -50.09476875 200.09706578 -50.09374207 194.08684491 C-50.09156055 182.19282144 -50.08492502 170.29880488 -50.07543945 158.40478516 C-50.06624195 146.85986363 -50.05917259 135.31494399 -50.05493164 123.77001953 C-50.05466892 123.05681872 -50.05440619 122.34361791 -50.05413551 121.60880496 C-50.05283035 118.03041675 -50.05156667 114.45202853 -50.05032361 110.8736403 C-50.03997906 81.24908896 -50.02231038 51.62454481 -50 22 C-45.9292992 20.09700035 -41.85823772 18.19477493 -37.78686523 16.29321289 C-36.40688724 15.64855984 -35.02700165 15.00370892 -33.6472168 14.35864258 C-2.93288656 0 -2.93288656 0 0 0 Z " fill="#E1D4CC" transform="translate(943,498)"/>
<path d="M0 0 C23.43 0 46.86 0 71 0 C71.13087961 27.81748606 71.26136792 55.63497386 71.39115143 83.45246506 C71.45143258 96.37032947 71.5118861 109.28819303 71.57275391 122.20605469 C71.62584264 133.4730721 71.67859929 144.740091 71.73096704 156.00711179 C71.7586735 161.96576886 71.78653954 167.92442508 71.81480408 173.88307953 C71.84147601 179.50709604 71.86769939 185.13111447 71.89359856 190.75513458 C71.90311089 192.80435766 71.91277837 194.85358002 71.92262459 196.90280151 C71.93620049 199.7334373 71.94924444 202.56407492 71.96203613 205.39471436 C71.96622307 206.28292169 71.97041 207.17112903 71.97472382 208.08625174 C71.99373933 212.56511925 72.00050871 217.04360194 71.98802185 221.52249908 C71.98595592 222.41983238 71.98388999 223.31716567 71.98176146 224.24169087 C71.97709488 225.92245699 71.97028085 227.60321931 71.96074724 229.28396487 C71.94689191 234.31737797 72.15314999 239.29058733 72.5 244.3125 C72.971088 251.35497388 73.14383917 258.37918155 73.1875 265.4375 C73.20039062 266.45175049 73.21328125 267.46600098 73.2265625 268.51098633 C73.22785156 269.45482178 73.22914063 270.39865723 73.23046875 271.37109375 C73.23457764 272.21599365 73.23868652 273.06089355 73.24291992 273.93139648 C73 276 73 276 71 278 C71 264.47 71 250.94 71 237 C57.47 237 43.94 237 30 237 C30 200.37 30 163.74 30 126 C25.05 126 20.1 126 15 126 C13.68 124.35 12.36 122.7 11 121 C8.94475004 120.07524479 6.88060108 119.17010102 4.80957031 118.28125 C1.30193625 115.98219348 -0.52413846 114.70707256 -1.65565491 110.64794922 C-2.6751128 102.97114255 -2.22316864 95.21588455 -1.953125 87.5 C-1.90828056 84.97803422 -1.86878503 82.45596812 -1.83441162 79.93383789 C-1.740481 73.98615135 -1.59286509 68.04135404 -1.41884589 62.09561443 C-1.17016756 53.46731532 -1.03094427 44.83711785 -0.8782196 36.2066803 C-0.65450812 24.13494125 -0.31644626 12.07126726 0 0 Z " fill="#BCB7D2" transform="translate(822,524)"/>
<path d="M0 0 C2.75468034 1.01736588 4.943487 2.44726336 7.38500977 4.08129883 C8.3948291 4.75451172 9.40464844 5.42772461 10.44506836 6.12133789 C11.50806152 6.8403125 12.57105469 7.55928711 13.66625977 8.30004883 C14.74601074 9.02675781 15.82576172 9.7534668 16.93823242 10.50219727 C37.45549326 24.37851583 37.45549326 24.37851583 40.16625977 29.80004883 C45.11625977 29.80004883 50.06625977 29.80004883 55.16625977 29.80004883 C55.16625977 66.43004883 55.16625977 103.06004883 55.16625977 140.80004883 C22.16625977 140.80004883 -10.83374023 140.80004883 -44.83374023 140.80004883 C-44.83374023 130.57004883 -44.83374023 120.34004883 -44.83374023 109.80004883 C-43.18374023 109.80004883 -41.53374023 109.80004883 -39.83374023 109.80004883 C-39.83897705 108.89915527 -39.84421387 107.99826172 -39.84960938 107.07006836 C-39.97583441 81.6301312 -39.53907439 56.2298643 -38.83374023 30.80004883 C-44.11374023 30.80004883 -49.39374023 30.80004883 -54.83374023 30.80004883 C-55.16374023 32.12004883 -55.49374023 33.44004883 -55.83374023 34.80004883 C-55.83374023 33.15004883 -55.83374023 31.50004883 -55.83374023 29.80004883 C-54.20178711 29.86579102 -54.20178711 29.86579102 -52.53686523 29.93286133 C-42.60659844 30.03379711 -37.13589233 28.72813732 -29.72436523 21.62036133 C-29.25450195 21.15146484 -28.78463867 20.68256836 -28.30053711 20.19946289 C-25.81456893 17.82769697 -23.07863184 15.79773954 -20.33374023 13.73754883 C-19.25136951 12.9176843 -18.16933717 12.09737286 -17.08764648 11.27661133 C-16.55284668 10.87216797 -16.01804687 10.46772461 -15.46704102 10.05102539 C-13.78974026 8.7663484 -12.13687922 7.45450055 -10.48608398 6.13598633 C-9.41453213 5.29476058 -8.34291988 4.45361177 -7.27124023 3.61254883 C-6.32120117 2.85586914 -5.37116211 2.09918945 -4.39233398 1.31958008 C-1.83374023 -0.19995117 -1.83374023 -0.19995117 0 0 Z " fill="#A5A0C0" transform="translate(796.833740234375,620.199951171875)"/>
<path d="M0 0 C3.59100565 1.19700188 7.08545372 2.3810052 10.59667969 3.75585938 C11.87765533 4.25647888 11.87765533 4.25647888 13.18450928 4.76721191 C14.08783997 5.12246948 14.99117065 5.47772705 15.921875 5.84375 C17.33367035 6.39838928 17.33367035 6.39838928 18.77398682 6.9642334 C20.75447008 7.74330651 22.7345862 8.5233135 24.71435547 9.30419922 C27.7516829 10.50066293 30.79181311 11.68981044 33.83203125 12.87890625 C35.75799014 13.63757002 37.68377749 14.39666945 39.609375 15.15625 C40.52080261 15.51150757 41.43223022 15.86676514 42.37127686 16.23278809 C43.21265198 16.56653442 44.0540271 16.90028076 44.92089844 17.24414062 C45.66225037 17.53567017 46.40360229 17.82719971 47.16741943 18.12756348 C49 19 49 19 51 21 C51.23047829 23.04209328 51.23047829 23.04209328 51.20254517 25.60635376 C51.19688034 26.5767308 51.19121552 27.54710785 51.18537903 28.54689026 C51.16883774 29.61503464 51.15229645 30.68317902 51.13525391 31.78369141 C51.12579239 32.90564407 51.11633087 34.02759674 51.10658264 35.18354797 C51.07280035 38.90638157 51.02471337 42.62888925 50.9765625 46.3515625 C50.95040619 48.92702371 50.92513833 51.50249408 50.90072632 54.07797241 C50.84079936 60.17309679 50.77188623 66.26805939 50.69865549 72.36303651 C50.60766767 79.9815142 50.53035957 87.6001226 50.453125 95.21875 C50.31525469 108.81267127 50.15663925 122.40625326 50 136 C78.71 136 107.42 136 137 136 C137 136.33 137 136.66 137 137 C102.35 137 67.7 137 32 137 C32 189.47 32 241.94 32 296 C45.2 296 58.4 296 72 296 C72 315.8 72 335.6 72 356 C71.67 356 71.34 356 71 356 C71 336.53 71 317.06 71 297 C57.14 297 43.28 297 29 297 C29 321.09 29 345.18 29 370 C28.34 370 27.68 370 27 370 C27 345.25 27 320.5 27 295 C18.09 295 9.18 295 0 295 C0 197.65 0 100.3 0 0 Z " fill="#F5E2C4" transform="translate(112,413)"/>
<path d="M0 0 C14.19 0 28.38 0 43 0 C43 10.23 43 20.46 43 31 C32.77 31 22.54 31 12 31 C12 117.79 12 204.58 12 294 C-10.44 294 -32.88 294 -56 294 C-56 253.08 -56 212.16 -56 170 C-37.52 170 -19.04 170 0 170 C0 113.9 0 57.8 0 0 Z " fill="#A29DBE" transform="translate(667,730)"/>
<path d="M0 0 C26.07 0 52.14 0 79 0 C79 40.92 79 81.84 79 124 C52.93 124 26.86 124 0 124 C0 83.08 0 42.16 0 0 Z " fill="#B7B3D1" transform="translate(532,900)"/>
<path d="M0 0 C14.19 0 28.38 0 43 0 C43 58.74 43 117.48 43 178 C37.39 178 31.78 178 26 178 C26 202.42 26 226.84 26 252 C17.42 252 8.84 252 0 252 C0 168.84 0 85.68 0 0 Z " fill="#616288" transform="translate(326,682)"/>
<path d="M0 0 C22.44 0 44.88 0 68 0 C68 3.96 68 7.92 68 12 C62.06 12 56.12 12 50 12 C50 15.63 50 19.26 50 23 C51.05960938 22.97679687 52.11921875 22.95359375 53.2109375 22.9296875 C54.5989513 22.91093056 55.9869727 22.89273028 57.375 22.875 C58.42300781 22.84986328 58.42300781 22.84986328 59.4921875 22.82421875 C61.32897486 22.80655733 63.16601963 22.89696739 65 23 C65.99 23.99 65.99 23.99 67 25 C66.67 26.32 66.34 27.64 66 29 C60.72 29 55.44 29 50 29 C50 32.63 50 36.26 50 40 C56.27 40 62.54 40 69 40 C69 42.64 69 45.28 69 48 C74.61 48 80.22 48 86 48 C86 50.64 86 53.28 86 56 C74.12 56 62.24 56 50 56 C50 63.26 50 70.52 50 78 C55.94 78 61.88 78 68 78 C68 80.31 68 82.62 68 85 C62.06 85 56.12 85 50 85 C50 91.6 50 98.2 50 105 C55.94 105 61.88 105 68 105 C68 107.31 68 109.62 68 112 C62.06 112 56.12 112 50 112 C50 121.57 50 131.14 50 141 C39.44 141 28.88 141 18 141 C18 151.23 18 161.46 18 172 C12.06 172 6.12 172 0 172 C0 115.24 0 58.48 0 0 Z " fill="#606187" transform="translate(0,669)"/>
<path d="M0 0 C5.28 0 10.56 0 16 0 C16.11748131 26.35497287 15.88573244 52.65888253 15 79 C13.35 79 11.7 79 10 79 C10 89.23 10 99.46 10 110 C4.555 109.505 4.555 109.505 -1 109 C-1 99.1 -1 89.2 -1 79 C-3.18625 79.165 -5.3725 79.33 -7.625 79.5 C-15.10128044 80.03016793 -22.50186623 80.07730035 -30 80 C-30 88.91 -30 97.82 -30 107 C-30.33 107 -30.66 107 -31 107 C-31 97.76 -31 88.52 -31 79 C-45.52 79 -60.04 79 -75 79 C-75 135.1 -75 191.2 -75 249 C-85.56 249 -96.12 249 -107 249 C-107 198.18 -107 147.36 -107 95 C-100.07 95 -93.14 95 -86 95 C-86 84.44 -86 73.88 -86 63 C-57.95 63 -29.9 63 -1 63 C-1.03956631 43.76316955 -1.03956631 43.76316955 -1.09008789 24.52636719 C-1.09300823 22.11653691 -1.09555651 19.70670613 -1.09765625 17.296875 C-1.10277222 16.04342285 -1.10788818 14.7899707 -1.11315918 13.49853516 C-1.11334045 11.70246826 -1.11334045 11.70246826 -1.11352539 9.87011719 C-1.115746 8.83087097 -1.11796661 7.79162476 -1.12025452 6.72088623 C-1 4 -1 4 0 0 Z " fill="#B6AFCA" transform="translate(742,651)"/>
<path d="M0 0 C23.43 0 46.86 0 71 0 C71 24.75 71 49.5 71 75 C47.57 75 24.14 75 0 75 C0 50.25 0 25.5 0 0 Z " fill="#5E5F84" transform="translate(953,517)"/>
<path d="M0 0 C31.02 0 62.04 0 94 0 C94 15.51 94 31.02 94 47 C64.3 47 34.6 47 4 47 C4 36.77 4 26.54 4 16 C2.68 16 1.36 16 0 16 C0 10.72 0 5.44 0 0 Z " fill="#616187" transform="translate(758,714)"/>
<path d="M0 0 C16.17 0 32.34 0 49 0 C49 22.77 49 45.54 49 69 C32.83 69 16.66 69 0 69 C0 46.23 0 23.46 0 0 Z " fill="#9290B3" transform="translate(371,955)"/>
<path d="M0 0 C0.33 0 0.66 0 1 0 C1 83.16 1 166.32 1 252 C9.58 252 18.16 252 27 252 C27 227.58 27 203.16 27 178 C32.61 178 38.22 178 44 178 C44 178.33 44 178.66 44 179 C38.72 179 33.44 179 28 179 C28 232.79 28 286.58 28 342 C18.76 342 9.52 342 0 342 C0 229.14 0 116.28 0 0 Z " fill="#9895B7" transform="translate(325,682)"/>
<path d="M0 0 C4.62 0 9.24 0 14 0 C14 57.42 14 114.84 14 174 C9.38 174 4.76 174 0 174 C0 116.58 0 59.16 0 0 Z " fill="#77779E" transform="translate(254,850)"/>
<path d="M0 0 C4.62 0 9.24 0 14 0 C14 57.42 14 114.84 14 174 C9.38 174 4.76 174 0 174 C0 116.58 0 59.16 0 0 Z " fill="#797AA0" transform="translate(211,850)"/>
<path d="M0 0 C4.29 0 8.58 0 13 0 C13.58811259 44.97028468 14.10572334 89.93930158 14.12338257 134.91394806 C14.12500388 137.63149878 14.12856307 140.34904119 14.13256836 143.06658936 C14.13835103 147.31449265 14.13870166 151.56235987 14.13431931 155.81026459 C14.13332316 157.36636078 14.13390873 158.92245888 14.13615799 160.47855377 C14.13867862 162.5868153 14.13495674 164.69496924 14.12939453 166.80322266 C14.12859894 167.9832486 14.12780334 169.16327454 14.12698364 170.37905884 C14 173 14 173 13 174 C8.71 174 4.42 174 0 174 C0 116.58 0 59.16 0 0 Z " fill="#78799F" transform="translate(233,850)"/>
<path d="M0 0 C2.64 0 5.28 0 8 0 C8 78.54 8 157.08 8 238 C5.36 238 2.72 238 0 238 C0 159.46 0 80.92 0 0 Z " fill="#B7B3CF" transform="translate(805,786)"/>
<path d="M0 0 C2.64 0 5.28 0 8 0 C8 78.54 8 157.08 8 238 C5.36 238 2.72 238 0 238 C0 159.46 0 80.92 0 0 Z " fill="#B6B2CE" transform="translate(788,786)"/>
<path d="M0 0 C2.64 0 5.28 0 8 0 C8 78.54 8 157.08 8 238 C5.36 238 2.72 238 0 238 C0 159.46 0 80.92 0 0 Z " fill="#BAB5D0" transform="translate(771,786)"/>
<path d="M0 0 C6.6 0 13.2 0 20 0 C20 22.77 20 45.54 20 69 C13.4 69 6.8 69 0 69 C0 46.23 0 23.46 0 0 Z " fill="#9896B7" transform="translate(371,955)"/>
<path d="M0 0 C23.1 0 46.2 0 70 0 C70 6.27 70 12.54 70 19 C46.9 19 23.8 19 0 19 C0 12.73 0 6.46 0 0 Z " fill="#5E6087" transform="translate(954,635)"/>
<path d="M0 0 C23.1 0 46.2 0 70 0 C70 6.27 70 12.54 70 19 C46.9 19 23.8 19 0 19 C0 12.73 0 6.46 0 0 Z " fill="#5F6087" transform="translate(954,604)"/>
<path d="M0 0 C0 36.96 0 73.92 0 112 C-9 107 -9 107 -10 104 C-10.10379697 101.05509106 -10.14998639 98.13440166 -10.14868164 95.18920898 C-10.15192444 94.2879982 -10.15516724 93.38678741 -10.1585083 92.45826721 C-10.18320131 83.02613684 -10.1379753 73.59384375 -10.08764648 64.16186523 C-10.06604327 59.69121733 -10.0662255 55.22138665 -10.08569336 50.75073242 C-10.10903271 45.34566209 -10.09325263 39.94200121 -10.05013847 34.53706551 C-10.04022107 32.4827379 -10.04384553 30.42829634 -10.06160164 28.37402153 C-10.21032858 8.96801227 -10.21032858 8.96801227 -2.81126404 1.43397522 C-1 0 -1 0 0 0 Z " fill="#FEE9C1" transform="translate(821,524)"/>
<path d="M0 0 C3.63 0 7.26 0 11 0 C11 22.77 11 45.54 11 69 C7.37 69 3.74 69 0 69 C0 46.23 0 23.46 0 0 Z " fill="#8082AA" transform="translate(391,955)"/>
<path d="M0 0 C8.53595624 0.37032348 17.07172131 1.84029757 23.875 7.3125 C25.85018813 9.28584059 25.85018813 9.28584059 28.28515625 8.7578125 C31.20851904 7.94179468 33.8042629 6.82716109 36.5625 5.5625 C44.76604114 2.06690242 53.09750032 0.59534092 62 1 C58.9462063 3.40974716 55.77303353 5.3002017 52.375 7.1875 C42.21423524 13.08173004 34.12045794 20.5685458 26 29 C23.24947757 26.50181908 21.40877103 23.70035476 19.4375 20.5625 C18.53837891 19.14130859 18.53837891 19.14130859 17.62109375 17.69140625 C16 15 16 15 15.03515625 12.77734375 C13.69954281 10.48412068 12.39036501 10.08573356 10 9 C8.59189279 7.87351423 7.21712521 6.70434049 5.875 5.5 C5.19179688 4.8915625 4.50859375 4.283125 3.8046875 3.65625 C2.50880012 2.46695076 1.24373566 1.24373566 0 0 Z " fill="#C8BFCC" transform="translate(544,579)"/>
<path d="M0 0 C12.69412313 0.05082732 24.8816543 1.16612266 34.8671875 10.07421875 C37.39447263 12.94753803 39.19530089 15.81057625 40.83984375 19.265625 C41.39671875 19.07226562 41.95359375 18.87890625 42.52734375 18.6796875 C44.95746716 17.85048998 47.39524964 17.0511137 49.83984375 16.265625 C50.49726562 16.05292969 51.1546875 15.84023438 51.83203125 15.62109375 C57.48858525 13.98984685 62.98782583 14.07199205 68.83984375 14.265625 C66.04869464 16.12639107 63.37743369 17.42523807 60.33984375 18.828125 C52.92606143 22.48090096 46.67372487 27.43174388 40.83984375 33.265625 C39.51984375 33.265625 38.19984375 33.265625 36.83984375 33.265625 C36.36417969 32.26595703 36.36417969 32.26595703 35.87890625 31.24609375 C29.24580753 18.14480761 20.69299699 9.33903858 6.83984375 4.265625 C2.84983034 3.29437174 -1.07153384 2.63255265 -5.16015625 2.265625 C-3.16015625 0.265625 -3.16015625 0.265625 0 0 Z " fill="#66678C" transform="translate(612.16015625,426.734375)"/>
<path d="M0 0 C1.65 0 3.3 0 5 0 C5.33 0.99 5.66 1.98 6 3 C6.66 2.01 7.32 1.02 8 0 C8 22.44 8 44.88 8 68 C5.36 68 2.72 68 0 68 C0 45.56 0 23.12 0 0 Z " fill="#717399" transform="translate(409,956)"/>
<path d="M0 0 C2.64 0 5.28 0 8 0 C8.92160371 22.67488277 9.1239777 45.30826697 9 68 C6.36 68 3.72 68 1 68 C0.67 45.56 0.34 23.12 0 0 Z " fill="#7F81AA" transform="translate(375,956)"/>
<path d="M0 0 C0.33 0 0.66 0 1 0 C1 50.82 1 101.64 1 154 C-32.99 154 -66.98 154 -102 154 C-102 128.59 -102 103.18 -102 77 C-101.67 77 -101.34 77 -101 77 C-101 102.08 -101 127.16 -101 153 C-51.995 152.505 -51.995 152.505 -2 152 C-1.82164767 129.13184068 -1.82164767 129.13184068 -1.64453125 106.26367188 C-1.57248658 96.92634789 -1.50031151 87.58902505 -1.42724609 78.25170898 C-1.37401291 71.44875028 -1.32125136 64.64578811 -1.26903296 57.84282154 C-1.24142313 54.24790392 -1.21359293 50.65298835 -1.18519592 47.05807686 C-1.15333992 43.02383068 -1.12251928 38.98957723 -1.09179688 34.95532227 C-1.08187965 33.71196389 -1.07196243 32.46860552 -1.06174469 31.18756962 C-1.02270911 25.95263806 -0.99245011 20.71889387 -1.02172852 15.4838562 C-1.02579964 14.68497703 -1.02987076 13.88609785 -1.03406525 13.06301022 C-1.04748234 11.05648643 -1.06831101 9.05001563 -1.08996582 7.04356384 C-1.01427696 4.48299268 -0.7675307 2.42723808 0 0 Z " fill="#F2E2C0" transform="translate(634,746)"/>
<path d="M0 0 C11.35602927 0.74465766 20.64059152 4.08152736 29 12 C31 15 31 15 31 18 C31.59683594 17.71125 32.19367187 17.4225 32.80859375 17.125 C41.58204302 13.37053731 49.65316318 13.60552623 59 14 C59.495 14.99 59.495 14.99 60 16 C59.29617188 16.13535156 58.59234375 16.27070313 57.8671875 16.41015625 C46.55442395 18.87651593 36.90178138 24.10608251 27 30 C26.59910156 29.32195312 26.19820312 28.64390625 25.78515625 27.9453125 C20.11051481 18.65485644 13.75602553 10.47791883 4.7265625 4.25390625 C2.96342567 2.9734381 1.49899132 1.57715958 0 0 Z " fill="#65678D" transform="translate(608,471)"/>
<path d="M0 0 C8.54713845 2.30348412 16.21205837 5.65528304 21.0625 13.375 C21.72844976 14.57236421 22.38231198 15.7770398 23 17 C23.66644531 16.67386719 24.33289063 16.34773437 25.01953125 16.01171875 C37.03093612 10.31680092 46.83907304 8.52045205 60 9 C56.78785216 11.1414319 53.8090894 12.23142369 50.1875 13.5625 C43.22304222 16.22215179 37.25944978 19.75638287 31.12109375 23.94921875 C23.46150583 28.98211444 23.46150583 28.98211444 19.765625 29.02734375 C17.068508 27.45800355 16.74338313 25.47222299 15.75 22.5625 C13.21194139 15.97451454 9.62697456 11.26131785 5 6 C3.9968449 4.79428474 2.99628806 3.5863957 2 2.375 C1.34 1.59125 0.68 0.8075 0 0 Z " fill="#5F6286" transform="translate(612,516)"/>
<path d="M0 0 C10.06267348 1.56144933 20.43052226 6.08502598 28 13 C28 13.66 28 14.32 28 15 C28.57105469 14.54109375 29.14210938 14.0821875 29.73046875 13.609375 C36.28838478 8.64662773 42.86453623 5.49921826 51 4 C53.18017578 4.46679688 53.18017578 4.46679688 55 5 C53.92621094 5.4846875 52.85242188 5.969375 51.74609375 6.46875 C40.22290012 11.67049426 40.22290012 11.67049426 32 21 C31.86980469 21.67933594 31.73960937 22.35867188 31.60546875 23.05859375 C30.73490263 25.85002189 29.27070543 26.43112004 26.75 27.8125 C25.98171875 28.25207031 25.2134375 28.69164062 24.421875 29.14453125 C20.72048637 30.45195723 18.15945759 29.53272376 14.6875 27.9375 C14.130625 27.628125 13.57375 27.31875 13 27 C14.31224548 23.06326356 15.91910327 20.77280706 19 18 C17.85156176 16.85156176 16.70245907 15.70378324 15.55078125 14.55859375 C14.47529007 13.47768448 13.41087417 12.3856859 12.35546875 11.28515625 C8.50308883 7.31103068 4.54418852 4.1531104 0 1 C0 0.67 0 0.34 0 0 Z " fill="#CDC6D9" transform="translate(830,393)"/>
<path d="M0 0 C11.88 0 23.76 0 36 0 C36 3.96 36 7.92 36 12 C24.12 12 12.24 12 0 12 C0 8.04 0 4.08 0 0 Z " fill="#9A97B8" transform="translate(50,725)"/>
<path d="M0 0 C4.62 0 9.24 0 14 0 C14 9.9 14 19.8 14 30 C9.38 30 4.76 30 0 30 C0 20.1 0 10.2 0 0 Z " fill="#727298" transform="translate(726,731)"/>
<path d="M0 0 C4.29 0 8.58 0 13 0 C13 10.23 13 20.46 13 31 C8.71 31 4.42 31 0 31 C0 20.77 0 10.54 0 0 Z " fill="#64658A" transform="translate(697,730)"/>
<path d="M0 0 C7.47566675 1.86891669 13.73325682 6.59988522 18 13 C18 13.66 18 14.32 18 15 C18.71285156 14.66226562 19.42570313 14.32453125 20.16015625 13.9765625 C29.84338585 9.46727927 37.30694156 7.68394901 48 8 C45.1937413 9.87083913 42.48693152 11.2016669 39.4375 12.625 C32.04935691 16.28329361 25.69278877 20.97008675 20.125 27.0625 C18 29 18 29 15.98046875 28.95703125 C14 28 14 28 12.98046875 25.6640625 C12.71878906 24.66117187 12.45710937 23.65828125 12.1875 22.625 C10.03692333 15.48201321 6.67416837 8.60721314 1.28515625 3.31640625 C0 2 0 2 0 0 Z " fill="#ACA9BE" transform="translate(731,359)"/>
<path d="M0 0 C8.60094862 -0.76189505 15.44843642 0.73611566 23 5 C24.34628311 6.32025655 25.68268534 7.65083817 27 9 C29.35067248 8.85308297 30.73792194 8.15075287 32.765625 6.984375 C35.47817287 5.78933643 37.79970689 5.58573522 40.75 5.375 C41.73484375 5.30023438 42.7196875 5.22546875 43.734375 5.1484375 C44.48203125 5.09945313 45.2296875 5.05046875 46 5 C43.49946104 7.60472808 40.87210241 9.97588415 38.125 12.3125 C34.33084402 15.59508439 31.17028432 19.11640171 28 23 C26.234375 22.82421875 26.234375 22.82421875 24 22 C22.140625 19.70703125 22.140625 19.70703125 20.25 16.8125 C14.76072359 8.9648678 8.57734826 4.98234026 0 1 C0 0.67 0 0.34 0 0 Z " fill="#B3ACC3" transform="translate(550,504)"/>
<path d="M0 0 C3.3 0 6.6 0 10 0 C10 10.23 10 20.46 10 31 C6.7 31 3.4 31 0 31 C0 20.77 0 10.54 0 0 Z " fill="#8C8AAA" transform="translate(752,730)"/>
<path d="M0 0 C2.9375 2.5625 2.9375 2.5625 5 5 C5 5.66 5 6.32 5 7 C6.5778125 6.2575 6.5778125 6.2575 8.1875 5.5 C13.90193033 3.33528761 19.97337936 3.34270568 26 4 C26.66 4.66 27.32 5.32 28 6 C26.205625 6.0309375 26.205625 6.0309375 24.375 6.0625 C17.2518796 6.81230215 8.12652275 10.87347725 3 16 C0.29613612 15.80647191 -0.80175647 15.19380856 -2.74609375 13.29296875 C-3.30425781 12.59816406 -3.86242187 11.90335937 -4.4375 11.1875 C-8.7448969 6.05528242 -12.91069084 2.85031493 -19 0 C-20.33333333 -0.66666667 -21.66666667 -1.33333333 -23 -2 C-15.35303528 -4.26306355 -6.89344882 -4.07979624 0 0 Z " fill="#8385AC" transform="translate(803,434)"/>
<path d="M0 0 C8.74109708 2.18527427 14.2720202 7.61253157 19 15 C20.45019531 14.36771484 20.45019531 14.36771484 21.9296875 13.72265625 C29.27961208 10.60118346 35.88082441 8.03820789 44 8 C40.79442902 10.51038691 37.42864509 12.59620653 33.9375 14.6875 C27.69858012 18.46488402 21.8272268 22.60914373 16 27 C13.62825811 24.62825811 13.04184683 22.6999308 11.875 19.5625 C9.53950238 13.76571099 6.47601509 9.1136286 2.671875 4.1796875 C1 2 1 2 0 0 Z " fill="#A39FBC" transform="translate(693,514)"/>
<path d="M0 0 C0.33 0 0.66 0 1 0 C1.33 13.2 1.66 26.4 2 40 C1.979375 35.99875 1.95875 31.9975 1.9375 27.875 C1.91362188 18.53341271 2.05301592 9.30073652 3 0 C3.99 0 4.98 0 6 0 C6 22.44 6 44.88 6 68 C4.02 68 2.04 68 0 68 C0 45.56 0 23.12 0 0 Z " fill="#8C8CB0" transform="translate(385,956)"/>
<path d="M0 0 C1.32 0 2.64 0 4 0 C4 22.77 4 45.54 4 69 C2.68 69 1.36 69 0 69 C0 46.23 0 23.46 0 0 Z " fill="#656889" transform="translate(391,955)"/>
<path d="M0 0 C1.32 0 2.64 0 4 0 C4 22.77 4 45.54 4 69 C2.68 69 1.36 69 0 69 C0 46.23 0 23.46 0 0 Z " fill="#737696" transform="translate(363,955)"/>
<path d="M0 0 C2.31 0 4.62 0 7 0 C7 22.77 7 45.54 7 69 C6.01 69 5.02 69 4 69 C4 46.56 4 24.12 4 1 C3.34 1 2.68 1 2 1 C2 9.91 2 18.82 2 28 C1.67 28 1.34 28 1 28 C0.67 18.76 0.34 9.52 0 0 Z " fill="#8688B0" transform="translate(395,955)"/>
<path d="M0 0 C9.2193789 2.43289166 15.53295262 7.12876216 22 14 C23.17755859 13.38511719 23.17755859 13.38511719 24.37890625 12.7578125 C32.52728711 8.57864293 38.67811517 5.6195149 48 6 C45.23383499 8.76616501 41.86402669 10.08554268 38.375 11.75 C32.96546159 14.3637592 28.13719795 16.96701381 23.67578125 21.06640625 C22 22 22 22 19.484375 21.94921875 C16.21497843 20.70006251 15.5617344 19.30844695 13.9375 16.25 C13.42960938 15.34378906 12.92171875 14.43757813 12.3984375 13.50390625 C11.70621094 12.26447266 11.70621094 12.26447266 11 11 C7.9221164 6.53210445 4.41057049 4.05347187 0 1 C0 0.67 0 0.34 0 0 Z " fill="#B2ACC3" transform="translate(669,475)"/>
<path d="M0 0 C7.27412723 1.69928382 12.29987813 4.22085852 18 9 C19.32828295 10.00669866 20.66031994 11.00851872 22 12 C22.47308594 11.67386719 22.94617188 11.34773438 23.43359375 11.01171875 C32.33040117 5.13254192 40.40688456 3.51979754 51 3 C48.20591677 4.86272215 46.08888425 5.71616459 42.9375 6.75 C33.58518196 10.09363877 26.18935722 15.21228285 19 22 C16.81674759 19.81674759 16.05815786 18.05591874 14.8125 15.25 C11.40417282 8.2825347 6.61187354 4.80683628 0 1 C0 0.67 0 0.34 0 0 Z " fill="#A8A8C0" transform="translate(727,399)"/>
<path d="M0 0 C3.33136597 1.42353524 5.27664757 3.1335313 7.625 5.875 C8.21539063 6.55304688 8.80578125 7.23109375 9.4140625 7.9296875 C11.80058682 11.04510102 13 13.0333629 13 17 C13.75023437 16.59007812 14.50046875 16.18015625 15.2734375 15.7578125 C21.80312825 12.32026749 27.66558121 9.94114223 35 9 C32.5920831 11.54125432 29.96144966 13.61947031 27.1875 15.75 C23.94891817 18.30304261 21.12130845 20.81559566 18.5 24 C17.2625 25.485 17.2625 25.485 16 27 C15.34 27 14.68 27 14 27 C13.49210938 25.97261719 12.98421875 24.94523437 12.4609375 23.88671875 C8.46520435 15.83294081 4.38993971 7.84868009 0 0 Z " fill="#BAB3C5" transform="translate(725,433)"/>
<path d="M0 0 C0.33 0 0.66 0 1 0 C1 22.44 1 44.88 1 68 C0.01 68 -0.98 68 -2 68 C-2.04631753 59.5768788 -2.08186618 51.15381071 -2.10362434 42.73059368 C-2.11406657 38.81945488 -2.12823372 34.90840314 -2.15087891 30.99731445 C-2.17259173 27.22368831 -2.18456532 23.45014596 -2.18975449 19.67646217 C-2.19345306 18.23593641 -2.20067536 16.79541529 -2.21146011 15.35492516 C-2.22595347 13.33911986 -2.22681674 11.32323044 -2.22705078 9.30737305 C-2.231492 8.15931686 -2.23593323 7.01126068 -2.24050903 5.82841492 C-2 3 -2 3 0 0 Z " fill="#7E7FA5" transform="translate(416,956)"/>
<path d="M0 0 C6.94651098 3.89682323 11.5407673 9.88748919 15 17 C15.55461914 16.87359131 16.10923828 16.74718262 16.68066406 16.61694336 C19.20177895 16.04782092 21.72574955 15.49254201 24.25 14.9375 C25.12269531 14.73833984 25.99539063 14.53917969 26.89453125 14.33398438 C27.73886719 14.15029297 28.58320312 13.96660156 29.453125 13.77734375 C30.61569824 13.51812134 30.61569824 13.51812134 31.80175781 13.25366211 C34.15175291 12.98248875 35.76197268 13.28445541 38 14 C34.62978414 15.49024067 31.25307726 16.96517664 27.875 18.4375 C26.44800781 19.06881836 26.44800781 19.06881836 24.9921875 19.71289062 C20.33946677 21.73230067 16.10887659 23.52695587 11 24 C10.18595703 22.35451172 10.18595703 22.35451172 9.35546875 20.67578125 C8.6329203 19.22130061 7.91025804 17.7668765 7.1875 16.3125 C6.83107422 15.59126953 6.47464844 14.87003906 6.10742188 14.12695312 C4.57880065 11.05568662 3.05222323 8.08395087 1.23828125 5.16796875 C0 3 0 3 0 0 Z " fill="#B1ACC1" transform="translate(697,443)"/>
<path d="M0 0 C5.25326356 2.62663178 8.10863162 4.67988218 11 10 C11 10.66 11 11.32 11 12 C11.49886719 11.72285156 11.99773438 11.44570313 12.51171875 11.16015625 C19.23761427 7.76702045 25.53540422 7.23074485 33 7 C29.74768293 9.60978614 26.31522594 11.50636778 22.625 13.4375 C18.21790768 15.74425675 14.09217103 18.18740511 10 21 C7.68112538 18.14752071 6.27255366 15.50369719 5 12.0625 C3.61825368 8.45401635 2.05211113 5.2833778 0 2 C0 1.34 0 0.68 0 0 Z " fill="#BDB3C4" transform="translate(730,479)"/>
<path d="M0 0 C6.56935936 0.99806593 10.90885874 2.66711382 16 7 C16 7.66 16 8.32 16 9 C16.59425781 8.60167969 17.18851563 8.20335937 17.80078125 7.79296875 C25.36074999 2.96070257 32.89307368 -0.29429923 42 0 C39.46859694 2.53140306 36.87282012 3.54613365 33.625 5.0625 C26.36592001 8.54810833 20.25693858 12.94631884 14 18 C13.34 17.67 12.68 17.34 12 17 C11.578125 15.109375 11.578125 15.109375 11.25 12.75 C10.55091353 9.26566427 9.84816008 7.32631765 7.125 5 C4.57884827 3.37046289 2.9559728 2.34107378 0 2 C0 1.34 0 0.68 0 0 Z " fill="#AEAABF" transform="translate(652,402)"/>
<path d="M0 0 C14.52 0 29.04 0 44 0 C44 12.21 44 24.42 44 37 C41.60401724 33.40602586 41.74191051 30.85204241 41.8046875 26.70703125 C41.80968262 25.41514893 41.81467773 24.1232666 41.81982422 22.79223633 C41.83803223 21.14892334 41.85624023 19.50561035 41.875 17.8125 C41.91625 12.594375 41.9575 7.37625 42 2 C21.21 2.495 21.21 2.495 0 3 C0 2.01 0 1.02 0 0 Z " fill="#E2D5C0" transform="translate(433,860)"/>
<path d="M0 0 C0.99 0 1.98 0 3 0 C3.02476651 5.32022769 3.04289156 10.64042162 3.05493164 15.96069336 C3.05995238 17.76961858 3.06677029 19.57853976 3.07543945 21.38745117 C3.08760402 23.99138386 3.09325098 26.59526277 3.09765625 29.19921875 C3.10281754 30.00461594 3.10797882 30.81001312 3.11329651 31.63981628 C3.11368637 35.56472601 2.97084755 39.16699982 2 43 C1.67 43 1.34 43 1 43 C0.00449294 38.04657734 -0.13097403 33.34489309 -0.09765625 28.3203125 C-0.0962413 27.50754852 -0.09482635 26.69478455 -0.09336853 25.85739136 C-0.08780335 23.27988899 -0.0752574 20.7024758 -0.0625 18.125 C-0.0574805 16.36979293 -0.05291838 14.61458448 -0.04882812 12.859375 C-0.03784534 8.57288268 -0.02060492 4.28645643 0 0 Z " fill="#5C5F80" transform="translate(392,956)"/>
<path d="M0 0 C1.65 0 3.3 0 5 0 C4.34 0.66 3.68 1.32 3 2 C2.62950699 4.22556023 2.62950699 4.22556023 2.5859375 6.796875 C2.54726563 7.7559375 2.50859375 8.715 2.46875 9.703125 C2.4378125 10.70859375 2.406875 11.7140625 2.375 12.75 C2.33632813 13.74 2.29765625 14.73 2.2578125 15.75 C2.07994281 20.5016618 1.9514728 25.24433461 2 30 C1.34 30 0.68 30 0 30 C0 20.1 0 10.2 0 0 Z " fill="#E2D6C1" transform="translate(860,802)"/>
<path d="M0 0 C-0.33 1.65 -0.66 3.3 -1 5 C-4.96 5.66 -8.92 6.32 -13 7 C-13 5.68 -13 4.36 -13 3 C-11.39743892 2.49487756 -9.79288208 1.99608373 -8.1875 1.5 C-7.29417969 1.2215625 -6.40085937 0.943125 -5.48046875 0.65625 C-3 0 -3 0 0 0 Z " fill="#C9C3D5" transform="translate(809,384)"/>
<path d="M0 0 C1.05960938 0.00676758 1.05960938 0.00676758 2.140625 0.01367188 C3.88545275 0.02546125 5.630237 0.04339676 7.375 0.0625 C4.25254953 2.14413365 1.30465119 3.38825613 -2.1875 4.75 C-3.34378906 5.20761719 -4.50007812 5.66523437 -5.69140625 6.13671875 C-8.625 7.0625 -8.625 7.0625 -10.625 6.0625 C-8.975 5.4025 -7.325 4.7425 -5.625 4.0625 C-5.625 3.4025 -5.625 2.7425 -5.625 2.0625 C-6.945 1.7325 -8.265 1.4025 -9.625 1.0625 C-6.55966836 -0.47016582 -3.35745728 -0.04026471 0 0 Z " fill="#5A5B7F" transform="translate(664.625,524.9375)"/>
<path d="M0 0 C1.65 0 3.3 0 5 0 C4.34 2.31 3.68 4.62 3 7 C-2.61 7 -8.22 7 -14 7 C-14 10.3 -14 13.6 -14 17 C-14.33 17 -14.66 17 -15 17 C-15 13.37 -15 9.74 -15 6 C-7.08 5.505 -7.08 5.505 1 5 C0.67 3.35 0.34 1.7 0 0 Z " fill="#8484A8" transform="translate(65,692)"/>
<path d="M0 0 C-7.71428571 6 -7.71428571 6 -12 6 C-12 5.34 -12 4.68 -12 4 C-12.99 3.67 -13.98 3.34 -15 3 C-9.89665983 1.094753 -5.53657294 -0.42589023 0 0 Z " fill="#9A99B2" transform="translate(737,522)"/>
<path d="M0 0 C5.61 0 11.22 0 17 0 C17.33 0.66 17.66 1.32 18 2 C16.39950296 2.39036513 14.79437629 2.76178619 13.1875 3.125 C12.29417969 3.33382813 11.40085937 3.54265625 10.48046875 3.7578125 C8 4 8 4 5 2 C3.34450469 1.61500109 1.6777567 1.27206865 0 1 C0 0.67 0 0.34 0 0 Z " fill="#727696" transform="translate(650,485)"/>
<path d="M0 0 C0.66 0 1.32 0 2 0 C2.6496875 1.2375 2.6496875 1.2375 3.3125 2.5 C4.1478125 3.7375 4.1478125 3.7375 5 5 C7.62694422 5.41780879 7.62694422 5.41780879 10 5 C10 4.34 10 3.68 10 3 C13.465 2.505 13.465 2.505 17 2 C15.53092999 4.93814003 13.40552194 5.3286226 10.4375 6.625 C9.42558594 7.07101562 8.41367187 7.51703125 7.37109375 7.9765625 C6.58863281 8.31429687 5.80617188 8.65203125 5 9 C3.35 6.03 1.7 3.06 0 0 Z " fill="#E9DEC6" transform="translate(630,525)"/>
<path d="M0 0 C0.33 0 0.66 0 1 0 C1 7.59 1 15.18 1 23 C0.01 22.67 -0.98 22.34 -2 22 C-1.505 20.515 -1.505 20.515 -1 19 C-0.85426942 17.52034074 -0.75336732 16.03596157 -0.68359375 14.55078125 C-0.64169922 13.70322266 -0.59980469 12.85566406 -0.55664062 11.98242188 C-0.49766602 10.66081055 -0.49766602 10.66081055 -0.4375 9.3125 C-0.39431641 8.41982422 -0.35113281 7.52714844 -0.30664062 6.60742188 C-0.20064647 4.40509892 -0.09857949 2.20266527 0 0 Z " fill="#686A90" transform="translate(739,738)"/>
<path d="M0 0 C1.46224799 0.42423244 2.91973412 0.86490245 4.375 1.3125 C5.18710937 1.55613281 5.99921875 1.79976563 6.8359375 2.05078125 C9 3 9 3 11 6 C10.34 6.66 9.68 7.32 9 8 C7.49712782 6.85793642 5.99776716 5.71125043 4.5 4.5625 C3.6646875 3.92441406 2.829375 3.28632813 1.96875 2.62890625 C1.3190625 2.09136719 0.669375 1.55382812 0 1 C0 0.67 0 0.34 0 0 Z " fill="#A8A2B8" transform="translate(669,475)"/>
<path d="M0 0 C2.97 0.33 5.94 0.66 9 1 C8.67 2.65 8.34 4.3 8 6 C6.66402348 5.19185349 5.331275 4.37836819 4 3.5625 C3.2575 3.11003906 2.515 2.65757812 1.75 2.19140625 C1.1725 1.79824219 0.595 1.40507812 0 1 C0 0.67 0 0.34 0 0 Z " fill="#707096" transform="translate(608,471)"/>
<path d="M0 0 C3.63 0 7.26 0 11 0 C8.33440687 1.77706209 5.9719385 2.87548273 3 4 C1.97895449 3.02149805 0.9793879 2.02019573 0 1 C0 0.67 0 0.34 0 0 Z " fill="#74789B" transform="translate(670,441)"/>
<path d="M0 0 C3.63 0 7.26 0 11 0 C7 2 7 2 4 3 C2.68 2.01 1.36 1.02 0 0 Z " fill="#BAB4C6" transform="translate(550,504)"/>
<path d="M0 0 C-3.00617269 3.00617269 -5.82381598 2.59585316 -10 3 C-8.0130571 -0.97388579 -3.91761109 -0.08705802 0 0 Z " fill="#595D88" transform="translate(668,443)"/>
<path d="M0 0 C-2.46278801 2.46278801 -4.70676982 2.99771255 -8 4 C-8.66 3.01 -9.32 2.02 -10 1 C-6.59437148 0.22157062 -3.49234244 -0.09978121 0 0 Z " fill="#B0AEC0" transform="translate(694,402)"/>
</svg>
