<?xml version="1.0" encoding="UTF-8" standalone="no"?>
<svg
   version="1.1"
   width="1024"
   height="1024"
   id="svg34"
   sodipodi:docname="5-city-about-blank.svg"
   inkscape:version="1.4.2 (f4327f4, 2025-05-13)"
   xmlns:inkscape="http://www.inkscape.org/namespaces/inkscape"
   xmlns:sodipodi="http://sodipodi.sourceforge.net/DTD/sodipodi-0.dtd"
   xmlns="http://www.w3.org/2000/svg"
   xmlns:svg="http://www.w3.org/2000/svg">
  <defs
     id="defs34" />
  <sodipodi:namedview
     id="namedview34"
     pagecolor="#ffffff"
     bordercolor="#000000"
     borderopacity="0.25"
     inkscape:showpageshadow="2"
     inkscape:pageopacity="0.0"
     inkscape:pagecheckerboard="0"
     inkscape:deskcolor="#d1d1d1"
     inkscape:zoom="0.78808594"
     inkscape:cx="511.36555"
     inkscape:cy="512"
     inkscape:window-width="1920"
     inkscape:window-height="1009"
     inkscape:window-x="1912"
     inkscape:window-y="-8"
     inkscape:window-maximized="1"
     inkscape:current-layer="svg34" />
  <path
     d="M0 0 C3.41709609 3.41709609 6.20502891 6.8531361 9 10.75 C9.98093772 12.10346878 10.96273741 13.45631318 11.9453125 14.80859375 C12.4496582 15.5032373 12.95400391 16.19788086 13.47363281 16.91357422 C15.90647801 20.23908527 18.39199117 23.52437945 20.875 26.8125 C25.20091149 32.55099719 29.43422472 38.34968977 33.625 44.1875 C38.5158776 50.99357563 43.52634421 57.67744166 48.67382812 64.29248047 C56.58717438 74.48135081 64.34415151 84.77779741 71.97070312 95.18286133 C75.34009927 99.77239015 78.75406554 104.31872257 82.25 108.8125 C86.09649305 113.76880088 89.75407727 118.83004687 93.37182617 123.953125 C99.24915381 132.33748518 99.24915381 132.33748518 106 140 C106.09780042 142.61762734 106.12994511 145.20885307 106.12025452 147.82691956 C106.12153615 149.07164289 106.12153615 149.07164289 106.12284368 150.34151214 C106.12450103 153.14379319 106.11897297 155.94601541 106.11352539 158.74829102 C106.11324355 160.74841307 106.1134012 162.74853523 106.1139679 164.74865723 C106.11425598 170.19678035 106.10835745 175.64488166 106.10139394 181.0929997 C106.09516226 186.77984842 106.09455675 192.46669758 106.09336853 198.15354919 C106.09025466 208.93059959 106.08204053 219.7076399 106.07201904 230.48468584 C106.06085962 242.75049607 106.05534789 255.01630678 106.05032361 267.28212082 C106.03985796 292.52141949 106.02225745 317.76070918 106 343 C106.8657666 342.98428955 107.7315332 342.9685791 108.62353516 342.95239258 C111.9076158 342.90055249 115.19124742 342.86331158 118.47558594 342.83520508 C119.88353435 342.82033238 121.2914383 342.80002781 122.69921875 342.77368164 C131.52627286 342.61290316 139.43439668 343.17283689 148.04626465 345.30151367 C150.65484329 345.91837886 153.1144439 346.29064097 155.78125 346.5 C160.60318107 346.9464751 164.9487611 348.40254529 169.5 350 C170.30953125 350.27328125 171.1190625 350.5465625 171.953125 350.828125 C177.84470663 352.84470663 177.84470663 352.84470663 179 354 C181.82487492 354.24340654 184.62657735 354.42381963 187.45730591 354.55639648 C188.31499954 354.59857772 189.17269318 354.64075895 190.05637753 354.68421841 C198.60123568 355.07550288 207.13108416 355.12733202 215.68310547 355.09765625 C217.3526505 355.09572961 219.02219612 355.09426936 220.69174194 355.0932312 C224.24095659 355.09010884 227.79014644 355.08390121 231.33935165 355.07516479 C236.95426996 355.06148196 242.56918052 355.05571617 248.18411255 355.05102539 C260.0810859 355.04000545 271.97803965 355.02041919 283.875 355 C296.77222798 354.97792934 309.66944845 354.95740676 322.56669152 354.94658184 C328.14755808 354.94160735 333.72838821 354.93176228 339.3092401 354.91815186 C342.77075623 354.91069726 346.23226736 354.90737796 349.69379044 354.9051857 C351.29781646 354.90331331 352.90184154 354.89971161 354.50585938 354.89425278 C356.69483739 354.88703668 358.88373549 354.88599896 361.07272339 354.88647461 C362.29707533 354.884254 363.52142727 354.88203339 364.78288078 354.87974548 C368 355 368 355 373 356 C373 422.33 373 488.66 373 557 C377.62 557.33 382.24 557.66 387 558 C391.17309267 558.53615261 395.31997933 559.10483381 399.4765625 559.7421875 C401.17357803 559.99574509 401.17357803 559.99574509 402.90487671 560.25442505 C406.47902339 560.78961921 410.05201075 561.3321385 413.625 561.875 C415.9934158 562.23096001 418.36190501 562.58643192 420.73046875 562.94140625 C425.37389972 563.63807436 430.01676412 564.33834611 434.65917969 565.04174805 C438.38814438 565.60645747 442.11754957 566.16748222 445.84863281 566.71801758 C456.77510484 568.33243857 467.68512411 570.04714509 478.59375 571.77734375 C479.79190401 571.96733067 479.79190401 571.96733067 481.01426315 572.1611557 C488.51504052 573.35076465 496.01560091 574.54173459 503.515625 575.73608398 C508.45797825 576.52291703 513.40068861 577.30747177 518.34375 578.08984375 C519.14768188 578.21713238 519.95161377 578.34442101 520.77990723 578.47556686 C532.34174099 580.30278495 543.91145648 582.04260825 555.51013184 583.62278748 C562.04096904 584.52477578 568.52754012 585.60606022 575.01558781 586.7712574 C584.93357014 588.54119867 594.88870708 590.08206585 604.83984375 591.65234375 C607.0177235 591.99708237 609.19558465 592.34193858 611.37342834 592.68690491 C615.9175086 593.40636539 620.46174204 594.1248473 625.00610352 594.8425293 C630.75153516 595.74991042 636.49668198 596.65907927 642.24172878 597.56889343 C671.73741876 602.24057619 671.73741876 602.24057619 701.25021362 606.80256653 C709.03581558 607.99480439 716.79934376 609.29400153 724.5625 610.625 C744.67275086 614.03445912 764.83995879 617.08193859 785.00195312 620.16625977 C787.81381164 620.59645447 790.62565895 621.0267224 793.4375 621.45703125 C794.13252121 621.56336443 794.82754242 621.66969761 795.54362488 621.77925301 C812.19208724 624.32724124 828.82982993 626.94294601 845.46508789 629.57568359 C846.46270142 629.73309525 847.46031494 629.8905069 848.48815918 630.0526886 C850.31808736 630.34144423 852.14785603 630.63121372 853.97741699 630.92228699 C857.82738985 631.52926276 861.66821216 632.08822061 865.54077148 632.53100586 C869 633 869 633 870 634 C870 640.93 870 647.86 870 655 C532.08 655 194.16 655 -154 655 C-154 523.99 -154 392.98 -154 258 C-149.05 255.03 -144.1 252.06 -139 249 C-135.24712058 246.73368341 -131.49599824 244.46509921 -127.75 242.1875 C-126.28602783 241.29756348 -126.28602783 241.29756348 -124.79248047 240.38964844 C-117.74716608 236.09442344 -110.76674939 231.70504021 -103.80639648 227.27392578 C-97.87259857 223.5123274 -91.85733122 219.90797744 -85.77978516 216.38378906 C-82.35947712 214.39968458 -78.95306172 212.39388588 -75.57421875 210.33984375 C-74.91381592 209.94015381 -74.25341309 209.54046387 -73.57299805 209.12866211 C-71.84150669 208.07134264 -71.84150669 208.07134264 -71 206 C-70.01 206 -69.02 206 -68 206 C-68 321.83 -68 437.66 -68 557 C-64.37 557.99 -60.74 558.98 -57 560 C-53.58005339 561.19276704 -50.19629465 562.40447659 -46.8125 563.6875 C-43.904375 564.780625 -40.99625 565.87375 -38 567 C-43.94 564.69 -49.88 562.38 -56 560 C-55.67 559.01 -55.34 558.02 -55 557 C-50.71 557 -46.42 557 -42 557 C-42 556.67 -42 556.34 -42 556 C-28.14 556 -14.28 556 0 556 C0 372.52 0 189.04 0 0 Z "
     fill="#4C4F6B"
     transform="translate(154,369)"
     id="path2" />
  <path
     d="M0 0 C38.94 0 77.88 0 118 0 C118 168.63 118 337.26 118 511 C88.01367658 508.69335974 88.01367658 508.69335974 77.4296875 507.59375 C76.19934784 507.46834839 74.96900818 507.34294678 73.7013855 507.21374512 C69.80039699 506.81406562 65.9000967 506.4082859 62 506 C61.34000504 505.93093445 60.68001007 505.8618689 60.00001526 505.79071045 C51.09315265 504.85773835 42.18818929 503.90754342 33.28417969 502.94775391 C30.50080666 502.64777951 27.7172778 502.34932038 24.93359375 502.05224609 C7.60061685 500.20225029 -9.71287416 498.2444258 -27 496 C-27 495.67 -27 495.34 -27 495 C-16.99907467 494.59800886 -7.22171259 495.83570415 2.6875 497 C4.37167991 497.19327452 6.0559244 497.3859872 7.74023438 497.578125 C11.82775424 498.04458078 15.91369401 498.52251824 20 499 C20 492.73 20 486.46 20 480 C13.4 480 6.8 480 0 480 C0 409.71 0 339.42 0 267 C-6.93 267 -13.86 267 -21 267 C-21 266.34 -21 265.68 -21 265 C-14.73191505 261.86595753 -7.00793201 264 0 264 C-0.495 176.88 -0.495 176.88 -1 88 C-18.49 95.59 -35.98 103.18 -54 111 C-80 122 -80 122 -82 122 C-81.29840487 117.89275652 -79.48084892 116.5307677 -76.13916016 114.09399414 C-75.11121338 113.36684204 -75.11121338 113.36684204 -74.0625 112.625 C-72.59117122 111.555139 -71.12116752 110.48345383 -69.65234375 109.41015625 C-68.88519043 108.85215332 -68.11803711 108.29415039 -67.32763672 107.71923828 C-63.53014314 104.9143348 -59.83329517 101.98364555 -56.125 99.0625 C-49.52542772 93.89158432 -42.80853642 88.92413 -35.9855957 84.05297852 C-28.93588452 79.00103073 -22.04388099 73.75094382 -15.16674805 68.46728516 C-14.3344165 67.82839355 -13.50208496 67.18950195 -12.64453125 66.53125 C-11.91596924 65.96986328 -11.18740723 65.40847656 -10.43676758 64.83007812 C-7.33186044 62.49820919 -4.15976605 60.25697575 -1 58 C-0.67 38.86 -0.34 19.72 0 0 Z "
     fill="#787C9B"
     transform="translate(906,446)"
     id="path3" />
  <path
     d="M0 0 C0 58.41 0 116.82 0 177 C-6.93 177.33 -13.86 177.66 -21 178 C-21 178.66 -21 179.32 -21 180 C-14.07 180 -7.14 180 0 180 C0 250.29 0 320.58 0 393 C6.6 393 13.2 393 20 393 C20 399.27 20 405.54 20 412 C10.09293927 411.4919456 0.27718902 410.80224179 -9.57739258 409.66064453 C-10.32915771 409.57540527 -11.08092285 409.49016602 -11.85546875 409.40234375 C-12.51184326 409.32491943 -13.16821777 409.24749512 -13.84448242 409.16772461 C-16.56663934 408.9559088 -19.27055841 408.99001418 -22 409 C-9.41891167 410.38672351 3.16261802 411.76936998 15.7446804 413.14722919 C21.59106457 413.78758623 27.4373051 414.42919347 33.28320312 415.07397461 C68.18415922 418.93568964 68.18415922 418.93568964 103.15048218 422.13508606 C105.01853012 422.2890107 105.01853012 422.2890107 106.92431641 422.44604492 C108.51924423 422.57241585 108.51924423 422.57241585 110.14639282 422.70133972 C113 423 113 423 118 424 C118 439.18 118 454.36 118 470 C94.66383932 466.71863412 71.37924668 463.22791211 48.10937119 459.51145554 C40.63622127 458.31897256 33.16183321 457.13425795 25.6875 455.94921875 C24.87481344 455.82028543 24.06212688 455.69135212 23.22481346 455.55851173 C12.94649568 453.92856553 2.66515327 452.32330724 -7.625 450.76953125 C-8.69703171 450.6076532 -9.76906342 450.44577515 -10.87358093 450.2789917 C-15.64370251 449.56054539 -20.41464384 448.84808512 -25.18676758 448.14306641 C-26.83935661 447.89616648 -28.49194457 447.64925942 -30.14453125 447.40234375 C-30.83188354 447.30282913 -31.51923584 447.20331451 -32.22741699 447.1007843 C-36.88345545 446.40216399 -41.47969215 445.50346728 -46.09155273 444.55517578 C-53.13684415 443.11659658 -60.20655154 442.00747985 -67.32796478 441.00564766 C-71.02424979 440.48452735 -74.7181536 439.94701367 -78.41210938 439.40966797 C-79.19012783 439.29660718 -79.96814629 439.18354639 -80.76974106 439.06705952 C-89.83176796 437.743168 -98.87714782 436.31555018 -107.921875 434.87890625 C-109.19444405 434.67691179 -109.19444405 434.67691179 -110.49272156 434.47083664 C-115.70607542 433.64282243 -120.9189683 432.81193656 -126.13171387 431.98010254 C-130.47822583 431.28685729 -134.82505662 430.59561776 -139.171875 429.90429688 C-140.90365689 429.62883045 -142.6354379 429.35335845 -144.36721802 429.07788086 C-145.22255253 428.94182434 -146.07788704 428.80576782 -146.95914078 428.66558838 C-149.54234792 428.25462646 -152.12553215 427.84352084 -154.70870972 427.43237305 C-183.8152253 422.79991012 -212.9264325 418.21616628 -242.06933594 413.81738281 C-254.57307435 411.9284711 -267.0692426 410.01663228 -279.5390625 407.9140625 C-289.02810474 406.31415629 -298.52748571 404.82860448 -308.04858398 403.43304443 C-311.45791803 402.9328123 -314.86666597 402.42868421 -318.27539062 401.92431641 C-325.7334474 400.82123228 -333.19195211 399.7212057 -340.65057373 398.62194824 C-344.19806574 398.09906007 -347.74551518 397.57588324 -351.29296875 397.05273438 C-358.19527206 396.03488183 -365.09762063 395.01733659 -372 394 C-372 393.67 -372 393.34 -372 393 C-289.17 393 -206.34 393 -121 393 C-121.33 355.38 -121.66 317.76 -122 279 C-122.52388132 202.61810427 -122.52388132 202.61810427 -118.40878296 198.24856567 C-115.45500068 195.85819303 -112.28850413 193.90221716 -109 192 C-107.66471001 191.17422707 -107.66471001 191.17422707 -106.30244446 190.33177185 C-104 189 -104 189 -100.9375 187.875 C-95.12566389 185.47054568 -87.38963404 180.57164759 -83.87792969 175.32290649 C-82.66544943 172.11481558 -82.52806952 168.96967738 -82.37890625 165.57958984 C-82.34116592 164.83578756 -82.3034256 164.09198528 -82.26454163 163.32564354 C-81.8743287 154.75977252 -81.88682729 146.19225177 -81.92483521 137.61943436 C-81.9378938 134.63661234 -81.9441888 131.65383616 -81.94897461 128.67098999 C-81.9621707 121.25992448 -81.98624874 113.84890282 -82.01037598 106.43786621 C-82.03361292 99.15910428 -82.0520837 91.8803547 -82.0625 84.6015625 C-82.06402069 83.60245094 -82.06554138 82.60333939 -82.06710815 81.57395172 C-82.08250345 66.02799317 -81.82736647 50.52714915 -81 35 C-79.75217248 34.36952721 -78.50356257 33.74060283 -77.25463867 33.11230469 C-76.55940598 32.76190125 -75.86417328 32.4114978 -75.14787292 32.05047607 C-71.59459444 30.31264792 -67.9560919 28.78693736 -64.3125 27.25 C-62.47364566 26.46818291 -60.63513332 25.68556119 -58.796875 24.90234375 C-57.74951172 24.45616699 -56.70214844 24.00999023 -55.62304688 23.55029297 C-48.0926642 20.32806049 -40.5789786 17.06700186 -33.0625 13.8125 C-27.75120292 11.51287079 -22.43951445 9.21416039 -17.12628174 6.91900635 C-15.70718912 6.30565624 -14.2883662 5.69168177 -12.86981201 5.0770874 C-10.89180032 4.22026865 -8.9128276 3.36570975 -6.93359375 2.51171875 C-5.80880615 2.02533936 -4.68401855 1.53895996 -3.52514648 1.0378418 C-1 0 -1 0 0 0 Z "
     fill="#C6B78C"
     transform="translate(906,533)"
     id="path4" />
  <path
     d="M0 0 C3.41709609 3.41709609 6.20502891 6.8531361 9 10.75 C9.98093772 12.10346878 10.96273741 13.45631318 11.9453125 14.80859375 C12.4496582 15.5032373 12.95400391 16.19788086 13.47363281 16.91357422 C15.90647801 20.23908527 18.39199117 23.52437945 20.875 26.8125 C25.20091149 32.55099719 29.43422472 38.34968977 33.625 44.1875 C38.5158776 50.99357563 43.52634421 57.67744166 48.67382812 64.29248047 C56.58717438 74.48135081 64.34415151 84.77779741 71.97070312 95.18286133 C75.34009927 99.77239015 78.75406554 104.31872257 82.25 108.8125 C86.09649305 113.76880088 89.75407727 118.83004687 93.37182617 123.953125 C99.24915381 132.33748518 99.24915381 132.33748518 106 140 C106.09809919 142.21003458 106.12371116 144.42328075 106.12304783 146.63549137 C106.12420167 147.34069704 106.12535552 148.04590271 106.12654433 148.77247825 C106.12921776 151.16540419 106.12468291 153.55826453 106.12025452 155.95118713 C106.12069007 157.6720921 106.12156468 159.39299701 106.12284368 161.11390156 C106.12509176 165.86610687 106.12106312 170.61828987 106.11606562 175.37049234 C106.11176576 180.48640531 106.11320721 185.60231693 106.1139679 190.7182312 C106.11449343 199.58963382 106.11134359 208.46102911 106.10573006 217.33242989 C106.09761899 230.15914478 106.09500024 242.98585612 106.09374207 255.81257331 C106.09155093 276.62073773 106.08488916 297.42889825 106.07543945 318.23706055 C106.06626694 338.45581035 106.05918532 358.67455909 106.05493164 378.89331055 C106.05466892 380.13862498 106.05440619 381.38393941 106.05413551 382.66699065 C106.05283052 388.91407772 106.0515668 395.1611648 106.05032361 401.40825188 C106.03994906 453.27217139 106.02150972 505.13608368 106 557 C57.49 557.33 8.98 557.66 -41 558 C-41.33 557.34 -41.66 556.68 -42 556 C-28.14 556 -14.28 556 0 556 C0 372.52 0 189.04 0 0 Z "
     fill="#797D9C"
     transform="translate(154,369)"
     id="path5" />
  <path
     d="M0 0 C5.54522653 1.34108403 10.99520117 2.85322255 16.4375 4.5625 C17.15615234 4.78357422 17.87480469 5.00464844 18.61523438 5.23242188 C23.87704971 6.87704971 23.87704971 6.87704971 25 8 C27.82487492 8.24340654 30.62657735 8.42381963 33.45730591 8.55639648 C34.74384636 8.61966834 34.74384636 8.61966834 36.05637753 8.68421841 C44.60123568 9.07550288 53.13108416 9.12733202 61.68310547 9.09765625 C63.3526505 9.09572961 65.02219612 9.09426936 66.69174194 9.0932312 C70.24095659 9.09010884 73.79014644 9.08390121 77.33935165 9.07516479 C82.95426996 9.06148196 88.56918052 9.05571617 94.18411255 9.05102539 C106.0810859 9.04000545 117.97803965 9.02041919 129.875 9 C142.77222798 8.97792934 155.66944845 8.95740676 168.56669152 8.94658184 C174.14755808 8.94160735 179.72838821 8.93176228 185.3092401 8.91815186 C188.77075623 8.91069726 192.23226736 8.90737796 195.69379044 8.9051857 C197.29781646 8.90331331 198.90184154 8.89971161 200.50585938 8.89425278 C202.69483739 8.88703668 204.88373549 8.88599896 207.07272339 8.88647461 C208.29707533 8.884254 209.52142727 8.88203339 210.78288078 8.87974548 C214 9 214 9 219 10 C219 76.33 219 142.66 219 211 C142.11 211 65.22 211 -14 211 C-14 144.67 -14 78.34 -14 10 C3.325 9.505 3.325 9.505 21 9 C14.46574439 6.77828432 14.46574439 6.77828432 7.92602539 4.57275391 C7.11641357 4.29351074 6.30680176 4.01426758 5.47265625 3.7265625 C4.64000244 3.44377441 3.80734863 3.16098633 2.94946289 2.86962891 C1 2 1 2 0 0 Z "
     fill="#7A7D9C"
     transform="translate(308,715)"
     id="path6" />
  <path
     d="M0 0 C0.99 0 1.98 0 3 0 C3 115.83 3 231.66 3 351 C-25.38 351 -53.76 351 -83 351 C-83.33073707 313.06225269 -83.60767322 275.12586575 -83.76597994 237.18708915 C-83.78474036 232.70732447 -83.80415521 228.22756285 -83.82397461 223.74780273 C-83.82790927 222.85596971 -83.83184392 221.96413669 -83.83589781 221.04527842 C-83.90115417 206.60789553 -84.01941306 192.17140928 -84.15729194 177.73455817 C-84.29760686 162.9189781 -84.38088972 148.1038673 -84.41132742 133.28765005 C-84.43190263 124.14589902 -84.49685395 115.00668212 -84.618747 105.86571138 C-84.69809207 99.59577498 -84.72199158 93.32714672 -84.70252066 87.05674482 C-84.69291703 83.43879191 -84.70752761 79.82526144 -84.78808212 76.20809746 C-85.23581394 55.07630888 -85.23581394 55.07630888 -81.54004216 49.99120975 C-78.06400706 46.85485101 -74.2571775 45.12799702 -69.84918797 43.66904628 C-67.05120656 42.65672136 -64.66158773 41.08889165 -62.171875 39.48046875 C-61.28000488 38.93938477 -60.38813477 38.39830078 -59.46923828 37.84082031 C-58.57188965 37.29522461 -57.67454102 36.74962891 -56.75 36.1875 C-55.28602783 35.29756348 -55.28602783 35.29756348 -53.79248047 34.38964844 C-46.74716608 30.09442344 -39.76674939 25.70504021 -32.80639648 21.27392578 C-26.87259857 17.5123274 -20.85733122 13.90797744 -14.77978516 10.38378906 C-11.35947712 8.39968458 -7.95306172 6.39388588 -4.57421875 4.33984375 C-3.5836145 3.74030884 -3.5836145 3.74030884 -2.57299805 3.12866211 C-0.84150669 2.07134264 -0.84150669 2.07134264 0 0 Z "
     fill="#787C9B"
     transform="translate(83,575)"
     id="path7" />
  <path
     d="M0 0 C0.66 0.33 1.32 0.66 2 1 C2 21.13 2 41.26 2 62 C10.60320313 61.9278125 19.20640625 61.855625 28.0703125 61.78125 C136.03883753 60.89493226 136.03883753 60.89493226 182.16329193 60.87661743 C184.78246958 60.87501833 187.40163809 60.87148232 190.02081299 60.86743164 C194.10577881 60.86156895 198.19070737 60.86134602 202.27567482 60.86568069 C203.71178989 60.86664508 205.1479071 60.86616922 206.58402061 60.86384201 C219.42276926 60.84656365 232.1488225 61.46453427 245 62 C245 99.29 245 136.58 245 175 C160.19 175 75.38 175 -12 175 C-12 174.67 -12 174.34 -12 174 C-8.04 174 -4.08 174 0 174 C0 116.58 0 59.16 0 0 Z "
     fill="#D0C194"
     transform="translate(540,751)"
     id="path8" />
  <path
     d="M0 0 C0 71.94 0 143.88 0 218 C26.4 218 52.8 218 80 218 C80 148.37 80 78.74 80 7 C80.33 7 80.66 7 81 7 C81 76.63 81 146.26 81 218 C87.6 218 94.2 218 101 218 C101 224.27 101 230.54 101 237 C91.09293927 236.4919456 81.27718902 235.80224179 71.42260742 234.66064453 C70.29495972 234.53278564 70.29495972 234.53278564 69.14453125 234.40234375 C68.15996948 234.28620728 68.15996948 234.28620728 67.15551758 234.16772461 C64.43336066 233.9559088 61.72944159 233.99001418 59 234 C71.58108833 235.38672351 84.16261802 236.76936998 96.7446804 238.14722919 C102.59106457 238.78758623 108.4373051 239.42919347 114.28320312 240.07397461 C149.18415922 243.93568964 149.18415922 243.93568964 184.15048218 247.13508606 C186.01853012 247.2890107 186.01853012 247.2890107 187.92431641 247.44604492 C189.51924423 247.57241585 189.51924423 247.57241585 191.14639282 247.70133972 C194 248 194 248 199 249 C199 264.18 199 279.36 199 295 C175.66383932 291.71863412 152.37924668 288.22791211 129.10937119 284.51145554 C121.63622127 283.31897256 114.16183321 282.13425795 106.6875 280.94921875 C105.87481344 280.82028543 105.06212688 280.69135212 104.22481346 280.55851173 C93.94649568 278.92856553 83.66515327 277.32330724 73.375 275.76953125 C72.30296829 275.6076532 71.23093658 275.44577515 70.12641907 275.2789917 C65.35629749 274.56054539 60.58535616 273.84808512 55.81323242 273.14306641 C54.16064339 272.89616648 52.50805543 272.64925942 50.85546875 272.40234375 C50.16811646 272.30282913 49.48076416 272.20331451 48.77258301 272.1007843 C44.11654455 271.40216399 39.52030785 270.50346728 34.90844727 269.55517578 C27.86315585 268.11659658 20.79344846 267.00747985 13.67203522 266.00564766 C9.97575021 265.48452735 6.2818464 264.94701367 2.58789062 264.40966797 C1.80987217 264.29660718 1.03185371 264.18354639 0.23025894 264.06705952 C-8.83176796 262.743168 -17.87714782 261.31555018 -26.921875 259.87890625 C-28.19444405 259.67691179 -28.19444405 259.67691179 -29.49272156 259.47083664 C-34.70607542 258.64282243 -39.9189683 257.81193656 -45.13171387 256.98010254 C-49.47822583 256.28685729 -53.82505662 255.59561776 -58.171875 254.90429688 C-59.90365689 254.62883045 -61.6354379 254.35335845 -63.36721802 254.07788086 C-64.22255253 253.94182434 -65.07788704 253.80576782 -65.95914078 253.66558838 C-68.54234792 253.25462646 -71.12553215 252.84352084 -73.70870972 252.43237305 C-102.8152253 247.79991012 -131.9264325 243.21616628 -161.06933594 238.81738281 C-173.57307435 236.9284711 -186.0692426 235.01663228 -198.5390625 232.9140625 C-208.02810474 231.31415629 -217.52748571 229.82860448 -227.04858398 228.43304443 C-230.45791803 227.9328123 -233.86666597 227.42868421 -237.27539062 226.92431641 C-244.7334474 225.82123228 -252.19195211 224.7212057 -259.65057373 223.62194824 C-263.19806574 223.09906007 -266.74551518 222.57588324 -270.29296875 222.05273438 C-277.19527206 221.03488183 -284.09762063 220.01733659 -291 219 C-291 218.67 -291 218.34 -291 218 C-208.17 218 -125.34 218 -40 218 C-40.33 180.38 -40.66 142.76 -41 104 C-41.52388132 27.61810427 -41.52388132 27.61810427 -37.40878296 23.24856567 C-34.45500068 20.85819303 -31.28850413 18.90221716 -28 17 C-26.67268608 16.1806321 -26.67268608 16.1806321 -25.31855774 15.3447113 C-23 14 -23 14 -19.6796875 12.66796875 C-15.34927805 10.86891247 -11.82844969 8.14863983 -8.125 5.3125 C-1.10419294 0 -1.10419294 0 0 0 Z "
     fill="#AD9F73"
     transform="translate(825,708)"
     id="path9" />
  <path
     d="M0 0 C0 183.15 0 366.3 0 555 C-41 556 -41 556 -44 556 C-43.99962028 555.30498514 -43.99924056 554.60997029 -43.99884933 553.89389437 C-43.97648862 512.73434065 -43.95932223 471.57478763 -43.94893467 430.41522906 C-43.94768391 425.47709606 -43.94638959 420.53896307 -43.94506836 415.60083008 C-43.94480605 414.61770475 -43.94454374 413.63457942 -43.94427348 412.62166242 C-43.93991793 396.68693275 -43.93203101 380.75220668 -43.9228472 364.81747916 C-43.91350747 348.47635557 -43.90794371 332.13523388 -43.90591151 315.79410774 C-43.90453695 305.70451718 -43.90018995 295.61493678 -43.89208353 285.52534936 C-43.88681214 278.61377937 -43.88519661 271.70221467 -43.88649862 264.79064282 C-43.88714138 260.79846389 -43.88613142 256.80630276 -43.88079453 252.81412697 C-43.8759491 249.1630761 -43.87566894 245.5120551 -43.87910111 241.8610029 C-43.87972758 239.90673303 -43.87539607 237.95246353 -43.87091869 235.99819869 C-43.87290974 234.8461884 -43.87490079 233.69417811 -43.87695217 232.50725842 C-43.87657245 231.50897367 -43.87619273 230.51068892 -43.8758015 229.48215312 C-43.89535403 226.86656612 -43.89535403 226.86656612 -45 224 C-44.34 224 -43.68 224 -43 224 C-43.1603882 223.50080268 -43.32077641 223.00160536 -43.48602486 222.48728085 C-44.19282726 219.06685067 -44.18816736 215.68171296 -44.22360229 212.20350647 C-44.23519005 211.41296842 -44.2467778 210.62243036 -44.2587167 209.80793661 C-44.29585755 207.15593388 -44.32562683 204.50390627 -44.35498047 201.85180664 C-44.37921336 199.9511498 -44.40358504 198.05049472 -44.42808533 196.14984131 C-44.64091294 178.79078723 -44.7275848 161.43070796 -44.77903557 144.07050419 C-44.81584589 132.40361703 -44.89210235 120.73968963 -45.06640625 109.07397461 C-45.21854097 98.88947488 -45.2964792 88.70757461 -45.28556168 78.52189535 C-45.28223371 73.13404437 -45.31485407 67.75204245 -45.43609238 62.36543465 C-46.13707933 29.62058635 -46.13707933 29.62058635 -40.93032646 21.95158958 C-36.08455205 17.35905939 -30.75687393 14.83914316 -24.44629097 12.82868958 C-21.11980508 11.70183091 -18.5502793 10.06092215 -15.64453125 8.10546875 C-14.03464955 7.1314966 -12.42403081 6.15874112 -10.8125 5.1875 C-9.97009766 4.67380859 -9.12769531 4.16011719 -8.25976562 3.63085938 C-7.45861328 3.14810547 -6.65746094 2.66535156 -5.83203125 2.16796875 C-4.79139526 1.53797974 -4.79139526 1.53797974 -3.72973633 0.89526367 C-2 0 -2 0 0 0 Z "
     fill="#9FA0B5"
     transform="translate(154,370)"
     id="path10" />
  <path
     d="M0 0 C6.06650944 3.63990566 10.62426974 6.4659882 15 12 C17.02331953 13.86954724 19.09740611 15.66401916 21.1953125 17.44921875 C24.96740728 20.69060756 24.96740728 20.69060756 25.24839699 23.35795462 C25.24725783 24.85595132 25.24725783 24.85595132 25.24609566 26.38421059 C25.25007775 27.53422983 25.25405985 28.68424907 25.25816262 29.86911738 C25.24942409 31.78056184 25.24942409 31.78056184 25.24050903 33.73062134 C25.24138047 35.08940759 25.24313032 36.44819351 25.24568737 37.80697763 C25.25017702 41.55361937 25.24213515 45.3001476 25.23213124 49.04677486 C25.22352222 53.08222396 25.22641509 57.11766626 25.22793579 61.15312195 C25.22898626 68.14906973 25.22269277 75.14498031 25.21146011 82.14091873 C25.19522998 92.25595945 25.18999966 102.37098211 25.18748413 112.48603444 C25.18310311 128.89564775 25.169783 145.30524122 25.15087891 161.71484375 C25.13253062 177.65852763 25.11836897 193.60220613 25.10986328 209.54589844 C25.10933783 210.52809454 25.10881239 211.51029063 25.10827102 212.52225025 C25.10566101 217.44946839 25.10313358 222.37668657 25.10064721 227.30390477 C25.07990205 268.20261699 25.04466548 309.10130736 25 350 C24.14535156 350.04898437 23.29070312 350.09796875 22.41015625 350.1484375 C20.75306641 350.26058594 20.75306641 350.26058594 19.0625 350.375 C17.96035156 350.44460938 16.85820313 350.51421875 15.72265625 350.5859375 C14.82417969 350.72257812 13.92570312 350.85921875 13 351 C12.67 351.66 12.34 352.32 12 353 C12.83789062 353.10183594 13.67578125 353.20367188 14.5390625 353.30859375 C18.40668124 354.08124445 21.80051462 355.4543547 25.375 357.0625 C26.01566406 357.34416016 26.65632813 357.62582031 27.31640625 357.91601562 C28.88029659 358.60459421 30.44053941 359.30144711 32 360 C28.27929304 361.24023565 27.23375246 360.58841233 23.6328125 359.19921875 C22.58222656 358.79896484 21.53164062 358.39871094 20.44921875 357.98632812 C19.35222656 357.55771484 18.25523438 357.12910156 17.125 356.6875 C16.03574219 356.27048828 14.94648437 355.85347656 13.82421875 355.42382812 C9.20175867 353.65009344 4.59705226 351.8388209 0 350 C0 234.5 0 119 0 0 Z "
     fill="#C7B78E"
     transform="translate(86,576)"
     id="path11" />
  <path
     d="M0 0 C0 71.94 0 143.88 0 218 C-12.87 218 -25.74 218 -39 218 C-39.3388918 193.28661971 -39.6150762 168.57512657 -39.77718258 143.8600111 C-39.85445947 132.38377259 -39.95976628 120.90908239 -40.1315918 109.43383789 C-40.28132381 99.4293039 -40.37792377 89.42589123 -40.41132742 79.42026788 C-40.43084928 74.12391665 -40.47655438 68.83077253 -40.58595085 63.53545189 C-40.68821365 58.5447347 -40.71909451 53.55852561 -40.69661522 48.5668602 C-40.70072323 46.74097815 -40.73032249 44.91493678 -40.78808212 43.08996391 C-41.19135853 29.68408659 -41.19135853 29.68408659 -37.52216649 25.18987489 C-33.95325263 21.88518243 -29.99592638 19.36008355 -25.76060116 16.99612391 C-23.48985154 15.71136502 -21.39116067 14.22684424 -19.28125 12.6953125 C-18.02257914 11.83597898 -16.76226604 10.97904383 -15.5 10.125 C-14.21831348 9.25324561 -12.93705989 8.38085435 -11.65625 7.5078125 C-11.05425781 7.09821289 -10.45226562 6.68861328 -9.83203125 6.26660156 C-7.89947925 4.93050351 -5.99626826 3.55814141 -4.09375 2.1796875 C-1 0 -1 0 0 0 Z "
     fill="#9294AB"
     transform="translate(825,708)"
     id="path12" />
  <path
     d="M0 0 C6.69742451 2.30654379 12.25304377 6.48752945 15.93310547 12.51953125 C18.59627916 18.57686249 19.36494873 24.16639514 19.29386902 30.72608948 C19.29643229 31.60765951 19.29899557 32.48922953 19.30163652 33.39751381 C19.30654542 36.32713055 19.29012955 39.25622241 19.27368164 42.18579102 C19.27283474 44.29546598 19.27331174 46.40514183 19.27500916 48.51481628 C19.27586808 54.22492302 19.25825882 59.93483978 19.23728728 65.64490247 C19.21850342 71.61864074 19.21676869 77.59238361 19.21321106 83.56614685 C19.20389564 94.87066578 19.17928859 106.17509742 19.14916259 117.47957796 C19.115603 130.35256453 19.09912864 143.22555532 19.08407629 156.09857476 C19.05273864 182.57227527 18.99998785 209.04589836 18.93310547 235.51953125 C20.4392381 235.61680433 20.4392381 235.61680433 21.97579765 235.71604252 C23.32020253 235.80397798 24.66460403 235.89196515 26.00900269 235.97999573 C27.32246611 236.06546945 28.63592953 236.15094316 29.98919487 236.239007 C35.86144468 236.65669103 41.71117699 237.24796754 47.56591797 237.859375 C48.80445526 237.98639297 50.04299255 238.11341095 51.31906128 238.24427795 C55.23233826 238.64602842 59.14523524 239.05134013 63.05810547 239.45703125 C68.20642376 239.98814057 73.3548938 240.51776541 78.50341797 241.046875 C80.35631439 241.237621 80.35631439 241.237621 82.24664307 241.43222046 C92.80381779 242.51526689 103.36623933 243.5359405 113.93310547 244.51953125 C113.93310547 245.17953125 113.93310547 245.83953125 113.93310547 246.51953125 C100.62421802 245.57229763 87.33295316 244.51085354 74.05810547 243.1640625 C72.77757294 243.03499512 71.49704041 242.90592773 70.17770386 242.77294922 C56.51856284 241.39144473 42.86699798 239.93866688 29.21728516 238.46728516 C26.43391213 238.16731076 23.65038327 237.86885163 20.86669922 237.57177734 C3.53372232 235.72178154 -13.77976869 233.76395705 -31.06689453 231.51953125 C-31.06689453 231.18953125 -31.06689453 230.85953125 -31.06689453 230.51953125 C-21.06596921 230.11754011 -11.28860712 231.3552354 -1.37939453 232.51953125 C0.30478538 232.71280577 1.98902987 232.90551845 3.67333984 233.09765625 C7.76085971 233.56411203 11.84679948 234.04204949 15.93310547 234.51953125 C15.93310547 228.24953125 15.93310547 221.97953125 15.93310547 215.51953125 C9.33310547 215.51953125 2.73310547 215.51953125 -4.06689453 215.51953125 C-4.06689453 145.22953125 -4.06689453 74.93953125 -4.06689453 2.51953125 C-10.99689453 2.51953125 -17.92689453 2.51953125 -25.06689453 2.51953125 C-25.06689453 1.85953125 -25.06689453 1.19953125 -25.06689453 0.51953125 C-18.66443745 -2.68169729 -6.82380046 -1.58625553 0 0 Z "
     fill="#777C9B"
     transform="translate(910.06689453125,710.48046875)"
     id="path13" />
  <path
     d="M0 0 C2.15774364 2.15774364 3.88321934 4.0619425 5.671875 6.4765625 C6.42210937 7.48396484 6.42210937 7.48396484 7.1875 8.51171875 C7.703125 9.20910156 8.21875 9.90648437 8.75 10.625 C9.76475806 11.99283109 10.78039084 13.36001365 11.796875 14.7265625 C12.28168052 15.39760545 12.76648603 16.0686484 13.26598263 16.76002598 C14.92421151 19.00465077 14.92421151 19.00465077 16.81611729 20.79184628 C23.62530434 27.91439798 22.94461786 35.68686628 22.79467773 44.90258789 C22.79270078 46.6083264 22.79381631 48.31407085 22.79777527 50.01980591 C22.79977627 54.62915804 22.75874461 59.2372241 22.70975757 63.84627843 C22.66587285 68.67084359 22.66187659 73.49544121 22.65357971 78.32017517 C22.63185959 87.44685328 22.57446631 96.57294147 22.50413328 105.69936031 C22.42577671 116.0934836 22.38737491 126.4876357 22.35226524 136.88198102 C22.27918037 158.25499164 22.15471058 179.62743779 22 201 C14.74 201 7.48 201 0 201 C0 134.67 0 68.34 0 0 Z "
     fill="#FDE3BD"
     transform="translate(260,511)"
     id="path14" />
  <path
     d="M0 0 C0 34.65 0 69.3 0 105 C-12.87 105 -25.74 105 -39 105 C-39.60163214 85.97505477 -39.60163214 85.97505477 -39.73242188 77.81054688 C-39.82181834 72.25649788 -39.92705801 66.70618683 -40.1315918 61.1550293 C-40.29563851 56.67422327 -40.38446119 52.19742473 -40.42315865 47.71384621 C-40.45069641 46.01135947 -40.50448686 44.30907215 -40.58595085 42.60831261 C-41.18096674 29.66062491 -41.18096674 29.66062491 -37.53216934 25.20935059 C-33.95636371 21.91648064 -29.98844801 19.38556457 -25.76443672 17.00652122 C-23.49659806 15.71283485 -21.39372399 14.22675498 -19.28125 12.6953125 C-18.02257914 11.83597898 -16.76226604 10.97904383 -15.5 10.125 C-14.21831348 9.25324561 -12.93705989 8.38085435 -11.65625 7.5078125 C-11.05425781 7.09821289 -10.45226562 6.68861328 -9.83203125 6.26660156 C-7.89947925 4.93050351 -5.99626826 3.55814141 -4.09375 2.1796875 C-1 0 -1 0 0 0 Z "
     fill="#7A7E9D"
     transform="translate(825,708)"
     id="path15" />
  <path
     d="M0 0 C0.33 0 0.66 0 1 0 C1 69.63 1 139.26 1 211 C7.6 211 14.2 211 21 211 C21 217.27 21 223.54 21 230 C11.35241372 229.50525199 1.79774737 228.88829583 -7.78637695 227.66064453 C-12.39903658 227.11664789 -16.86992304 227.0090326 -21.51464844 227.1027832 C-31.34361573 227.18083593 -41.03249641 226.03276583 -50.7890625 224.953125 C-52.78317179 224.73793111 -54.77734446 224.5233238 -56.77157593 224.30926514 C-60.93909437 223.86022835 -65.10598345 223.40585865 -69.27246094 222.94726562 C-74.52113273 222.36973534 -79.77088599 221.80288578 -85.02110672 221.23963165 C-107.39898865 218.8360776 -129.73516634 216.3085848 -152 213 C-152 212.34 -152 211.68 -152 211 C-141.44 211 -130.88 211 -120 211 C-120.03552979 207.95507324 -120.07105957 204.91014648 -120.10766602 201.77294922 C-120.42143867 174.39273039 -120.67460772 147.01254949 -120.84712219 119.63105774 C-120.8635458 117.03512554 -120.87999956 114.43919353 -120.89648438 111.84326172 C-120.9044765 110.57895293 -120.91246862 109.31464415 -120.92070293 108.01202297 C-120.97335958 100.03781088 -121.04923117 92.06416386 -121.14257812 84.09033203 C-121.24038314 75.7085081 -121.29952956 67.32776604 -121.29816341 58.9453392 C-121.29840188 54.80016102 -121.31838499 50.65749269 -121.3899231 46.51287842 C-121.45540044 42.68489278 -121.46506372 38.86095603 -121.43021393 35.03260612 C-121.42596717 33.02163221 -121.48041768 31.01079266 -121.53753662 29.00062561 C-121.43595081 23.5461696 -121.24008869 20.3167645 -117.40878296 16.24856567 C-114.45500068 13.85819303 -111.28850413 11.90221716 -108 10 C-107.08789261 9.40565659 -106.17578522 8.81131317 -105.23603821 8.19895935 C-104.4981456 7.80330276 -103.76025299 7.40764618 -103 7 C-102.34 7.33 -101.68 7.66 -101 8 C-101.50439305 8.26456332 -102.0087861 8.52912664 -102.52846378 8.80170703 C-112.18351261 13.89140116 -112.18351261 13.89140116 -119.00589871 22.03520298 C-120.51023934 27.55920835 -120.1951584 33.2235876 -120.02172852 38.89550781 C-120.02680428 40.77906102 -120.0393719 42.66260652 -120.05880737 44.54606628 C-120.09024992 49.62818857 -120.01771572 54.70400071 -119.92562604 59.78518391 C-119.84715279 65.1062403 -119.86547908 70.42697085 -119.87327576 75.74847412 C-119.87344355 85.81090091 -119.78731341 95.87063969 -119.66970628 105.93230414 C-119.51569916 119.53839877 -119.49593804 133.14465747 -119.46842098 146.75148582 C-119.42158798 168.16943402 -119.19621985 189.58169316 -119 211 C-79.73 211 -40.46 211 0 211 C0 141.37 0 71.74 0 0 Z "
     fill="#A59976"
     transform="translate(905,715)"
     id="path16" />
  <path
     d="M0 0 C14.23686464 18.98248619 13.22440726 37.52143046 12.91254544 60.26407599 C12.8557063 65.11789502 12.85095201 69.97178146 12.84031677 74.82588196 C12.81251088 83.98783136 12.73888692 93.14879685 12.64817137 102.31031591 C12.54704806 112.75298149 12.49795924 123.19569781 12.45291245 133.63873231 C12.35921902 155.0930342 12.20124801 176.54645474 12 198 C8.04 198 4.08 198 0 198 C0 132.66 0 67.32 0 0 Z "
     fill="#DDD1C4"
     transform="translate(528,727)"
     id="path17" />
  <path
     d="M0 0 C9.90741698 -0.1887127 19.52231391 0.21445359 29.38330078 1.14794922 C37.89190085 1.9399257 46.40814556 2.49355065 54.9375 3 C68.31185693 3.79848095 81.65195373 4.83204595 95 6 C95 13.26 95 20.52 95 28 C63.17465154 26.83849093 31.6011606 22.75532815 0 19 C0 12.73 0 6.46 0 0 Z "
     fill="#AA9D72"
     transform="translate(929,927)"
     id="path18" />
  <path
     d="M0 0 C0 9.24 0 18.48 0 28 C-6.53091974 31.26545987 -12.99183253 34.38907212 -19.6875 37.2578125 C-21.02743515 37.83596458 -21.02743515 37.83596458 -22.3944397 38.42579651 C-25.26166219 39.66190408 -28.13071381 40.8936912 -31 42.125 C-32.97579968 42.97489777 -34.95154813 43.82491464 -36.92724609 44.67504883 C-41.74548698 46.74699513 -46.56557561 48.81459779 -51.38659668 50.88006592 C-53.77802251 51.90487493 -56.1689021 52.93094473 -58.55957031 53.95751953 C-62.2456872 55.53972949 -65.93475002 57.11495029 -69.625 58.6875 C-70.676875 59.13818848 -71.72875 59.58887695 -72.8125 60.05322266 C-73.75351562 60.45202637 -74.69453125 60.85083008 -75.6640625 61.26171875 C-76.46279785 61.60162842 -77.2615332 61.94153809 -78.08447266 62.29174805 C-80 63 -80 63 -82 63 C-81.29840487 58.89275652 -79.48084892 57.5307677 -76.13916016 55.09399414 C-75.4538623 54.60922607 -74.76856445 54.12445801 -74.0625 53.625 C-72.59117122 52.555139 -71.12116752 51.48345383 -69.65234375 50.41015625 C-68.88519043 49.85215332 -68.11803711 49.29415039 -67.32763672 48.71923828 C-63.53014314 45.9143348 -59.83329517 42.98364555 -56.125 40.0625 C-49.52625552 34.89223292 -42.81082352 29.92444176 -35.98779297 25.05517578 C-28.90310874 19.97969627 -21.9820469 14.69827647 -15.07885742 9.37939453 C-2.87387616 0 -2.87387616 0 0 0 Z "
     fill="#4E516E"
     transform="translate(906,505)"
     id="path19" />
  <path
     d="M0 0 C5.54522653 1.34108403 10.99520117 2.85322255 16.4375 4.5625 C17.15615234 4.78357422 17.87480469 5.00464844 18.61523438 5.23242188 C23.87704971 6.87704971 23.87704971 6.87704971 25 8 C27.82320925 8.24301601 30.62329775 8.42306273 33.4523468 8.55540466 C34.3099058 8.59755897 35.1674648 8.63971328 36.05101043 8.68314499 C44.62367005 9.07593872 53.1824942 9.13431914 61.76245117 9.11352539 C63.44010924 9.11324223 65.11776742 9.11340376 66.79542542 9.1139679 C71.28177176 9.11425085 75.76809051 9.10843649 80.25443053 9.10139394 C84.96822829 9.09507568 89.68202691 9.09454998 94.39582825 9.09336853 C103.29169247 9.0902799 112.18754418 9.08210032 121.08340293 9.07201904 C131.22391491 9.06078056 141.36442753 9.0553281 151.50494421 9.05032361 C172.33663642 9.03991521 193.16831741 9.02236436 214 9 C210.69294793 11.20470138 209.79120983 11.23651428 205.96104431 11.17753601 C204.39888184 11.16176514 204.39888184 11.16176514 202.80516052 11.14567566 C201.66281448 11.12427017 200.52046844 11.10286469 199.34350586 11.08081055 C196.84846833 11.05168706 194.35342724 11.02286742 191.85838318 10.99430847 C190.51857742 10.97574646 189.17877374 10.95703339 187.83897209 10.93817711 C183.69003152 10.88278932 179.54123275 10.85644829 175.39198303 10.83760071 C174.69107306 10.83433248 173.99016309 10.83106425 173.26801342 10.82769698 C171.83456662 10.82116569 170.40111931 10.81474781 168.96767151 10.8084408 C159.30934538 10.76578712 149.65258321 10.7087557 139.99536133 10.55102539 C133.47920942 10.44480649 126.96503754 10.39223107 120.44799334 10.40098029 C117.00169316 10.40354219 113.56033432 10.37950998 110.11509514 10.28998375 C96.42583521 9.31429425 96.42583521 9.31429425 83.88703918 13.47216606 C80.06090377 17.44970206 78.06861668 21.94450397 76 27 C74.964308 28.63744194 73.89544159 30.25588393 72.7578125 31.82421875 C72.08878906 32.80745117 72.08878906 32.80745117 71.40625 33.81054688 C70.9834375 34.42994141 70.560625 35.04933594 70.125 35.6875 C69.45597656 36.68040039 69.45597656 36.68040039 68.7734375 37.69335938 C68.33515625 38.33466797 67.896875 38.97597656 67.4453125 39.63671875 C67.06906738 40.19061279 66.69282227 40.74450684 66.30517578 41.31518555 C64.69825129 43.38951886 62.88253438 45.17593714 61 47 C58.95690167 43.39664317 56.91579358 39.79216257 54.875 36.1875 C54.30523437 35.18267578 53.73546875 34.17785156 53.1484375 33.14257812 C51.42582222 30.09863862 49.71076238 27.05061588 48 24 C47.41637695 22.96182129 46.83275391 21.92364258 46.23144531 20.85400391 C45.68327148 19.86706543 45.13509766 18.88012695 44.5703125 17.86328125 C44.07547363 16.97552002 43.58063477 16.08775879 43.07080078 15.1730957 C42 13 42 13 42 11 C41.06542969 11.08121094 40.13085938 11.16242187 39.16796875 11.24609375 C27.17871477 11.82261332 17.92717371 8.70048769 7 4 C6.30277832 3.70303223 5.60555664 3.40606445 4.88720703 3.10009766 C3.25644949 2.40400768 1.62794871 1.70263391 0 1 C0 0.67 0 0.34 0 0 Z "
     fill="#91909B"
     transform="translate(308,715)"
     id="path20" />
  <path
     d="M0 0 C6.69742451 2.30654379 12.25304377 6.48752945 15.93310547 12.51953125 C18.59627916 18.57686249 19.36494873 24.16639514 19.29386902 30.72608948 C19.29643229 31.60765951 19.29899557 32.48922953 19.30163652 33.39751381 C19.30654542 36.32713055 19.29012955 39.25622241 19.27368164 42.18579102 C19.27283474 44.29546598 19.27331174 46.40514183 19.27500916 48.51481628 C19.27586808 54.22492302 19.25825882 59.93483978 19.23728728 65.64490247 C19.21850342 71.61864074 19.21676869 77.59238361 19.21321106 83.56614685 C19.20389564 94.87066578 19.17928859 106.17509742 19.14916259 117.47957796 C19.115603 130.35256453 19.09912864 143.22555532 19.08407629 156.09857476 C19.05273864 182.57227527 18.99998785 209.04589836 18.93310547 235.51953125 C20.4392381 235.61680433 20.4392381 235.61680433 21.97579765 235.71604252 C23.32020253 235.80397798 24.66460403 235.89196515 26.00900269 235.97999573 C27.32246611 236.06546945 28.63592953 236.15094316 29.98919487 236.239007 C35.86144468 236.65669103 41.71117699 237.24796754 47.56591797 237.859375 C48.80445526 237.98639297 50.04299255 238.11341095 51.31906128 238.24427795 C55.23233826 238.64602842 59.14523524 239.05134013 63.05810547 239.45703125 C68.20642376 239.98814057 73.3548938 240.51776541 78.50341797 241.046875 C80.35631439 241.237621 80.35631439 241.237621 82.24664307 241.43222046 C92.80381779 242.51526689 103.36623933 243.5359405 113.93310547 244.51953125 C113.93310547 245.17953125 113.93310547 245.83953125 113.93310547 246.51953125 C100.62421802 245.57229763 87.33295316 244.51085354 74.05810547 243.1640625 C72.77757294 243.03499512 71.49704041 242.90592773 70.17770386 242.77294922 C56.51856284 241.39144473 42.86699798 239.93866688 29.21728516 238.46728516 C26.43391213 238.16731076 23.65038327 237.86885163 20.86669922 237.57177734 C3.53372232 235.72178154 -13.77976869 233.76395705 -31.06689453 231.51953125 C-31.06689453 231.18953125 -31.06689453 230.85953125 -31.06689453 230.51953125 C-21.06596921 230.11754011 -11.28860712 231.3552354 -1.37939453 232.51953125 C0.30478538 232.71280577 1.98902987 232.90551845 3.67333984 233.09765625 C7.76070128 233.56514419 11.84711508 234.04021376 15.93310547 234.51953125 C15.87256266 207.03353392 15.79505672 179.54762964 15.69739056 152.06173801 C15.65243676 139.29938648 15.61302106 126.53706282 15.58666992 113.7746582 C15.56368656 102.65015745 15.53028459 91.52574495 15.48440391 80.4013142 C15.46047643 74.51174197 15.44174447 68.62225712 15.43549156 62.73263741 C15.42943867 57.18652494 15.409431 51.64063606 15.37882996 46.0946064 C15.37005309 44.06174269 15.36632642 42.02884975 15.36809731 39.99596786 C15.36975536 37.21377568 15.35300539 34.43226078 15.33183289 31.65016174 C15.33668046 30.85149628 15.34152804 30.05283081 15.34652251 29.22996336 C15.26611419 22.79835207 14.1511305 16.42116044 10.17138672 11.21484375 C9.53587891 10.69664062 8.90037109 10.1784375 8.24560547 9.64453125 C7.62298828 9.11085938 7.00037109 8.5771875 6.35888672 8.02734375 C-0.6160635 3.69186745 -7.03608012 3.02587849 -15.06689453 2.83203125 C-16.03240234 2.79787109 -16.99791016 2.76371094 -17.99267578 2.72851562 C-20.35063235 2.64680426 -22.70825316 2.57741006 -25.06689453 2.51953125 C-25.06689453 1.85953125 -25.06689453 1.19953125 -25.06689453 0.51953125 C-18.66443745 -2.68169729 -6.82380046 -1.58625553 0 0 Z "
     fill="#4A4C66"
     transform="translate(910.06689453125,710.48046875)"
     id="path21" />
  <path
     d="M0 0 C12.66287251 16.88383001 13.19093111 33.2200595 12.61798096 53.5090332 C12.52440581 57.18327303 12.48449464 60.85810475 12.43945312 64.53320312 C12.34413191 71.69034341 12.18643071 78.84456628 12 86 C8.04 86 4.08 86 0 86 C0 57.62 0 29.24 0 0 Z "
     fill="#FDE2BB"
     transform="translate(528,727)"
     id="path22" />
  <path
     d="M0 0 C0.33 0 0.66 0 1 0 C1.33 175.56 1.66 351.12 2 532 C1.01 531.67 0.02 531.34 -1 531 C-0.99962028 530.30498514 -0.99924056 529.60997029 -0.99884933 528.89389437 C-0.97648862 487.73434065 -0.95932223 446.57478763 -0.94893467 405.41522906 C-0.94768391 400.47709606 -0.94638959 395.53896307 -0.94506836 390.60083008 C-0.94480605 389.61770475 -0.94454374 388.63457942 -0.94427348 387.62166242 C-0.93991793 371.68693275 -0.93203101 355.75220668 -0.9228472 339.81747916 C-0.91350747 323.47635557 -0.90794371 307.13523388 -0.90591151 290.79410774 C-0.90453695 280.70451718 -0.90018995 270.61493678 -0.89208353 260.52534936 C-0.88681214 253.61377937 -0.88519661 246.70221467 -0.88649862 239.79064282 C-0.88714138 235.79846389 -0.88613142 231.80630276 -0.88079453 227.81412697 C-0.8759491 224.1630761 -0.87566894 220.5120551 -0.87910111 216.8610029 C-0.87972758 214.90673303 -0.87539607 212.95246353 -0.87091869 210.99819869 C-0.87290974 209.8461884 -0.87490079 208.69417811 -0.87695217 207.50725842 C-0.87657245 206.50897367 -0.87619273 205.51068892 -0.8758015 204.48215312 C-0.89535403 201.86656612 -0.89535403 201.86656612 -2 199 C-1.34 199 -0.68 199 0 199 C-0.16330276 198.50260693 -0.32660551 198.00521385 -0.49485683 197.49274826 C-1.19569173 194.03431294 -1.11427362 190.62788651 -1.08229065 187.11602783 C-1.07906152 186.31631742 -1.07583239 185.51660701 -1.07250541 184.69266295 C-1.06043163 182.01022937 -1.04105846 179.3278982 -1.02172852 176.64550781 C-1.01158559 174.72376223 -1.00189193 172.80201424 -0.99261475 170.88026428 C-0.96613514 165.65956003 -0.93335528 160.43891193 -0.89946485 155.21825123 C-0.86512049 149.76366444 -0.83654177 144.30904755 -0.80735779 138.85443115 C-0.75120567 128.52370045 -0.68985013 118.19300744 -0.62663645 107.8623178 C-0.55492668 96.10189048 -0.48900048 84.34143298 -0.42356598 72.58096933 C-0.28882387 48.38727373 -0.14679952 24.19362524 0 0 Z "
     fill="#B0AAA3"
     transform="translate(111,395)"
     id="path23" />
  <path
     d="M0 0 C30.69 0 61.38 0 93 0 C93 2.31 93 4.62 93 7 C90.68756872 7.02742013 88.37503906 7.04658282 86.0625 7.0625 C84.77472656 7.07410156 83.48695313 7.08570313 82.16015625 7.09765625 C79.3716439 7.07383072 76.67187039 6.87900092 73.9050293 6.53662109 C68.73166953 5.94147978 63.55704638 5.61678724 58.359375 5.31640625 C56.29687085 5.1921262 54.23437099 5.06777484 52.171875 4.94335938 C48.98054325 4.75350333 45.78915021 4.56479528 42.59765625 4.37768555 C28.36348583 3.53914008 14.18472165 2.45734716 0 1 C0 0.67 0 0.34 0 0 Z "
     fill="#494C69"
     transform="translate(931,926)"
     id="path24" />
  <path
     d="M0 0 C0.33 0 0.66 0 1 0 C1 5.61 1 11.22 1 17 C1.66 17 2.32 17 3 17 C3 17.66 3 18.32 3 19 C4.11737549 19.05716187 4.11737549 19.05716187 5.25732422 19.11547852 C19.25357402 19.93720156 33.18231831 21.4919059 47.125 22.9375 C52.27331829 23.46860932 57.42178834 23.99823416 62.5703125 24.52734375 C64.42320892 24.71808975 64.42320892 24.71808975 66.3135376 24.91268921 C76.87071232 25.99573564 87.43313386 27.01640925 98 28 C98 28.66 98 29.32 98 30 C84.69111255 29.05276638 71.39984769 27.99132229 58.125 26.64453125 C56.84446747 26.51546387 55.56393494 26.38639648 54.24459839 26.25341797 C40.58545737 24.87191348 26.93389251 23.41913563 13.28417969 21.94775391 C10.50080666 21.64777951 7.7172778 21.34932038 4.93359375 21.05224609 C-12.39938315 19.20225029 -29.71287416 17.2444258 -47 15 C-47 14.67 -47 14.34 -47 14 C-36.99907467 13.59800886 -27.22171259 14.83570415 -17.3125 16 C-15.62832009 16.19327452 -13.9440756 16.3859872 -12.25976562 16.578125 C-8.17224576 17.04458078 -4.08630599 17.52251824 0 18 C0 12.06 0 6.12 0 0 Z "
     fill="#5E5E6A"
     transform="translate(926,927)"
     id="path25" />
  <path
     d="M0 0 C1.77503906 0.03480469 1.77503906 0.03480469 3.5859375 0.0703125 C5.36871094 0.09738281 5.36871094 0.09738281 7.1875 0.125 C8.10273437 0.14820313 9.01796875 0.17140625 9.9609375 0.1953125 C12.89552802 7.51352371 12.89552802 7.51352371 12.9609375 10.1953125 C10.41094178 14.33905555 9.13544319 15.78957417 4.5234375 17.3828125 C0.83560117 17.18871585 -1.22097541 16.56808672 -3.94140625 14 C-6.11601745 10.4246606 -5.77686066 6.20354288 -5.0390625 2.1953125 C-3.0390625 0.1953125 -3.0390625 0.1953125 0 0 Z "
     fill="#F6DFAE"
     transform="translate(883.0390625,713.8046875)"
     id="path26" />
  <path
     d="M0 0 C2.87525669 -0.05425013 5.74947646 -0.09379277 8.625 -0.125 C9.43324219 -0.14175781 10.24148438 -0.15851562 11.07421875 -0.17578125 C15.80093815 -0.21420986 19.55387702 0.17262906 24 2 C24 2.99 24 3.98 24 5 C28.39534956 5.79436763 32.79136654 6.58498308 37.1875 7.375 C38.41404297 7.59671875 39.64058594 7.8184375 40.90429688 8.046875 C48.91972508 9.48499932 56.94502748 10.80297098 65 12 C64.67 12.66 64.34 13.32 64 14 C57.37505378 13.6108996 50.93531412 13.18250705 44.48999023 11.55493164 C41.69434502 10.93188021 38.90640125 10.52553495 36.0703125 10.125 C29.08254753 9.06977096 22.24850304 7.56668671 15.375 5.9375 C14.21871094 5.66873047 13.06242188 5.39996094 11.87109375 5.12304688 C3.47902397 3.15967466 3.47902397 3.15967466 0 2 C0 1.34 0 0.68 0 0 Z "
     fill="#C6B586"
     transform="translate(606,927)"
     id="path27" />
  <path
     d="M0 0 C8.15561042 2.8087323 13.76375837 8.09406318 17.49560547 15.70703125 C17.93310547 18.51953125 17.93310547 18.51953125 16.55810547 20.89453125 C16.02185547 21.43078125 15.48560547 21.96703125 14.93310547 22.51953125 C14.80935547 21.95105469 14.68560547 21.38257813 14.55810547 20.796875 C12.78548934 14.16064336 9.78847374 10.15909994 3.93310547 6.51953125 C-2.46280897 3.56918031 -8.07365953 3.00083347 -15.06689453 2.83203125 C-16.03240234 2.79787109 -16.99791016 2.76371094 -17.99267578 2.72851562 C-20.35063235 2.64680426 -22.70825316 2.57741006 -25.06689453 2.51953125 C-25.06689453 1.85953125 -25.06689453 1.19953125 -25.06689453 0.51953125 C-18.66443745 -2.68169729 -6.82380046 -1.58625553 0 0 Z "
     fill="#535470"
     transform="translate(910.06689453125,710.48046875)"
     id="path28" />
  <path
     d="M0 0 C20.46 0 40.92 0 62 0 C62 0.33 62 0.66 62 1 C49.13 1.33 36.26 1.66 23 2 C23.66 2.66 24.32 3.32 25 4 C22.14567529 3.68889371 19.29154475 3.37615574 16.4375 3.0625 C15.23770508 2.93198242 15.23770508 2.93198242 14.01367188 2.79882812 C9.32743303 2.28238548 4.66319454 1.69478469 0 1 C0 0.67 0 0.34 0 0 Z "
     fill="#A49771"
     transform="translate(534,926)"
     id="path29" />
  <path
     d="M0 0 C16.45562521 1.51238256 32.71052196 4.28146228 49 7 C48.67 7.66 48.34 8.32 48 9 C41.3238833 8.60789423 34.85817816 8.14409166 28.359375 6.53125 C25.50489359 5.88851909 22.64613578 5.47821327 19.75 5.0625 C13.07207561 4.07697397 6.55251083 2.60863605 0 1 C0 0.67 0 0.34 0 0 Z "
     fill="#C3B182"
     transform="translate(622,932)"
     id="path30" />
  <path
     d="M0 0 C2.31 0 4.62 0 7 0 C6.67 0.99 6.34 1.98 6 3 C6.83789062 3.10183594 7.67578125 3.20367188 8.5390625 3.30859375 C12.40668124 4.08124445 15.80051462 5.4543547 19.375 7.0625 C20.01566406 7.34416016 20.65632813 7.62582031 21.31640625 7.91601562 C22.88029659 8.60459421 24.44053941 9.30144711 26 10 C22.23506762 11.25497746 21.10728038 10.53879083 17.45703125 9.12890625 C16.38388672 8.71962891 15.31074219 8.31035156 14.20507812 7.88867188 C13.08552734 7.45103516 11.96597656 7.01339844 10.8125 6.5625 C9.68134766 6.12873047 8.55019531 5.69496094 7.38476562 5.24804688 C4.58653941 4.17362246 1.79193219 3.09065286 -1 2 C-0.67 1.34 -0.34 0.68 0 0 Z "
     fill="#B3A38B"
     transform="translate(92,926)"
     id="path31" />
  <path
     d="M0 0 C0.33 0 0.66 0 1 0 C1 7.59 1 15.18 1 23 C0.01 22.67 -0.98 22.34 -2 22 C-2 21.34 -2 20.68 -2 20 C-1.34 20 -0.68 20 0 20 C-0.16242188 19.48695313 -0.32484375 18.97390625 -0.4921875 18.4453125 C-1.16109655 15.22425815 -1.13186388 12.1628001 -1.125 8.875 C-1.12757812 7.63492188 -1.13015625 6.39484375 -1.1328125 5.1171875 C-1 2 -1 2 0 0 Z "
     fill="#AEA486"
     transform="translate(111,574)"
     id="path32" />
  <path
     d="M0 0 C3.3 0.33 6.6 0.66 10 1 C9.67 1.99 9.34 2.98 9 4 C6.36 3.67 3.72 3.34 1 3 C0.67 2.01 0.34 1.02 0 0 Z "
     fill="#CEBC8C"
     transform="translate(620,929)"
     id="path33" />
  <path
     d="M0 0 C2.31 0 4.62 0 7 0 C6.67 0.99 6.34 1.98 6 3 C3.69 2.67 1.38 2.34 -1 2 C-0.67 1.34 -0.34 0.68 0 0 Z "
     fill="#B9AA87"
     transform="translate(92,926)"
     id="path34" />
</svg>
