<?xml version="1.0" encoding="UTF-8" standalone="no"?>
<svg
   version="1.1"
   width="1024"
   height="1024"
   id="svg50"
   sodipodi:docname="6-city-contact-blank.svg"
   inkscape:version="1.4.2 (f4327f4, 2025-05-13)"
   xmlns:inkscape="http://www.inkscape.org/namespaces/inkscape"
   xmlns:sodipodi="http://sodipodi.sourceforge.net/DTD/sodipodi-0.dtd"
   xmlns="http://www.w3.org/2000/svg"
   xmlns:svg="http://www.w3.org/2000/svg">
  <defs
     id="defs50" />
  <sodipodi:namedview
     id="namedview50"
     pagecolor="#ffffff"
     bordercolor="#000000"
     borderopacity="0.25"
     inkscape:showpageshadow="2"
     inkscape:pageopacity="0.0"
     inkscape:pagecheckerboard="0"
     inkscape:deskcolor="#d1d1d1"
     inkscape:zoom="0.78808594"
     inkscape:cx="511.36555"
     inkscape:cy="512"
     inkscape:window-width="1920"
     inkscape:window-height="1009"
     inkscape:window-x="1912"
     inkscape:window-y="-8"
     inkscape:window-maximized="1"
     inkscape:current-layer="svg50" />
  <path
     d="M0 0 C0.66 0 1.32 0 2 0 C2 168.63 2 337.26 2 511 C-20.11 511 -42.22 511 -65 511 C-65 418.27 -65 325.54 -65 230 C-66.32 229.67 -67.64 229.34 -69 229 C-68.01 228.67 -67.02 228.34 -66 228 C-66.00921793 227.05816581 -66.01843586 226.11633162 -66.02793312 225.14595699 C-66.24994023 202.22781505 -66.41426161 179.30981256 -66.51812172 156.39082241 C-66.56968324 145.30727864 -66.63997633 134.22444523 -66.75439453 123.14135742 C-66.85407605 113.48112788 -66.918584 103.82141276 -66.94088495 94.16068321 C-66.95392134 89.04519442 -66.9845469 83.9311772 -67.05730057 78.8161602 C-67.1252462 74.00009936 -67.14610407 69.18611398 -67.13107681 64.36961937 C-67.13382514 62.60346946 -67.15368315 60.83724929 -67.19205475 59.07151413 C-67.4677153 45.73069263 -67.4677153 45.73069263 -63.83778 41.45036507 C-61.29100985 39.63919094 -58.83360529 38.30277088 -56 37 C-54.6549453 36.14451357 -53.32089309 35.27098425 -52.0078125 34.3671875 C-50.71473415 33.53460338 -49.42042974 32.70392082 -48.125 31.875 C-46.64827812 30.9247268 -45.17172275 29.97419479 -43.6953125 29.0234375 C-42.9312207 28.53198242 -42.16712891 28.04052734 -41.37988281 27.53417969 C-36.40377327 24.32635528 -31.44498127 21.09179951 -26.48339844 17.86157227 C-22.33702943 15.16368647 -18.18609487 12.47348073 -14.0234375 9.80078125 C-13.2396875 9.29675781 -12.4559375 8.79273438 -11.6484375 8.2734375 C-10.16802252 7.32210553 -8.6863145 6.37278174 -7.203125 5.42578125 C-4.59943872 3.7512536 -2.19610773 2.19610773 0 0 Z "
     fill="#FADEBE"
     transform="translate(510,513)"
     id="path2" />
  <path
     d="M0 0 C4.11693245 1.64677298 7.01237529 3.192831 10.62109375 5.640625 C11.71115723 6.37506836 12.8012207 7.10951172 13.92431641 7.86621094 C14.4974054 8.25514526 15.07049438 8.64407959 15.66094971 9.0447998 C18.67956601 11.09260952 21.70866206 13.12476699 24.73828125 15.15625 C25.34931702 15.5662323 25.96035278 15.9762146 26.58990479 16.39862061 C33.23941967 20.84877737 39.98598712 25.14251792 46.75561523 29.40722656 C52.22574261 32.85507737 57.67388438 36.33207568 63 40 C63.69135032 40.36554279 64.38270065 40.73108557 65.09500098 41.10770541 C67.47100183 43.46786072 67.48056455 45.14626748 67.5240339 48.41594562 C67.51352585 49.1572939 67.5030178 49.89864218 67.49219131 50.66245556 C67.49680669 51.4543876 67.50142207 52.24631965 67.50617731 53.06224963 C67.51683654 55.73846112 67.49876244 58.41372625 67.48101807 61.08988953 C67.48276101 63.01876276 67.48626082 64.94763509 67.49137473 66.87650234 C67.50035291 72.1943795 67.48427211 77.5119367 67.46426249 82.82977307 C67.44704269 88.55779037 67.4528303 94.28578857 67.45587158 100.01382446 C67.45797242 109.9438221 67.44538661 119.87371488 67.42292023 129.80368614 C67.39045845 144.16086916 67.37999917 158.51800131 67.37496826 172.87521706 C67.36620646 196.16692201 67.33960115 219.45856976 67.30175781 242.75024414 C67.26503159 265.38044951 67.23669151 288.01063994 67.21972656 310.64086914 C67.21920046 311.33819867 67.21867435 312.03552821 67.21813231 312.75398894 C67.21285831 319.75673773 67.20775504 326.75948664 67.20277687 333.76223565 C67.16099904 392.50819558 67.08929019 451.25409346 67 510 C44.89 510 22.78 510 0 510 C0 341.7 0 173.4 0 0 Z "
     fill="#ABADAE"
     transform="translate(512,514)"
     id="path3" />
  <path
     d="M0 0 C3.73352107 2.19396098 7.03873948 4.54502888 10.375 7.3125 C11.71691406 8.42044922 11.71691406 8.42044922 13.0859375 9.55078125 C14.04757812 10.35902344 15.00921875 11.16726563 16 12 C16.89003519 12.55110113 16.89003519 12.55110113 17.79805088 13.11333561 C20.9188828 15.23680616 22.73733593 16.8288457 23.58175468 20.59390068 C23.73258694 23.9090465 23.65601418 27.15314933 23.50561523 30.46850586 C23.47783997 31.72300537 23.4500647 32.97750488 23.42144775 34.27001953 C23.35910907 36.99365973 23.28461878 39.71407995 23.19174004 42.43656731 C23.0490289 46.7547996 22.97888377 51.07234645 22.9233551 55.39247131 C22.75728939 67.67408994 22.5456625 79.95227289 22.14672852 92.22875977 C21.92677626 99.01580307 21.79455417 105.79880662 21.75753552 112.58937746 C21.73421618 116.17758304 21.66749432 119.75256008 21.49123955 123.33677483 C20.36611333 138.44817746 20.36611333 138.44817746 26.31642532 151.65554047 C32.86680948 157.09136543 40.24340183 160.62268862 48 164 C49.75863528 164.83311673 51.51273198 165.67592674 53.26072693 166.53114319 C53.98056983 166.87890336 54.70041273 167.22666353 55.44206905 167.58496189 C59.56595471 169.71822558 63.15154746 171.60852572 64.76660156 176.1607666 C65.95423534 182.48567291 65.46263757 188.74845766 65 195.125 C64.91963568 197.05439168 64.8466501 198.98410563 64.78125 200.9140625 C64.60588888 205.6174026 64.33066964 210.30512706 64 215 C64.9590625 215.3403125 64.9590625 215.3403125 65.9375 215.6875 C70.10869904 217.47515673 74.0329612 219.79608956 78 222 C78 264.24 78 306.48 78 350 C29.49 350 -19.02 350 -69 350 C-69 274.43 -69 198.86 -69 121 C-61.12891264 125.49776421 -61.12891264 125.49776421 -57.73046875 127.98828125 C-56.61381836 128.80135742 -56.61381836 128.80135742 -55.47460938 129.63085938 C-54.71986328 130.18580078 -53.96511719 130.74074219 -53.1875 131.3125 C-51.68156294 132.41354505 -50.1750486 133.51380094 -48.66796875 134.61328125 C-47.60450729 135.40998985 -47.60450729 135.40998985 -46.51956177 136.22279358 C-44.04107877 138.03686418 -44.04107877 138.03686418 -41.38754272 139.45933533 C-34.51366346 143.48386594 -34.51366346 143.48386594 -33.14735413 147.51667786 C-32.89578563 150.5421135 -32.95292525 153.42197282 -33.12109375 156.453125 C-33.13439224 157.54913025 -33.14769073 158.6451355 -33.16139221 159.77435303 C-33.20586841 163.26912927 -33.3142889 166.75717037 -33.4375 170.25 C-34.97618984 187.43862393 -34.97618984 187.43862393 -28.84375 202.6796875 C-27.27118771 204.1655634 -25.65972976 205.61216843 -24 207 C-22.92454049 208.20498284 -21.87028606 209.42955748 -20.84765625 210.6796875 C-19.47121373 212.26307104 -18.09086522 213.84275752 -16.70507812 215.41796875 C-13.24235299 219.40939057 -10.00584676 223.55258196 -6.79467773 227.74658203 C-6.33254631 228.34882095 -5.87041489 228.95105988 -5.39427948 229.57154846 C-4.26213352 231.04714724 -3.13096769 232.52349794 -2 234 C-1.38154119 196.43071989 -0.91115135 158.86283832 -0.68359375 121.2890625 C-0.67818085 120.3952975 -0.67276795 119.5015325 -0.66719103 118.58068371 C-0.60172854 107.69230036 -0.54119758 96.80389205 -0.48259127 85.91546988 C-0.43182286 76.50666487 -0.37745569 67.09788145 -0.32291877 57.68909764 C-0.21153008 38.45941865 -0.1042403 19.22971902 0 0 Z "
     fill="#9B9C9D"
     transform="translate(325,674)"
     id="path4" />
  <path
     d="M0 0 C3.11118452 1.55559226 5.33383203 2.90586362 8.01171875 5.01171875 C8.77033203 5.60533203 9.52894531 6.19894531 10.31054688 6.81054688 C11.09494141 7.42994141 11.87933594 8.04933594 12.6875 8.6875 C13.83508789 9.58758789 13.83508789 9.58758789 15.00585938 10.50585938 C16.46832036 11.65291176 17.92965833 12.80139875 19.3894043 13.9519043 C21.85663703 15.97993204 21.85663703 15.97993204 24.18564171 17.29058796 C27.80549122 19.62483712 30.51564101 21.44498077 31.83056653 25.6665076 C32.13636 28.98547535 32.15645178 32.20215036 32.08229065 35.53465271 C32.08998047 36.79836781 32.0976703 38.06208291 32.10559314 39.36409241 C32.12566912 42.86089827 32.08979766 46.35521188 32.04459059 49.85170019 C32.00565932 53.62597917 32.0188812 57.40012195 32.02571106 61.17454529 C32.03042631 67.7101862 32.00223256 74.2450174 31.95157051 80.78045464 C31.87837093 90.22940834 31.85498202 99.67797122 31.84367859 109.12717772 C31.82398948 124.45829803 31.76411889 139.78898693 31.67895508 155.11987305 C31.59632136 170.01080164 31.53262677 184.90161298 31.49438477 199.79272461 C31.490838 201.16995797 31.490838 201.16995797 31.48721958 202.57501423 C31.47547409 207.18121299 31.46410076 211.78741259 31.45291245 216.39361274 C31.35963847 254.59612502 31.19373804 292.79783919 31 331 C3.94 331 -23.12 331 -51 331 C-51 260.05 -51 189.1 -51 116 C-46.48839288 119.86709182 -42.16669855 123.67487873 -38 127.875 C-37.27683594 128.59236328 -37.27683594 128.59236328 -36.5390625 129.32421875 C-33.86391663 132.00644173 -31.32979881 134.75856921 -28.87109375 137.640625 C-25.82299636 141.16024199 -22.59396919 144.46952632 -19.28515625 147.7421875 C-18.52819962 148.49089615 -18.52819962 148.49089615 -17.75595093 149.25473022 C-15.65518932 151.32772536 -13.55071234 153.39686527 -11.44213867 155.46191406 C-9.88550349 156.98853669 -8.33499536 158.52117047 -6.78515625 160.0546875 C-5.86613525 160.95687012 -4.94711426 161.85905273 -4.00024414 162.78857422 C-2 165 -2 165 -2 167 C-1.34 167 -0.68 167 0 167 C0 111.89 0 56.78 0 0 Z "
     fill="#ACACAC"
     transform="translate(162,693)"
     id="path5" />
  <path
     d="M0 0 C3.66823187 1.83411594 6.40787311 3.73947721 9.625 6.25 C10.46381714 6.90210449 10.46381714 6.90210449 11.31958008 7.56738281 C12.55258411 8.52651591 13.7843797 9.48720398 15.01513672 10.44921875 C17.08143357 12.06362436 19.15158237 13.67297804 21.22265625 15.28125 C27.41036963 20.08775904 33.59413616 24.89923304 39.765625 29.7265625 C40.54848877 30.33790039 41.33135254 30.94923828 42.13793945 31.57910156 C43.60901532 32.72797449 45.07901078 33.87823303 46.54760742 35.03027344 C47.23185791 35.56426758 47.9161084 36.09826172 48.62109375 36.6484375 C49.26890651 37.18111992 49.91671926 37.71380234 50.58416271 38.26262665 C52.95244707 40.10219009 52.95244707 40.10219009 55.78997517 41.17401886 C59.32071898 42.91118761 61.98225851 44.60609567 64 48 C66.21112194 56.23473515 65.38581442 65.25302795 65.2487793 73.69335938 C65.24567554 76.35472922 65.24693548 79.01576451 65.25364685 81.67709351 C65.25940409 87.40155261 65.22501029 93.12462849 65.16303062 98.84873962 C65.07348063 107.12450397 65.04496992 115.39960216 65.03116272 123.67579848 C65.00711099 137.10423145 64.93397159 150.53192776 64.82983398 163.95996094 C64.72880349 177.00093917 64.65097148 190.04171704 64.60424805 203.08300781 C64.60135809 203.88739483 64.59846813 204.69178185 64.5954906 205.52054423 C64.58113477 209.55607714 64.56723408 213.59161146 64.55355966 217.62714672 C64.43959775 251.08541737 64.23685389 284.54231754 64 318 C42.88 318 21.76 318 0 318 C0 213.06 0 108.12 0 0 Z "
     fill="#A9ADAF"
     transform="translate(884,706)"
     id="path6" />
  <path
     d="M0 0 C0.33 44.22 0.66 88.44 1 134 C16.14362079 124.70300189 16.14362079 124.70300189 31.0390625 115.07421875 C33 114 33 114 36 114 C36 188.25 36 262.5 36 339 C18.84 339 1.68 339 -16 339 C-16.18050581 313.66149738 -16.32790757 288.32351432 -16.41449738 262.98453236 C-16.45576904 251.21951615 -16.51204788 239.4549274 -16.60351562 227.69018555 C-16.68319031 217.43741043 -16.73485081 207.18494482 -16.75270796 196.93186873 C-16.76314848 191.50147454 -16.78772625 186.07196591 -16.84584045 180.64185524 C-16.900083 175.53217983 -16.91690478 170.42375586 -16.90486145 165.31381989 C-16.90706504 163.43722167 -16.9230155 161.56058226 -16.9536438 159.68423271 C-17.17534168 145.40386638 -17.17534168 145.40386638 -14.19776917 141.8473568 C-12.01403809 140.50688171 -12.01403809 140.50688171 -9.8286972 139.69625378 C-9.22522713 139.46649003 -8.62175705 139.23672628 -8 139 C-6.3185116 135.17316432 -6.75226694 131.94568218 -8 128 C-10.42094932 124.95238902 -13.30993765 122.74297088 -16.36865234 120.36035156 C-19.60834312 117.65883151 -22.49362575 114.57811056 -25.4375 111.5625 C-26.62119667 110.35301576 -27.80725186 109.14583346 -28.99609375 107.94140625 C-29.50325928 107.42263916 -30.0104248 106.90387207 -30.53295898 106.36938477 C-32.16098843 104.77548714 -32.16098843 104.77548714 -35 103 C-36.94074861 103.27617533 -36.94074861 103.27617533 -39 104 C-41.475 104.495 -41.475 104.495 -44 105 C-44 80.25 -44 55.5 -44 30 C-43.01 29.67 -42.02 29.34 -41 29 C-41 28.34 -41 27.68 -41 27 C-40.01 27 -39.02 27 -38 27 C-38 26.34 -38 25.68 -38 25 C-37.01 25 -36.02 25 -35 25 C-35 24.34 -35 23.68 -35 23 C-33.824375 22.401875 -32.64875 21.80375 -31.4375 21.1875 C-24.79983983 17.51270706 -18.86486389 12.85719505 -12.79638672 8.33056641 C-10.26437732 6.45513134 -7.70088221 4.62707413 -5.125 2.8125 C-4.34382812 2.26207031 -3.56265625 1.71164062 -2.7578125 1.14453125 C-1 0 -1 0 0 0 Z "
     fill="#FBDAB8"
     transform="translate(709,685)"
     id="path7" />
  <path
     d="M0 0 C3.30009935 1.32003974 5.83109214 2.37641754 8.7578125 4.1796875 C9.45696777 4.60830078 10.15612305 5.03691406 10.87646484 5.47851562 C11.61848145 5.93935547 12.36049805 6.40019531 13.125 6.875 C14.29023193 7.59333008 14.29023193 7.59333008 15.47900391 8.32617188 C21.4613383 12.02342911 27.42245384 15.75500535 33.375 19.5 C34.17695801 20.0038623 34.97891602 20.50772461 35.80517578 21.02685547 C36.55782715 21.50268066 37.31047852 21.97850586 38.0859375 22.46875 C39.0766626 23.09426758 39.0766626 23.09426758 40.08740234 23.73242188 C40.71855957 24.15072266 41.3497168 24.56902344 42 25 C42.69008148 25.33993484 43.38016296 25.67986969 44.09115601 26.03010559 C46.60073995 28.61995337 46.47292904 30.70859819 46.49768066 34.21170044 C46.48329956 35.06118256 46.46891846 35.91066467 46.45410156 36.78588867 C46.45468567 37.68365524 46.45526978 38.58142181 46.45587158 39.50639343 C46.45308223 42.47731027 46.42195001 45.44722694 46.390625 48.41796875 C46.38316564 50.47633821 46.37747127 52.53471477 46.37347412 54.59309387 C46.35819382 60.01349458 46.31889117 65.43346726 46.2746582 70.85369873 C46.23375726 76.38352671 46.21547416 81.91342377 46.1953125 87.44335938 C46.1523994 98.29576108 46.08411895 109.14784496 46 120 C47.15472557 120.44733994 47.15472557 120.44733994 48.33277893 120.90371704 C51.28959505 122.11902955 53.82239331 123.63298351 56.52734375 125.3359375 C57.56697266 125.98820313 58.60660156 126.64046875 59.67773438 127.3125 C61.29131836 128.3334375 61.29131836 128.3334375 62.9375 129.375 C64.00935547 130.04789063 65.08121094 130.72078125 66.18554688 131.4140625 C69.13009808 133.26648605 72.07190089 135.12167374 75 137 C76.03297022 137.53215496 77.06594044 138.06430992 78.13021278 138.61259079 C81 141 81 141 81.73828697 144.58443069 C81.76347382 146.05537004 81.75540441 147.52709891 81.7215271 148.99786377 C81.72665365 149.80982484 81.7317802 150.6217859 81.7370621 151.45835185 C81.74695671 154.18300011 81.71393008 156.9054384 81.68115234 159.62988281 C81.67946016 161.5811864 81.68040939 163.53249381 81.68380737 165.48379517 C81.6855316 170.78537561 81.65021198 176.08614452 81.60836363 181.38753605 C81.57090108 186.92618274 81.5673348 192.46484724 81.56021118 198.00360107 C81.5415492 208.49385717 81.49229368 218.98373888 81.43211424 229.47382998 C81.36509133 241.41560153 81.33207069 253.35739078 81.30194163 265.29930353 C81.23919587 289.86645784 81.12914611 314.43309882 81 339 C66.15 339 51.3 339 36 339 C36 264.75 36 190.5 36 114 C27.21945109 118.75728141 27.21945109 118.75728141 18.7109375 123.8671875 C17.14666016 124.85332031 17.14666016 124.85332031 15.55078125 125.859375 C14.50277344 126.52453125 13.45476563 127.1896875 12.375 127.875 C10.2382309 129.22854057 8.1002786 130.58021577 5.9609375 131.9296875 C5.03071777 132.51991699 4.10049805 133.11014648 3.14208984 133.71826172 C1 135 1 135 0 135 C0 90.45 0 45.9 0 0 Z "
     fill="#9B9C9E"
     transform="translate(709,685)"
     id="path8" />
  <path
     d="M0 0 C0.21015762 27.6679545 0.36890849 55.33578955 0.46630955 83.00438118 C0.51273494 95.85117381 0.57603854 108.6974708 0.67895508 121.54394531 C0.76860524 132.73978338 0.82671098 143.93526255 0.84679645 155.13144958 C0.85853935 161.06104764 0.88617186 166.98961887 0.95157051 172.91888809 C1.01261907 178.49892364 1.03151279 184.07750867 1.01796913 189.65784645 C1.02044703 191.70657927 1.03837637 193.75536012 1.07284927 195.8038044 C1.32486903 211.55049157 1.32486903 211.55049157 -2.03316593 215.22443962 C-4.4942627 216.64257812 -4.4942627 216.64257812 -6.95800686 217.76420784 C-9.17222468 218.82535556 -9.17222468 218.82535556 -9.84215641 221.08798027 C-10.14158622 223.74517943 -10.18017241 226.27927301 -10.11352539 228.95263672 C-10.1245932 229.9386235 -10.13566101 230.92461029 -10.14706421 231.94047546 C-10.17300868 235.18827142 -10.13567884 238.43206341 -10.09765625 241.6796875 C-10.10331009 243.93557021 -10.11292189 246.19144618 -10.12632751 248.44729614 C-10.15094048 254.37597075 -10.12184536 260.30320913 -10.08154297 266.23175049 C-10.04990439 272.28475914 -10.06908616 278.33758364 -10.08398438 284.390625 C-10.1057137 296.2609268 -10.06600487 308.12986146 -10 320 C-22.21 320 -34.42 320 -47 320 C-46.99476318 314.7092041 -46.98952637 309.4184082 -46.98413086 303.96728516 C-46.96759575 286.52890026 -46.95647825 269.09051507 -46.94818783 251.6521244 C-46.94302567 241.07439398 -46.9359845 230.49667098 -46.92456055 219.91894531 C-46.91461126 210.70227821 -46.90814599 201.48561647 -46.90591151 192.26894414 C-46.90460482 187.38620488 -46.90152158 182.50348097 -46.89426994 177.62074661 C-46.88750589 173.02931465 -46.88538383 168.43790444 -46.88689232 163.84646797 C-46.88661617 162.1573468 -46.88461332 160.46822493 -46.88079453 158.77910805 C-46.87585128 156.4807735 -46.87700407 154.18252209 -46.87974548 151.88418579 C-46.87882369 150.5955192 -46.8779019 149.30685261 -46.87695217 147.97913551 C-46.79313871 145.07212143 -46.79313871 145.07212143 -48 143 C-47.34 143 -46.68 143 -46 143 C-46 105.71 -46 68.42 -46 30 C-45.01 29.67 -44.02 29.34 -43 29 C-43 28.34 -43 27.68 -43 27 C-41.02 26.34 -39.04 25.68 -37 25 C-37 24.34 -37 23.68 -37 23 C-36.14728516 22.54560547 -36.14728516 22.54560547 -35.27734375 22.08203125 C-31.37803699 19.96638067 -27.63483891 17.82530299 -24.0625 15.1875 C-21 13 -21 13 -19 13 C-19 12.34 -19 11.68 -19 11 C-18.01 11 -17.02 11 -16 11 C-16 10.34 -16 9.68 -16 9 C-13.98828125 7.59765625 -13.98828125 7.59765625 -11.3125 6.0625 C-10.44238281 5.55847656 -9.57226562 5.05445313 -8.67578125 4.53515625 C-7.79277344 4.02855469 -6.90976562 3.52195312 -6 3 C-5.08605469 2.44183594 -4.17210937 1.88367188 -3.23046875 1.30859375 C-1 0 -1 0 0 0 Z "
     fill="#FADDBD"
     transform="translate(883,704)"
     id="path9" />
  <path
     d="M0 0 C0 76.23 0 152.46 0 231 C-20.46 231 -40.92 231 -62 231 C-62 167.31 -62 103.62 -62 38 C-60.02 37.505 -60.02 37.505 -58 37 C-55.75976519 35.61041352 -53.60053745 34.18833637 -51.4375 32.6875 C-45.53257241 28.66674911 -39.55537542 24.79026629 -33.5 21 C-26.91731266 16.87173926 -20.41095391 12.6503624 -13.96044922 8.31884766 C-1.56636269 0 -1.56636269 0 0 0 Z "
     fill="#FCD8B5"
     transform="translate(255,793)"
     id="path10" />
  <path
     d="M0 0 C2.475 0.99 2.475 0.99 5 2 C6.01157795 2.35877983 7.0231559 2.71755966 8.06538773 3.08721161 C11.76405947 4.85617669 14.73292801 6.5546838 17 10 C19.36186339 17.75816482 18.5119637 26.40179765 18.36230469 34.40820312 C18.35891869 36.9315169 18.36082197 39.45484251 18.36761475 41.97814941 C18.37034461 47.40498945 18.33639251 52.82961268 18.26876068 58.2559967 C18.17104807 66.1010136 18.13996531 73.94519435 18.12490478 81.79075378 C18.09866964 94.52048342 18.01889051 107.249288 17.90527344 119.97851562 C17.79504977 132.34044785 17.71014662 144.70212842 17.65917969 157.06445312 C17.65445066 158.20830674 17.65445066 158.20830674 17.64962611 159.37526852 C17.63396515 163.2010241 17.61880078 167.02678147 17.60388327 170.85254002 C17.47957082 202.5691799 17.2584023 234.2840987 17 266 C-1.15 266 -19.3 266 -38 266 C-38 202.64 -38 139.28 -38 74 C-26 81 -26 81 -24 83 C-23.83984375 85.10375977 -23.83984375 85.10375977 -23.9375 87.69140625 C-24.44226685 98.29289695 -24.44226685 98.29289695 -21.13671875 108.03515625 C-18.57847873 110.21802453 -15.77921621 112.10646808 -13 114 C-9.04 117.96 -5.08 121.92 -1 126 C-0.67 84.42 -0.34 42.84 0 0 Z "
     fill="#9EA0A1"
     transform="translate(634,758)"
     id="path11" />
  <path
     d="M0 0 C0.99 0.33 1.98 0.66 3 1 C2.67 80.2 2.34 159.4 2 241 C-12.19 241 -26.38 241 -41 241 C-41.81661435 236.1003139 -42.18123284 231.54977779 -42.24137878 226.62132263 C-42.25493339 225.79232376 -42.268488 224.96332488 -42.28245336 224.10920483 C-42.32614961 221.33904733 -42.36284767 218.56884734 -42.39916992 215.79858398 C-42.42836503 213.80896273 -42.45772194 211.81934384 -42.48722839 209.82972717 C-42.7465611 191.68267412 -42.89578919 173.53433723 -43.01475048 155.38587856 C-43.09653339 143.19250216 -43.21233228 131.00137987 -43.4128418 118.80932617 C-43.58795184 108.16011534 -43.69936011 97.51247951 -43.73426324 86.86185127 C-43.75481025 81.22973125 -43.8062278 75.60186677 -43.93370628 69.97106743 C-44.05261543 64.66788306 -44.08544346 59.37089288 -44.05423164 54.06653404 C-44.05756789 52.12854518 -44.09140106 50.19031265 -44.1591568 48.25350571 C-44.63106045 34.03889836 -44.63106045 34.03889836 -40.22306275 28.94762158 C-35.89310144 25.08888934 -31.12934361 22.07139134 -26.0982796 19.21349823 C-23.43425917 17.67281505 -20.9776775 15.90533879 -18.515625 14.0625 C-16.36068448 12.51506931 -14.20543675 10.96815782 -12.046875 9.42578125 C-8.79130545 7.08436619 -5.66406696 4.7344943 -2.671875 2.0625 C-1.79015625 1.381875 -0.9084375 0.70125 0 0 Z "
     fill="#FADEBD"
     transform="translate(63,783)"
     id="path12" />
  <path
     d="M0 0 C0.59321045 0.34635498 1.1864209 0.69270996 1.79760742 1.04956055 C2.46727539 1.4343457 3.13694336 1.81913086 3.8269043 2.21557617 C4.51204102 2.6184082 5.19717773 3.02124023 5.90307617 3.4362793 C7.2626236 4.22598771 8.62330161 5.01375298 9.98510742 5.79956055 C10.87999878 6.3241687 10.87999878 6.3241687 11.79296875 6.859375 C15.1704027 8.71802237 18.64248915 10.39973579 22.09057617 12.1237793 C22.09057617 104.8537793 22.09057617 197.5837793 22.09057617 293.1237793 C11.53057617 293.1237793 0.97057617 293.1237793 -9.90942383 293.1237793 C-9.90942383 264.4137793 -9.90942383 235.7037793 -9.90942383 206.1237793 C-6.95004804 207.60346719 -4.55977978 208.98019562 -1.90551758 210.8737793 C-1.16495117 211.3997168 -0.42438477 211.9256543 0.33862305 212.4675293 C1.48427734 213.28737305 1.48427734 213.28737305 2.65307617 214.1237793 C4.175005 215.20740284 5.69713249 216.29074743 7.21948242 217.3737793 C7.89052002 217.85331055 8.56155762 218.3328418 9.25292969 218.8269043 C10.84729098 219.9520866 12.46690018 221.04132864 14.09057617 222.1237793 C14.09057617 205.2937793 14.09057617 188.4637793 14.09057617 171.1237793 C7.82057617 175.0837793 1.55057617 179.0437793 -4.90942383 183.1237793 C-7.38442383 184.1137793 -7.38442383 184.1137793 -9.90942383 185.1237793 C-9.90942383 158.3937793 -9.90942383 131.6637793 -9.90942383 104.1237793 C-14.19942383 106.7637793 -18.48942383 109.4037793 -22.90942383 112.1237793 C-23.23942383 112.1237793 -23.56942383 112.1237793 -23.90942383 112.1237793 C-24.30418752 98.88532075 -24.60579397 85.64827192 -24.79023075 72.40511608 C-24.87878049 66.25460953 -24.99874026 60.10814212 -25.19189453 53.95996094 C-25.37731906 48.02029994 -25.47838655 42.08450826 -25.52233696 36.14217567 C-25.55363023 33.88149377 -25.61475349 31.62101255 -25.70683479 29.36198997 C-26.37777555 12.21172788 -26.37777555 12.21172788 -22.24027634 7.03564835 C-15.88312612 1.29990596 -8.40201617 -3.85562409 0 0 Z "
     fill="#A6A8A8"
     transform="translate(422.909423828125,730.876220703125)"
     id="path13" />
  <path
     d="M0 0 C0.99 0 1.98 0 3 0 C3 55.11 3 110.22 3 167 C-1.43087473 163.20210738 -5.58606977 159.5417375 -9.6875 155.4453125 C-10.19369873 154.9400705 -10.69989746 154.43482849 -11.22143555 153.91427612 C-12.28133819 152.85504767 -13.34000457 151.79458079 -14.39746094 150.73291016 C-15.99303722 149.13198611 -17.5938734 147.53646316 -19.1953125 145.94140625 C-27.70683942 137.43484328 -27.70683942 137.43484328 -31.5625 132.9296875 C-36.12051794 127.71904426 -41.10478139 122.89521861 -46 118 C-46.33 188.62 -46.66 259.24 -47 332 C-50.96 332 -54.92 332 -59 332 C-59.00331015 330.86802248 -59.00662029 329.73604496 -59.01003075 328.56976509 C-59.09092021 301.06323511 -59.18320333 273.5567615 -59.28752708 246.05031013 C-59.33771116 232.74855502 -59.38415328 219.44681519 -59.421875 206.14501953 C-59.45475146 194.55512148 -59.49455837 182.96527183 -59.54279006 171.37542713 C-59.56809839 165.23514114 -59.58986675 159.09488744 -59.60334396 152.95456314 C-59.61612512 147.18116269 -59.63813643 141.40787274 -59.66738319 135.63453293 C-59.67648998 133.51003459 -59.68215637 131.38551845 -59.68421364 129.26100159 C-59.68751438 126.3713938 -59.70293186 123.48210354 -59.7215271 120.59255981 C-59.71959237 119.74237687 -59.71765763 118.89219393 -59.71566427 118.01624787 C-59.56864787 113.53507255 -59.56864787 113.53507255 -62 110 C-61.01 110 -60.02 110 -59 110 C-59.02664734 109.16585571 -59.05329468 108.33171143 -59.08074951 107.47229004 C-59.32180977 99.58745982 -59.50418498 91.70387641 -59.62174606 83.81620026 C-59.68422461 79.76127725 -59.76884333 75.70941235 -59.90527344 71.65625 C-60.03627189 67.73966324 -60.10752348 63.82600348 -60.13852692 59.90739441 C-60.16059775 58.41751497 -60.20370857 56.92778542 -60.26876068 55.43916321 C-60.46486618 50.76291789 -60.43576072 46.5128611 -59 42 C-55.40232063 38.40772624 -51.51225911 36.26480069 -47 34 C-46.34 33.34 -45.68 32.68 -45 32 C-42.95162066 30.69305858 -40.86710868 29.45824891 -38.77734375 28.21875 C-36.85327072 27.11049805 -36.85327072 27.11049805 -36 25 C-34.515 24.5359375 -34.515 24.5359375 -33 24.0625 C-32.01 23.711875 -31.02 23.36125 -30 23 C-29.505 21.515 -29.505 21.515 -29 20 C-28.34 20 -27.68 20 -27 20 C-26.67 19.34 -26.34 18.68 -26 18 C-24.81806386 17.30703744 -23.60228655 16.67154669 -22.375 16.0625 C-16.86990838 13.12763694 -12.00522312 9.42799051 -7.05419922 5.65844727 C-2.20170582 2 -2.20170582 2 0 2 C0 1.34 0 0.68 0 0 Z "
     fill="#F9DDBD"
     transform="translate(158,692)"
     id="path14" />
  <path
     d="M0 0 C0 78.54 0 157.08 0 238 C-1.98 235.525 -1.98 235.525 -4 233 C-5.68135406 230.99436534 -7.36787392 228.99432271 -9.0625 227 C-9.5378418 226.43893555 -10.01318359 225.87787109 -10.50292969 225.29980469 C-12.9698401 222.38849358 -15.44154424 219.48134645 -17.91796875 216.578125 C-18.39290771 216.01996094 -18.86784668 215.46179688 -19.35717773 214.88671875 C-20.66901521 213.345166 -21.98287892 211.8053382 -23.296875 210.265625 C-23.93250618 209.48731575 -23.93250618 209.48731575 -24.58097839 208.69328308 C-25.60410057 207.47241692 -26.67413447 206.29033433 -27.77119446 205.13545227 C-33.32115616 198.89039291 -33.95997254 194.1433063 -33.68359375 185.96484375 C-33.67368912 184.84557999 -33.66378448 183.72631622 -33.65357971 182.57313538 C-33.61464671 179.0265449 -33.5268576 175.48314206 -33.4375 171.9375 C-33.4023592 169.52152933 -33.37042508 167.10550975 -33.34179688 164.68945312 C-33.26495431 158.79189602 -33.14807715 152.89617578 -33 147 C-33.5737395 146.72072222 -34.147479 146.44144444 -34.73860455 146.15370369 C-44.2371453 141.30780136 -44.2371453 141.30780136 -45.75371361 136.71985245 C-46.06392193 133.90327261 -46.11547741 131.18175694 -46.08276367 128.34814453 C-46.11101982 126.75676666 -46.11101982 126.75676666 -46.1398468 125.13323975 C-46.19028039 121.63213693 -46.18165047 118.13421125 -46.16796875 114.6328125 C-46.18098065 112.19431485 -46.19592677 109.75582682 -46.21272278 107.31735229 C-46.23804704 102.20777741 -46.23291216 97.09931245 -46.20776367 91.98974609 C-46.17899704 85.44925165 -46.23631344 78.9127661 -46.31794262 72.37283516 C-46.36943549 67.33677371 -46.36968653 62.30167239 -46.35515785 57.26540756 C-46.35536416 54.85487525 -46.37266984 52.44428031 -46.40755272 50.0340004 C-46.65587178 30.18226068 -46.65587178 30.18226068 -42.58535767 25.78997803 C-39.78056206 23.721862 -37.20497405 22.33592233 -34 21 C-32.79262703 20.19572939 -31.60009163 19.36774501 -30.4375 18.5 C-28 17 -28 17 -26 17 C-26 16.34 -26 15.68 -26 15 C-25.52433594 14.75507812 -25.04867188 14.51015625 -24.55859375 14.2578125 C-18.44804219 10.99435034 -12.75171294 7.23070211 -7.05444336 3.30322266 C-2.20950865 0 -2.20950865 0 0 0 Z "
     fill="#FADEBD"
     transform="translate(324,672)"
     id="path15" />
  <path
     d="M0 0 C3.556698 1.4226792 6.37177114 2.70164906 9.58203125 4.64453125 C10.43216797 5.15693359 11.28230469 5.66933594 12.15820312 6.19726562 C13.03412109 6.73029297 13.91003906 7.26332031 14.8125 7.8125 C16.10897461 8.59463867 16.10897461 8.59463867 17.43164062 9.39257812 C19.9593678 10.92066074 22.48341643 12.45362107 25 14 C25.65221606 14.30983438 26.30443212 14.61966876 26.9764123 14.93889207 C32.54515995 17.82486462 32.54515995 17.82486462 33.73693657 20.90396655 C34.01147265 23.28612132 34.02842617 25.55602819 33.96203613 27.95332336 C33.96887153 28.85597701 33.97570693 29.75863065 33.98274946 30.68863744 C33.9959325 33.71469562 33.95192997 36.73720822 33.90820312 39.76293945 C33.90594663 41.93113623 33.907213 44.09933913 33.91174316 46.26753235 C33.91404123 52.15601247 33.86696464 58.04319244 33.8111515 63.93137002 C33.76118551 70.08391517 33.75644517 76.2364892 33.74694824 82.38920593 C33.72207017 94.04118056 33.65640277 105.69255565 33.57615232 117.34426612 C33.48677387 130.60885751 33.44275733 143.87347733 33.40258884 157.13829482 C33.3189384 184.4258737 33.17659008 211.71287801 33 239 C22.11 239 11.22 239 0 239 C0 160.13 0 81.26 0 0 Z "
     fill="#B2B0AC"
     transform="translate(66,785)"
     id="path16" />
  <path
     d="M0 0 C7.88083136 4.5033322 7.88083136 4.5033322 11.3046875 6.98828125 C12.42810547 7.80135742 12.42810547 7.80135742 13.57421875 8.63085938 C14.71310547 9.46327148 14.71310547 9.46327148 15.875 10.3125 C16.62652344 10.85583984 17.37804687 11.39917969 18.15234375 11.95898438 C19.63703276 13.03748488 21.10791047 14.13533975 22.56206608 15.25466824 C24.91120374 17.03643175 24.91120374 17.03643175 27.37914944 18.17246342 C30.33314513 19.82861129 32.00195021 21.23990153 34 24 C35.35590404 30.52235978 35.138031 36.97752518 35.02172852 43.61303711 C35.0191887 45.63374721 35.0206171 47.65446562 35.02571106 49.6751709 C35.02829156 55.15258423 34.97541123 60.62822085 34.91254544 66.10522151 C34.85625183 71.83198311 34.8509944 77.55878627 34.84031677 83.28578186 C34.81235281 94.12676885 34.73851006 104.9669382 34.64817137 115.80756527 C34.54754571 128.15078697 34.49808328 140.49404789 34.45291245 152.8375777 C34.35885994 178.22552034 34.19876058 203.61267985 34 229 C22.78 229 11.56 229 0 229 C0 153.43 0 77.86 0 0 Z "
     fill="#999A9C"
     transform="translate(256,795)"
     id="path17" />
  <path
     d="M0 0 C4.64569667 3.4842725 9.25812464 6.97440669 13.83569336 10.54199219 C28.74913804 22.289483 28.74913804 22.289483 45 32 C45 78.86 45 125.72 45 174 C30.15 174 15.3 174 0 174 C0 116.58 0 59.16 0 0 Z "
     fill="#AFAFAD"
     transform="translate(979,850)"
     id="path18" />
  <path
     d="M0 0 C0.33 0 0.66 0 1 0 C1 27.06 1 54.12 1 82 C8.92 77.05 8.92 77.05 17 72 C17.99 71.505 17.99 71.505 19 71 C20.32 73.64 21.64 76.28 23 79 C23.33 55.57 23.66 32.14 24 8 C29.03201894 10.01280758 33.20224664 12.42509842 37.75 15.3125 C38.91982422 16.0230957 38.91982422 16.0230957 40.11328125 16.74804688 C40.85449219 17.21919922 41.59570312 17.69035156 42.359375 18.17578125 C43.03452148 18.59770752 43.70966797 19.01963379 44.40527344 19.4543457 C47.19383944 22.15710311 46.98495408 25.53981355 47.10743046 29.28580952 C47.09913432 30.54221335 47.09083818 31.79861719 47.08229065 33.09309387 C47.07906152 33.79565345 47.07583239 34.49821303 47.07250541 35.22206229 C47.06046794 37.56972869 47.04108747 39.917276 47.02172852 42.26489258 C47.01158174 43.95033512 47.0018885 45.63578045 46.99261475 47.32122803 C46.96617374 51.89313855 46.93338608 56.46498417 46.89946485 61.03684449 C46.86508222 65.81609989 46.83652823 70.59539002 46.80735779 75.37467957 C46.7512427 84.42332297 46.6898805 93.47192288 46.62663645 102.52051896 C46.55488578 112.82271086 46.48897956 123.12493756 46.42356598 133.42717135 C46.28888371 154.61816101 46.14608484 175.80908566 46 197 C30.82 197 15.64 197 0 197 C0 131.99 0 66.98 0 0 Z "
     fill="#B1B0AE"
     transform="translate(790,827)"
     id="path19" />
  <path
     d="M0 0 C7.60866374 3.79622029 13.65944762 11.66904549 19.55200195 17.67041016 C20.17550537 18.30253418 20.79900879 18.9346582 21.44140625 19.5859375 C22.27623535 20.43816895 22.27623535 20.43816895 23.12792969 21.30761719 C24.83785682 22.99204396 24.83785682 22.99204396 27.00195312 24.46435547 C28.83203125 25.9140625 28.83203125 25.9140625 29.50390625 28.4375 C29.5296875 29.37851562 29.55546875 30.31953125 29.58203125 31.2890625 C29.63875 32.22492187 29.69546875 33.16078125 29.75390625 34.125 C29.4496875 35.04539062 29.14546875 35.96578125 28.83203125 36.9140625 C27.507814 37.44001117 26.17463997 37.94355395 24.83691406 38.43412781 C22.5234317 39.68634813 22.5234317 39.68634813 20.83203125 41.9140625 C19.54445886 48.03290188 19.76261778 54.15264485 19.83203125 60.38208008 C19.82442486 62.30399203 19.81330574 64.22589283 19.79893494 66.14776611 C19.76989206 71.36466244 19.79005082 76.58035127 19.81895065 81.79720521 C19.84081724 87.24920773 19.81756622 92.70101178 19.79907227 98.15299988 C19.77092261 108.476747 19.78343152 118.80002984 19.81049633 129.12376374 C19.83933311 140.87704742 19.82292278 152.63013108 19.80268478 164.38341677 C19.76206947 188.56042599 19.77996832 212.7370906 19.83203125 236.9140625 C10.59203125 236.9140625 1.35203125 236.9140625 -8.16796875 236.9140625 C-8.30355447 207.29939515 -8.41099786 177.68476694 -8.47436073 148.06985484 C-8.48186514 144.57505245 -8.48963105 141.08025068 -8.49755859 137.58544922 C-8.49913246 136.88968522 -8.50070632 136.19392122 -8.50232787 135.47707346 C-8.52844928 124.2052895 -8.57576403 112.9336888 -8.63088553 101.66201362 C-8.6869575 90.09970883 -8.71986426 78.5375331 -8.73249972 66.97509503 C-8.74033591 60.4790913 -8.75880873 53.98350346 -8.80234909 47.48763275 C-8.84297269 41.37760959 -8.85565828 35.26817494 -8.84661484 29.15802956 C-8.84827005 26.91177234 -8.86026525 24.66549612 -8.8832016 22.41935539 C-8.91292751 19.35906026 -8.9059261 16.30100541 -8.88949585 13.24066162 C-8.9069729 12.34572203 -8.92444995 11.45078245 -8.9424566 10.52872348 C-8.90809085 8.17100335 -8.82506851 6.17870429 -8.16796875 3.9140625 C-3.60726613 -0.14299073 -3.60726613 -0.14299073 0 0 Z "
     fill="#B3AEAA"
     transform="translate(673.16796875,787.0859375)"
     id="path20" />
  <path
     d="M0 0 C0.66 0.33 1.32 0.66 2 1 C2 42.91 2 84.82 2 128 C-5.86236959 121.26082607 -5.86236959 121.26082607 -8.38671875 118.67578125 C-8.93263672 118.12212891 -9.47855469 117.56847656 -10.04101562 116.99804688 C-10.58435547 116.44181641 -11.12769531 115.88558594 -11.6875 115.3125 C-12.79312322 114.18119447 -13.90113205 113.0522146 -15.01171875 111.92578125 C-15.49084717 111.43505127 -15.96997559 110.94432129 -16.46362305 110.4387207 C-18.01732219 108.8945392 -18.01732219 108.8945392 -20.17504883 107.61865234 C-22 106 -22 106 -22.35546875 103.7668457 C-22.30003906 102.91179443 -22.24460937 102.05674316 -22.1875 101.17578125 C-22.16558594 100.22896484 -22.14367187 99.28214844 -22.12109375 98.30664062 C-22.04109171 96.32852578 -21.92966032 94.35140424 -21.78515625 92.37695312 C-21.63166038 89.01967095 -21.63166038 89.01967095 -23 84 C-26.96 81.36 -30.92 78.72 -35 76 C-35.33 139.03 -35.66 202.06 -36 267 C-41.28 267 -46.56 267 -52 267 C-52 205.62 -52 144.24 -52 81 C-49.525 80.505 -49.525 80.505 -47 80 C-43.12275598 78.19758769 -39.93951162 76.1208928 -37 73 C-35.81950955 69.20277212 -36.17401336 65.75935028 -36.54296875 61.8359375 C-36.62876562 59.63944236 -36.71134552 57.44281965 -36.79101562 55.24609375 C-36.97256037 51.81168864 -37.18656051 48.38668645 -37.4621582 44.95849609 C-38.60701363 29.50573478 -38.60701363 29.50573478 -36 23 C-31.09317147 17.34888364 -24.376141 14.30555916 -17.6625824 11.27992249 C-13.56644979 9.31088212 -9.90503348 6.78482055 -6.1875 4.1875 C-4.97361965 3.36706238 -3.75887327 2.54790351 -2.54296875 1.73046875 C-1.70378906 1.15941406 -0.86460937 0.58835937 0 0 Z "
     fill="#F9DBBA"
     transform="translate(632,757)"
     id="path21" />
  <path
     d="M0 0 C0 1.32 0 2.64 0 4 C-1.85129579 4.94544198 -3.71151307 5.87736929 -5.61219788 6.71912575 C-10.31232697 8.92600949 -14.900716 11.27019099 -16.92022705 16.28516388 C-18.30347271 23.20898721 -17.83363909 30.27497187 -17.5625 37.2890625 C-17.53262534 39.56155403 -17.5098653 41.83414922 -17.49389648 44.10678101 C-17.43304847 50.06411596 -17.27613886 56.01512244 -17.09863281 61.9699707 C-16.93440006 68.05593232 -16.86176659 74.14292591 -16.78125 80.23046875 C-16.61009226 92.15641382 -16.33735111 104.07767907 -16 116 C-15.22914063 115.4946875 -14.45828125 114.989375 -13.6640625 114.46875 C-12.66117187 113.8190625 -11.65828125 113.169375 -10.625 112.5 C-9.12839844 111.52546875 -9.12839844 111.52546875 -7.6015625 110.53125 C-5 109 -5 109 -3 109 C-3 135.73 -3 162.46 -3 190 C3.93 185.71 10.86 181.42 18 177 C18.99 176.67 19.98 176.34 21 176 C21 192.83 21 209.66 21 227 C18.04062421 225.52031211 15.65035595 224.14358368 12.99609375 222.25 C11.88524414 221.46109375 11.88524414 221.46109375 10.75195312 220.65625 C9.98818359 220.1096875 9.22441406 219.563125 8.4375 219 C6.91557118 217.91637645 5.39344368 216.83303186 3.87109375 215.75 C3.20005615 215.27046875 2.52901855 214.7909375 1.83764648 214.296875 C0.24328519 213.1716927 -1.37632401 212.08245066 -3 211 C-3 239.71 -3 268.42 -3 298 C-6.3 298 -9.6 298 -13 298 C-13 255.76 -13 213.52 -13 170 C-14.65 169.34 -16.3 168.68 -18 168 C-22.455 165.525 -22.455 165.525 -27 163 C-27 149.47 -27 135.94 -27 122 C-28.65 121.34 -30.3 120.68 -32 120 C-33.8125 118.375 -33.8125 118.375 -35 117 C-34.34 117 -33.68 117 -33 117 C-33.33 116.01 -33.66 115.02 -34 114 C-34.09174324 111.00225108 -34.12593903 108.02815053 -34.11352539 105.03051758 C-34.11367142 104.11324387 -34.11381744 103.19597015 -34.1139679 102.25090027 C-34.11327057 99.21541997 -34.10548656 96.18000084 -34.09765625 93.14453125 C-34.09579143 91.04131606 -34.09436783 88.93810043 -34.09336853 86.83488464 C-34.08954839 81.29630334 -34.07972237 75.7577482 -34.06866455 70.21917725 C-34.05843964 64.56864781 -34.05386859 58.91811415 -34.04882812 53.26757812 C-34.03809968 42.17837391 -34.02102926 31.08918913 -34 20 C-33.34 20 -32.68 20 -32 20 C-32 19.34 -32 18.68 -32 18 C-30.96875 17.525625 -29.9375 17.05125 -28.875 16.5625 C-22.26220458 13.26786883 -16.17555778 9.03614145 -10 5 C-2.30414747 0 -2.30414747 0 0 0 Z "
     fill="#F8DBBA"
     transform="translate(416,726)"
     id="path22" />
  <path
     d="M0 0 C0 47.85 0 95.7 0 145 C-11.88 145 -23.76 145 -36 145 C-36.54366465 129.09118729 -36.98485425 113.18982705 -37.24349213 97.27440548 C-37.36682554 89.88290456 -37.53459388 82.49761568 -37.81054688 75.11010742 C-38.05122435 68.66383364 -38.20490618 62.22205514 -38.25812387 55.77141386 C-38.28921749 52.35868707 -38.36103344 48.95880427 -38.53752136 45.55024529 C-39.48828137 24.8955714 -39.48828137 24.8955714 -33.69094849 18.42134476 C-27.98066964 13.77080982 -21.70524301 10.48724343 -15.02961731 7.44069099 C-11.15240062 5.59693629 -7.56728562 3.39375479 -3.94411469 1.09846401 C-2 0 -2 0 0 0 Z "
     fill="#FBDAB6"
     transform="translate(372,879)"
     id="path23" />
  <path
     d="M0 0 C0.33 0 0.66 0 1 0 C0.99254257 0.61450516 0.98508514 1.22901031 0.97740173 1.86213684 C0.90816853 8.30379818 0.90266266 14.74335699 0.93286133 21.18530273 C0.93592863 23.58377362 0.92317238 25.98232226 0.89379883 28.38061523 C0.10050072 43.99581809 0.10050072 43.99581809 6.1953125 57.70703125 C7.7550814 59.18346432 9.35341623 60.62105275 11 62 C12.07513743 63.20527022 13.12927292 64.42991837 14.15234375 65.6796875 C15.52878627 67.26307104 16.90913478 68.84275752 18.29492188 70.41796875 C23.5001047 76.41789063 28.12262298 82.65940988 33 89 C33.33 65.9 33.66 42.8 34 19 C34.33 19 34.66 19 35 19 C35 80.38 35 141.76 35 205 C23.45 205 11.9 205 0 205 C0 137.35 0 69.7 0 0 Z "
     fill="#B5B1AC"
     transform="translate(290,819)"
     id="path24" />
  <path
     d="M0 0 C12.2323997 6.67221802 12.2323997 6.67221802 17.875 10.5625 C26.7204448 16.58553404 35.84449547 22.15218591 44.96972656 27.73828125 C46.66706783 28.79309843 48.33722984 29.89148656 50 31 C50.28679046 33.45465849 50.37873005 35.6564484 50.34057617 38.11181641 C50.34123329 39.20953117 50.34123329 39.20953117 50.34190369 40.329422 C50.33980989 42.75373815 50.3164519 45.17736684 50.29296875 47.6015625 C50.28737488 49.28021873 50.28310379 50.95887985 50.28010559 52.63754272 C50.26864033 57.05999222 50.23915891 61.48214706 50.20599365 65.90447998 C50.16993927 71.20828156 50.1561396 76.51218155 50.13863373 81.81607056 C50.10952233 89.87758543 50.05204729 97.93845352 50 106 C33.5 106 17 106 0 106 C0 71.02 0 36.04 0 0 Z "
     fill="#9A9B9D"
     transform="translate(884,918)"
     id="path25" />
  <path
     d="M0 0 C1.66850942 0.6620412 3.33468511 1.32996377 5 2 C6.01157795 2.35877983 7.0231559 2.71755966 8.06538773 3.08721161 C11.76405947 4.85617669 14.73292801 6.5546838 17 10 C19.36186339 17.75816482 18.5119637 26.40179765 18.36230469 34.40820312 C18.35891869 36.9315169 18.36082197 39.45484251 18.36761475 41.97814941 C18.37034461 47.40498945 18.33639251 52.82961268 18.26876068 58.2559967 C18.17104807 66.1010136 18.13996531 73.94519435 18.12490478 81.79075378 C18.09866964 94.52048342 18.01889051 107.249288 17.90527344 119.97851562 C17.79504977 132.34044785 17.71014662 144.70212842 17.65917969 157.06445312 C17.65602701 157.8270222 17.65287432 158.58959128 17.64962611 159.37526852 C17.63396515 163.2010241 17.61880078 167.02678147 17.60388327 170.85254002 C17.47957138 202.56903842 17.26739934 234.28437519 17 266 C11.72 266 6.44 266 1 266 C0.8236673 245.66674181 0.65773352 225.33341032 0.5 205 C0.49405146 204.23469247 0.48810292 203.46938494 0.48197412 202.68088627 C0.10102628 153.57852219 -0.09290142 104.47884449 -0.0625 55.375 C-0.06207577 54.66890846 -0.06165154 53.96281693 -0.06121445 53.23532867 C-0.05036745 35.4902058 -0.03037813 17.74510054 0 0 Z "
     fill="#AAADAE"
     transform="translate(634,758)"
     id="path26" />
  <path
     d="M0 0 C0 50.49 0 100.98 0 153 C-6.23999662 149.02909306 -12.32249959 145.150672 -18.3203125 140.87109375 C-20.84802019 139.009449 -20.84802019 139.009449 -23.19451809 137.90308189 C-29.49758249 134.47062229 -29.49758249 134.47062229 -30.81970406 130.60065079 C-31.10971413 127.58997337 -31.1137531 124.6939033 -31.02172852 121.67041016 C-31.02304276 120.53811981 -31.02435699 119.40582947 -31.02571106 118.23922729 C-31.01945079 114.50424834 -30.94949939 110.77333337 -30.87890625 107.0390625 C-30.86211654 104.4469117 -30.84930709 101.85473231 -30.84031677 99.26254272 C-30.80948955 93.1420963 -30.73859984 87.0233219 -30.64817137 80.90350473 C-30.54743136 73.93393398 -30.49805556 66.96429227 -30.45291245 59.99417424 C-30.35894112 45.66200336 -30.20072926 31.33105336 -30 17 C-29.34 17 -28.68 17 -28 17 C-28 16.34 -28 15.68 -28 15 C-27.40574219 14.72027344 -26.81148437 14.44054687 -26.19921875 14.15234375 C-20.38466816 11.34001835 -14.95051422 8.1789177 -9.54296875 4.6484375 C-2.37203791 0 -2.37203791 0 0 0 Z "
     fill="#FADDBB"
     transform="translate(978,849)"
     id="path27" />
  <path
     d="M0 0 C2.31 1.98 4.62 3.96 7 6 C8.07603107 6.83400204 9.15206215 7.66800407 10.26070023 8.5272789 C15.83676425 13.10255617 19.53513123 17.15821784 20.32565069 24.52368689 C20.53694592 28.83990046 20.46845502 33.12797326 20.36230469 37.44628906 C20.35891431 39.38891895 20.36083053 41.33156418 20.36761475 43.27418518 C20.37104041 48.51641131 20.30078926 53.75530345 20.21672726 58.99675846 C20.14141128 64.48584376 20.1346392 69.97501628 20.12042236 75.46453857 C20.0832116 85.84529158 19.98485945 96.22451744 19.86422849 106.60459971 C19.72982543 118.42789483 19.66405254 130.25126516 19.60388327 142.07513475 C19.47864954 166.38429673 19.26531822 190.69199805 19 215 C12.73 215 6.46 215 0 215 C0 144.05 0 73.1 0 0 Z "
     fill="#B5B1AD"
     transform="translate(111,809)"
     id="path28" />
  <path
     d="M0 0 C0 116.16 0 232.32 0 352 C-3.3 352 -6.6 352 -10 352 C-10.20597274 308.31272002 -10.36457306 264.62549141 -10.45958797 220.93782166 C-10.47084441 215.7808126 -10.4824933 210.6238045 -10.49438477 205.46679688 C-10.49674556 204.44012388 -10.49910635 203.41345088 -10.50153869 202.35566658 C-10.54070705 185.7290164 -10.61167161 169.10264612 -10.69437516 152.47616202 C-10.77852127 135.41747365 -10.82852523 118.35893193 -10.84679645 101.30004454 C-10.85914943 90.77251819 -10.89817174 80.24578292 -10.9712482 69.71850008 C-11.01880052 62.50077966 -11.03320599 55.28346855 -11.0215124 48.06560284 C-11.01574395 43.90012098 -11.02462033 39.73602184 -11.07284927 35.57078552 C-11.11670575 31.75529431 -11.11882962 27.94211278 -11.08809005 24.12651438 C-11.08249636 22.09626954 -11.12127076 20.06605128 -11.16173178 18.03620195 C-11.03334629 9.33683363 -11.03334629 9.33683363 -7.95914257 5.35975552 C-2.05245947 0 -2.05245947 0 0 0 Z "
     fill="#E3CFB8"
     transform="translate(464,672)"
     id="path29" />
  <path
     d="M0 0 C3.83483192 2.30089915 6.96942257 4.48752961 10.375 7.3125 C11.26960938 8.05113281 12.16421875 8.78976562 13.0859375 9.55078125 C14.04757812 10.35902344 15.00921875 11.16726563 16 12 C16.58613697 12.36721664 17.17227394 12.73443329 17.77617264 13.11277771 C20.87960357 15.24325139 22.70336204 16.89049011 23.69426727 20.59675598 C24.0125283 23.90671435 24.10590392 27.15903675 24.12792969 30.484375 C24.16268402 31.7404808 24.19743835 32.99658661 24.23324585 34.29075623 C24.32474531 37.72715761 24.3701524 41.16260482 24.40132046 44.60003281 C24.4219082 46.75347225 24.45065474 48.90665688 24.48184967 51.05996704 C24.57750338 57.81531997 24.64519131 64.57008316 24.67226291 71.32606602 C24.70356755 79.09326161 24.8260417 86.85179292 25.02926707 94.61635399 C25.18134992 100.63889774 25.25123072 106.65902547 25.26055074 112.68346596 C25.26784343 116.27320959 25.30805022 119.8548062 25.43428802 123.44250488 C26.15545 145.12644196 26.15545 145.12644196 20.86000061 151.62701416 C15.68192632 156.22884891 7.29098217 163 0 163 C0 109.21 0 55.42 0 0 Z "
     fill="#A9ACAE"
     transform="translate(325,674)"
     id="path30" />
  <path
     d="M0 0 C1.59260796 1.30947765 3.17411182 2.6336139 4.71581554 4.00265789 C6.38793603 5.46479754 8.11497558 6.86476838 9.8701601 8.22607899 C15.02306816 12.61121747 18.44853095 15.89017243 19.21389806 22.93718755 C19.40974059 26.85963438 19.34612255 30.75596047 19.2487793 34.68041992 C19.24567138 36.44556482 19.24742813 38.21072391 19.25364685 39.9758606 C19.25678678 44.73871979 19.19239471 49.49849492 19.11533332 54.26064086 C19.04628891 59.24792445 19.04008557 64.2352889 19.02705383 69.22297668 C18.99294532 78.65456008 18.90279116 88.08473093 18.79220945 97.51569396 C18.6690023 108.25798698 18.60871376 119.0003496 18.55355966 129.74317396 C18.43876529 151.82956924 18.24544518 173.91469542 18 196 C15.18743719 196.02684312 12.37512759 196.04676188 9.5625 196.0625 C8.76005859 196.07087891 7.95761719 196.07925781 7.13085938 196.08789062 C5.08704779 196.0965143 3.04316098 196.0522815 1 196 C-0.72495761 194.27504239 -0.12236029 192.06681089 -0.12908131 189.76716131 C-0.12616847 189.01133923 -0.12325563 188.25551716 -0.12025452 187.47679138 C-0.12110894 186.67964425 -0.12196337 185.88249711 -0.12284368 185.061194 C-0.12450092 182.36946835 -0.11897316 179.67780397 -0.11352539 176.98608398 C-0.11324355 175.06477866 -0.1134012 173.14347323 -0.1139679 171.22216797 C-0.11425597 165.98891366 -0.10835759 160.75568205 -0.10139394 155.52243304 C-0.0951621 150.0598021 -0.09455674 144.59717069 -0.09336853 139.13453674 C-0.09025471 128.78247776 -0.08204064 118.43042927 -0.07201904 108.07837492 C-0.06085947 96.29623148 -0.05534785 84.51408755 -0.05032361 72.73194015 C-0.03985807 48.48795427 -0.02225765 24.24397772 0 0 Z "
     fill="#A4A4A4"
     transform="translate(129,828)"
     id="path31" />
  <path
     d="M0 0 C0.61875 0.309375 1.2375 0.61875 1.875 0.9375 C2.56375088 1.26195508 3.25250175 1.58641016 3.96212387 1.92069721 C7.06945545 5.19685027 6.41245482 8.79483739 6.35601807 13.1438446 C6.35943577 14.09787558 6.36285347 15.05190655 6.36637473 16.03484756 C6.37298653 19.24578247 6.35092277 22.45588959 6.32910156 25.66674805 C6.3279738 27.96272766 6.32860555 30.25870872 6.33087158 32.5546875 C6.33202243 38.80030394 6.30845293 45.04561506 6.28057575 51.29116035 C6.2556239 57.81346079 6.25322501 64.33576771 6.24847412 70.85810852 C6.23744165 81.809514 6.21243209 92.76080633 6.17675781 103.7121582 C6.1400492 114.99275144 6.11173184 126.27331418 6.09472656 137.55395508 C6.09367567 138.24913688 6.09262477 138.94431868 6.09154204 139.66056659 C6.08632194 143.1480431 6.08126709 146.63551982 6.07629442 150.12299669 C6.03481854 179.06123882 5.96406097 207.99936672 5.875 236.9375 C1.255 236.9375 -3.365 236.9375 -8.125 236.9375 C-8.26181987 207.32284233 -8.36802912 177.7081996 -8.43139198 148.09329234 C-8.43889639 144.59848995 -8.4466623 141.10368818 -8.45458984 137.60888672 C-8.45616371 136.91312272 -8.45773757 136.21735872 -8.45935912 135.50051096 C-8.48548053 124.228727 -8.53279528 112.9571263 -8.58791678 101.68545112 C-8.64398875 90.12314633 -8.67689551 78.5609706 -8.68953097 66.99853253 C-8.69736716 60.5025288 -8.71583998 54.00694096 -8.75938034 47.51107025 C-8.80000394 41.40104709 -8.81268953 35.29161244 -8.80364609 29.18146706 C-8.8053013 26.93520984 -8.8172965 24.68893362 -8.84023285 22.44279289 C-8.86995876 19.38249776 -8.86295735 16.32444291 -8.8465271 13.26409912 C-8.86400415 12.36915953 -8.8814812 11.47421995 -8.89948785 10.55216098 C-8.86512118 8.19437767 -8.78233298 6.20214796 -8.125 3.9375 C-3.57376256 -0.10511066 -3.57376256 -0.10511066 0 0 Z "
     fill="#9E9F9F"
     transform="translate(673.125,787.0625)"
     id="path32" />
  <path
     d="M0 0 C0 108.24 0 216.48 0 328 C-3.3 328 -6.6 328 -10 328 C-10.0684056 287.57380065 -10.12151239 247.14761037 -10.15319599 206.7213647 C-10.15694821 201.95104317 -10.16083116 197.18072175 -10.16479492 192.41040039 C-10.16558185 191.46069645 -10.16636878 190.5109925 -10.16717956 189.53250965 C-10.18024125 174.14553669 -10.2038993 158.75859728 -10.23145839 143.37164424 C-10.25949136 127.58873899 -10.27617179 111.80585134 -10.28226548 96.02292222 C-10.28638631 86.28031752 -10.29941179 76.53780765 -10.3237494 66.79523214 C-10.33958057 60.1186486 -10.34440631 53.44211424 -10.34050413 46.76551328 C-10.33857849 42.91074655 -10.34157557 39.05614577 -10.35761642 35.20140839 C-10.37486755 31.02542373 -10.36897964 26.84979439 -10.36076355 22.67378235 C-10.36950207 21.451025 -10.3782406 20.22826765 -10.38724393 18.96845704 C-10.38127078 17.85078201 -10.37529764 16.73310697 -10.36914349 15.581563 C-10.37028265 14.61745308 -10.37142181 13.65334316 -10.37259549 12.66001779 C-9.78477176 8.46345173 -5.14695324 0 0 0 Z "
     fill="#E3D1B9"
     transform="translate(483,696)"
     id="path33" />
  <path
     d="M0 0 C3.86671682 1.54668673 6.75549243 2.97650331 10.1953125 5.1875 C11.15824219 5.80367187 12.12117187 6.41984375 13.11328125 7.0546875 C14.10714844 7.69664062 15.10101563 8.33859375 16.125 9 C17.12660156 9.64195312 18.12820312 10.28390625 19.16015625 10.9453125 C22.78944775 13.2739049 26.41208488 15.60805659 30 18 C30.28601949 21.08012614 30.37789828 23.95822922 30.34057617 27.03955078 C30.34123329 28.44450302 30.34123329 28.44450302 30.34190369 29.87783813 C30.33980819 32.98387259 30.31644122 36.08937196 30.29296875 39.1953125 C30.28737551 41.34479477 30.28310413 43.49428086 30.28010559 45.64376831 C30.26863547 51.30904649 30.2391496 56.97409498 30.20599365 62.63928223 C30.17533946 68.41704195 30.16161021 74.19483869 30.14648438 79.97265625 C30.11428197 91.31522147 30.06149632 102.65755573 30 114 C20.1 114 10.2 114 0 114 C0 76.38 0 38.76 0 0 Z "
     fill="#9E9FA0"
     transform="translate(162,910)"
     id="path34" />
  <path
     d="M0 0 C0.33 0 0.66 0 1 0 C1 92.73 1 185.46 1 281 C-9.56 281 -20.12 281 -31 281 C-31 252.29 -31 223.58 -31 194 C-28.04062421 195.47968789 -25.65035595 196.85641632 -22.99609375 198.75 C-22.25552734 199.2759375 -21.51496094 199.801875 -20.75195312 200.34375 C-19.98818359 200.8903125 -19.22441406 201.436875 -18.4375 202 C-16.91557118 203.08362355 -15.39344368 204.16696814 -13.87109375 205.25 C-13.20005615 205.72953125 -12.52901855 206.2090625 -11.83764648 206.703125 C-10.24328519 207.8283073 -8.62367599 208.91754934 -7 210 C-7 193.17 -7 176.34 -7 159 C-5.02 159.99 -3.04 160.98 -1 162 C-0.67 108.54 -0.34 55.08 0 0 Z "
     fill="#B7B4AE"
     transform="translate(444,743)"
     id="path35" />
  <path
     d="M0 0 C3.63 1.98 7.26 3.96 11 6 C12.70542969 6.59167969 12.70542969 6.59167969 14.4453125 7.1953125 C17.80486766 8.36087245 19.52984725 9.40369057 22 12 C22.7735835 14.9673662 22.77539427 17.8893996 22.79858398 20.94433594 C22.82328231 21.82974941 22.84798063 22.71516289 22.87342739 23.62740707 C22.94267016 26.41852805 22.9755309 29.20815582 23 32 C23.01786497 33.28198021 23.01786497 33.28198021 23.03609085 34.58985901 C23.11840956 40.64886043 23.1156149 46.70621722 23.09765625 52.765625 C23.09578402 54.66518109 23.09436394 56.56473768 23.09336853 58.46429443 C23.08960657 63.38941861 23.07983283 68.31451182 23.06866455 73.23962402 C23.05831198 78.29516176 23.0538417 83.35070465 23.04882812 88.40625 C23.03820278 98.27084891 23.02065981 108.135417 23 118 C15.41 118 7.82 118 0 118 C0 79.06 0 40.12 0 0 Z "
     fill="#9E9FA1"
     transform="translate(513,906)"
     id="path36" />
  <path
     d="M0 0 C0 83.49 0 166.98 0 253 C-3.3 253 -6.6 253 -10 253 C-10.18252031 221.78029486 -10.32408698 190.56073086 -10.40852264 159.34061882 C-10.41852823 155.65440581 -10.42888281 151.96819385 -10.43945312 148.28198242 C-10.44155161 147.54812736 -10.44365009 146.8142723 -10.44581217 146.05817921 C-10.4806182 134.17726801 -10.54369194 122.29666663 -10.61722237 110.4159392 C-10.69204795 98.22422095 -10.73647294 86.03266489 -10.75270796 73.84072644 C-10.76368254 66.31808146 -10.79833574 58.7963122 -10.86333174 51.27393682 C-10.91063955 45.50465909 -10.91563834 39.73594184 -10.90486145 33.96650887 C-10.90706388 31.60054761 -10.92299831 29.23455347 -10.9536438 26.86878967 C-10.9934414 23.63826995 -10.9838884 20.41149901 -10.96203613 17.18089294 C-10.98533886 16.24410955 -11.0086416 15.30732616 -11.03265047 14.3421554 C-10.96013473 10.37750268 -10.77675072 7.95532984 -8.224967 4.81687748 C-2.89781238 0 -2.89781238 0 0 0 Z "
     fill="#E4D1BA"
     transform="translate(503,771)"
     id="path37" />
  <path
     d="M0 0 C12 7 12 7 14 9 C14.18078778 11.43484427 14.23603973 13.75346644 14.20254517 16.18789673 C14.19898311 17.31139513 14.19898311 17.31139513 14.1953491 18.45759046 C14.18488878 20.98050235 14.16000577 23.50306966 14.13525391 26.02587891 C14.12483332 27.82910187 14.11529706 29.63233012 14.10658264 31.43556213 C14.08034807 36.34240158 14.04168332 41.24907495 14.00085878 46.15581179 C13.96032013 51.27939801 13.9311131 56.40304821 13.90072632 61.52670288 C13.84142081 71.23421869 13.77186057 80.94163312 13.69865549 90.64905298 C13.61582698 101.69841636 13.54437037 112.74784402 13.47388959 123.79729199 C13.32861894 146.53162253 13.1690003 169.26583436 13 192 C8.71 192 4.42 192 0 192 C0 128.64 0 65.28 0 0 Z "
     fill="#AEACA9"
     transform="translate(596,832)"
     id="path38" />
  <path
     d="M0 0 C9.03225806 7.74193548 9.03225806 7.74193548 13 12 C13 12.66 13 13.32 13 14 C13.66 14.33 14.32 14.66 15 15 C15 68.79 15 122.58 15 178 C10.05 178 5.1 178 0 178 C0 119.26 0 60.52 0 0 Z "
     fill="#B7B2AD"
     transform="translate(147,846)"
     id="path39" />
  <path
     d="M0 0 C0.33 0 0.66 0 1 0 C1 74.25 1 148.5 1 225 C-2.96 225 -6.92 225 -11 225 C-11.20838188 206.19816877 -11.36897035 187.39666384 -11.46630955 168.59391594 C-11.51270842 159.86331741 -11.57595854 151.13344972 -11.67895508 142.40332031 C-11.76868986 134.79364508 -11.82673036 127.18449908 -11.84679645 119.57430947 C-11.85852603 115.54480285 -11.88606483 111.51681019 -11.95157051 107.48778915 C-12.01275751 103.6935821 -12.03148767 99.90150895 -12.01796913 96.10685539 C-12.02044116 94.71600801 -12.03829495 93.32508786 -12.07284927 91.93466759 C-12.32065659 81.44700805 -12.32065659 81.44700805 -8.99799919 77.80646133 C-3.4797839 74 -3.4797839 74 0 74 C0 49.58 0 25.16 0 0 Z "
     fill="#E4C7AC"
     transform="translate(744,799)"
     id="path40" />
  <path
     d="M0 0 C0.33 0 0.66 0 1 0 C1 6.27 1 12.54 1 19 C2.42054688 18.13375 3.84109375 17.2675 5.3046875 16.375 C7.16131843 15.24976913 9.01809691 14.12478168 10.875 13 C11.81214844 12.42765625 12.74929688 11.8553125 13.71484375 11.265625 C15.05869141 10.45351563 15.05869141 10.45351563 16.4296875 9.625 C17.25710449 9.12226562 18.08452148 8.61953125 18.93701172 8.1015625 C21 7 21 7 23 7 C23 31.09 23 55.18 23 80 C20.37886292 77.37886292 18.80357333 75.17772443 17 72 C15.94039062 72.721875 14.88078125 73.44375 13.7890625 74.1875 C12.4012049 75.12524162 11.01317512 76.06272848 9.625 77 C8.92632813 77.47695313 8.22765625 77.95390625 7.5078125 78.4453125 C6.8375 78.89648438 6.1671875 79.34765625 5.4765625 79.8125 C4.85861816 80.23144531 4.24067383 80.65039062 3.60400391 81.08203125 C2 82 2 82 0 82 C0 54.94 0 27.88 0 0 Z "
     fill="#FADCBB"
     transform="translate(791,827)"
     id="path41" />
  <path
     d="M0 0 C0 57.75 0 115.5 0 175 C-2.64 175 -5.28 175 -8 175 C-8.16360749 153.36420002 -8.28700317 131.7285022 -8.3626852 110.09220886 C-8.39876167 100.04579983 -8.44793639 89.99977542 -8.52807617 79.95361328 C-8.59790248 71.19614337 -8.64302082 62.43895203 -8.65861946 53.68121147 C-8.66773613 49.04497664 -8.68912206 44.40953869 -8.7401104 39.77355957 C-8.78774803 35.40671148 -8.80225629 31.04098577 -8.79175377 26.67390251 C-8.79367407 25.07431875 -8.80752637 23.47469611 -8.83443832 21.8753376 C-9.05157957 8.30096917 -9.05157957 8.30096917 -4.51283264 2.98510742 C-1.35271678 0 -1.35271678 0 0 0 Z "
     fill="#DFCDB8"
     transform="translate(850,849)"
     id="path42" />
  <path
     d="M0 0 C0 45.87 0 91.74 0 139 C-2.64 139 -5.28 139 -8 139 C-8.1402167 121.76266495 -8.24599345 104.5255081 -8.31087303 87.28773308 C-8.34179972 79.28375042 -8.3839569 71.28012228 -8.45263672 63.27636719 C-8.51247588 56.29954703 -8.5511578 49.32298365 -8.56453097 42.34591401 C-8.57234737 38.65209865 -8.59069085 34.9590178 -8.63438034 31.26543808 C-8.6827813 27.14000748 -8.68393701 23.01585036 -8.68115234 18.89013672 C-8.702724 17.66806015 -8.72429565 16.44598358 -8.746521 15.18687439 C-8.67897153 5.95424755 -8.67897153 5.95424755 -5.08242798 2.19436646 C-2 0 -2 0 0 0 Z "
     fill="#DFCEB8"
     transform="translate(866,885)"
     id="path43" />
  <path
     d="M0 0 C0 35.31 0 70.62 0 107 C-3.3 107 -6.6 107 -10 107 C-10.18537878 93.93510442 -10.32751715 80.87052177 -10.41449738 67.80457878 C-10.45624461 61.73741065 -10.51286652 55.67114238 -10.60351562 49.60449219 C-10.69045504 43.74945363 -10.73827762 37.89528037 -10.75901794 32.03964615 C-10.77379736 29.80601502 -10.80265931 27.57243115 -10.84584045 25.33916855 C-10.90394998 22.20928492 -10.911912 19.08297319 -10.90820312 15.95263672 C-10.95134644 14.56835732 -10.95134644 14.56835732 -10.99536133 13.15611267 C-10.94616144 9.31723747 -10.87686309 6.96366923 -8.22825623 4.05286026 C-3.00152355 0 -3.00152355 0 0 0 Z "
     fill="#E5CFB7"
     transform="translate(883,917)"
     id="path44" />
  <path
     d="M0 0 C0 37.62 0 75.24 0 114 C-2.97 114 -5.94 114 -9 114 C-9.16210756 99.87469156 -9.28652823 85.74960396 -9.3626852 71.62355518 C-9.3992349 65.06437668 -9.4488196 58.50583401 -9.52807617 51.94702148 C-9.60407002 45.61869233 -9.64597719 39.29097515 -9.6641407 32.96222496 C-9.6770864 30.54638723 -9.70236658 28.13058343 -9.7401104 25.71500587 C-9.79084722 22.33376016 -9.79792681 18.95505074 -9.79467773 15.57348633 C-9.83242813 14.07160515 -9.83242813 14.07160515 -9.87094116 12.53938293 C-9.80197115 5.91652981 -9.80197115 5.91652981 -7.45851326 3.23831749 C-3.09994451 0 -3.09994451 0 0 0 Z "
     fill="#E6C9AC"
     transform="translate(725,910)"
     id="path45" />
  <path
     d="M0 0 C6.81858038 3.71922566 12.83076228 7.05055797 18.875 11.6875 C20.12087613 12.63091653 21.36823944 13.57237279 22.6171875 14.51171875 C23.19218994 14.95717041 23.76719238 15.40262207 24.35961914 15.86157227 C26.11925102 17.17797758 26.11925102 17.17797758 28.92578125 18.1328125 C31 20 31 20 31.38476562 22.28930664 C31.49456967 25.27654647 31.43379499 28.19977886 31.3125 31.1875 C31.209375 34.755625 31.10625 38.32375 31 42 C20.77 42 10.54 42 0 42 C0 28.14 0 14.28 0 0 Z "
     fill="#C0B9AF"
     transform="translate(948,982)"
     id="path46" />
  <path
     d="M0 0 C0 32.67 0 65.34 0 99 C-2.64 99 -5.28 99 -8 99 C-8.13899563 86.8304233 -8.24561923 74.6610353 -8.31087303 62.49082661 C-8.3421912 56.83970931 -8.38467399 51.1891349 -8.45263672 45.53833008 C-8.51781029 40.08533071 -8.55370238 34.63285363 -8.56926346 29.17949486 C-8.58035329 27.09860193 -8.60200948 25.01773772 -8.63438034 22.93706703 C-8.67791672 20.02292662 -8.68393524 17.11094629 -8.68115234 14.1965332 C-8.702724 13.33554016 -8.72429565 12.47454712 -8.746521 11.58746338 C-8.68751157 5.87965242 -8.68751157 5.87965242 -6.68877029 3.32231712 C-2.86887418 0 -2.86887418 0 0 0 Z "
     fill="#E6CAAD"
     transform="translate(707,925)"
     id="path47" />
  <path
     d="M0 0 C0.33 0 0.66 0 1 0 C1 30.03 1 60.06 1 91 C-1.31 91 -3.62 91 -6 91 C-6.11585964 80.00384344 -6.20469815 69.00783213 -6.25906086 58.01118946 C-6.28515264 52.90494538 -6.32054329 47.79911894 -6.37719727 42.69311523 C-6.43153163 37.76532068 -6.46142369 32.83792779 -6.47438622 27.9098568 C-6.48362352 26.02994145 -6.50166208 24.15004804 -6.52865028 22.27030373 C-6.56496015 19.63650676 -6.56994464 17.00436839 -6.56762695 14.37036133 C-6.58560333 13.59352493 -6.60357971 12.81668854 -6.62210083 12.01631165 C-6.58317448 7.92690595 -6.18742202 6.22438163 -3.52702332 3.03935242 C-2.69310562 2.36636612 -1.85918793 1.69337982 -1 1 C-0.67 0.67 -0.34 0.34 0 0 Z "
     fill="#E3D0B8"
     transform="translate(32,933)"
     id="path48" />
  <path
     d="M0 0 C1.41148377 12.73517997 1.1112314 25.5200486 1.0625 38.3125 C1.05747539 40.61393132 1.05291419 42.9153637 1.04882812 45.21679688 C1.03789764 50.81122446 1.02068582 56.40560033 1 62 C-2.3 62 -5.6 62 -9 62 C-9.19827997 54.45620967 -9.34318133 46.91394701 -9.43945312 39.36816406 C-9.47959773 36.80344206 -9.53412723 34.23890215 -9.60351562 31.67480469 C-9.70095615 27.98066236 -9.74601945 24.28894625 -9.78125 20.59375 C-9.82254028 19.4538562 -9.86383057 18.3139624 -9.90637207 17.13952637 C-9.90979355 11.02124505 -9.39365059 7.67402533 -5.01367188 3.21289062 C-1.31548267 0 -1.31548267 0 0 0 Z "
     fill="#E8D3B9"
     transform="translate(64,962)"
     id="path49" />
  <path
     d="M0 0 C0 22.44 0 44.88 0 68 C-2.64 68 -5.28 68 -8 68 C-8.16248415 60.02001212 -8.28671318 52.04071974 -8.3626852 44.05948448 C-8.39915646 40.35302515 -8.44858712 36.64770069 -8.52807617 32.94189453 C-8.60436608 29.36266635 -8.64603622 25.78452658 -8.6641407 22.20454788 C-8.67703473 20.84170016 -8.70221637 19.47890938 -8.7401104 18.11652756 C-9.0250987 7.44198161 -9.0250987 7.44198161 -6.4302063 3.79180908 C-2.10823987 0 -2.10823987 0 0 0 Z "
     fill="#E6D2B9"
     transform="translate(48,956)"
     id="path50" />
</svg>
